SplineFontDB: 3.0
FontName: SPLaksaman-Italic
FullName: SP Laksaman Italic
FamilyName: SP Laksaman
Weight: Book
Copyright: Copyright (c) 2006 by Department of Intellectual Property (DIP), Ministry of Commerce and Software Industry Promotion Agency (Public Organization) (SIPA). All rights reserved.\nCreated by : Suppakit CHALERMLARP.
Version: 2.2
ItalicAngle: -12
UnderlinePosition: -35
UnderlineWidth: 30
Ascent: 800
Descent: 200
LayerCount: 2
Layer: 0 0 "Back"  1
Layer: 1 0 "Fore"  0
NeedsXUIDChange: 1
XUID: [1021 375 425136265 10940182]
FSType: 0
OS2Version: 3
OS2_WeightWidthSlopeOnly: 0
OS2_UseTypoMetrics: 1
CreationTime: 1158862012
ModificationTime: 1240656725
PfmFamily: 17
TTFWeight: 400
TTFWidth: 5
LineGap: 30
VLineGap: 0
Panose: 2 11 5 0 4 2 0 2 0 3
OS2TypoAscent: 50
OS2TypoAOffset: 1
OS2TypoDescent: -50
OS2TypoDOffset: 1
OS2TypoLinegap: 0
OS2WinAscent: 14
OS2WinAOffset: 1
OS2WinDescent: -185
OS2WinDOffset: 1
HheadAscent: 14
HheadAOffset: 1
HheadDescent: 185
HheadDOffset: 1
OS2SubXSize: 700
OS2SubYSize: 650
OS2SubXOff: 0
OS2SubYOff: 140
OS2SupXSize: 700
OS2SupYSize: 650
OS2SupXOff: 0
OS2SupYOff: 477
OS2StrikeYSize: 30
OS2StrikeYPos: 250
OS2FamilyClass: 2053
OS2Vendor: 'psk '
Lookup: 4 0 0 "'frac' Diagonal Fractions in Latin lookup 0"  {"'frac' Diagonal Fractions in Latin lookup 0 subtable"  } ['frac' ('latn' <'dflt' > ) ]
Lookup: 6 0 0 "'rlig' Required Ligatures in Latin lookup 1"  {"'rlig' Required Ligatures in Latin lookup 1 subtable"  } ['rlig' ('latn' <'dflt' > ) ]
Lookup: 6 0 0 "'rlig' Required Ligatures in Latin lookup 2"  {"'rlig' Required Ligatures in Latin lookup 2 subtable"  } ['rlig' ('latn' <'dflt' > ) ]
Lookup: 6 0 0 "'rlig' Required Ligatures in Latin lookup 3"  {"'rlig' Required Ligatures in Latin lookup 3 subtable"  } ['rlig' ('latn' <'dflt' > ) ]
Lookup: 6 0 0 "'rlig' Required Ligatures in Latin lookup 4"  {"'rlig' Required Ligatures in Latin lookup 4 subtable"  } ['rlig' ('latn' <'dflt' > ) ]

StartChar: .notdef
Encoding: 65536 -1 0
Width: 1040
VWidth: 1504
Flags: W
HStem: 0 42<120 921> 1175 42<120 921>
VStem: 75 45<42 1175> 921 45<42 1175>
LayerCount: 2
Fore
SplineSet
966 0 m 1
 75 0 l 1
 75 1217 l 1
 966 1217 l 1
 966 0 l 1
921 42 m 1
 921 1175 l 1
 120 1175 l 1
 120 42 l 1
 921 42 l 1
EndSplineSet
Validated: 1
EndChar

StartChar: exclam
Encoding: 33 33 2
Width: 221
VWidth: 1504
Flags: W
HStem: -9 104<17.5626 87.5925> 694 20G<155.173 230>
VStem: -1 106<8.55978 76.4541>
LayerCount: 2
Fore
SplineSet
105 181 m 1
 57 181 l 1
 159 714 l 1
 230 714 l 1
 105 181 l 1
105 52 m 0
 105 19 71 -9 41 -9 c 256
 8 -9 -1 19 -1 34 c 0
 -1 63 31 95 63 95 c 256
 88 95 105 76 105 52 c 0
EndSplineSet
Validated: 1
EndChar

StartChar: quotedbl
Encoding: 34 34 3
Width: 312
VWidth: 1504
Flags: W
HStem: 508 243<150 153 281 284>
VStem: 113 239
LayerCount: 2
Fore
SplineSet
284 508 m 1
 244 508 l 1
 281 751 l 1
 352 751 l 1
 284 508 l 1
153 508 m 1
 113 508 l 1
 150 751 l 1
 221 751 l 1
 153 508 l 1
EndSplineSet
Validated: 1
EndChar

StartChar: numbersign
Encoding: 35 35 4
Width: 606
VWidth: 1504
Flags: W
HStem: 0 21G<45 104.518 289 347.786> 224 47<33 119 188 364 432 525> 450 48<102 194 262 439 507 594> 694 20G<277.241 334 519.518 579>
LayerCount: 2
Fore
SplineSet
525 224 m 1
 417 224 l 1
 341 0 l 1
 289 0 l 1
 364 224 l 1
 171 224 l 1
 98 0 l 1
 45 0 l 1
 119 224 l 1
 23 224 l 1
 33 271 l 1
 135 271 l 1
 194 450 l 1
 92 450 l 1
 102 498 l 1
 211 498 l 1
 284 714 l 1
 334 714 l 1
 262 498 l 1
 456 498 l 1
 526 714 l 1
 579 714 l 1
 507 498 l 1
 605 498 l 1
 594 450 l 1
 490 450 l 1
 432 271 l 1
 535 271 l 1
 525 224 l 1
381 271 m 1
 439 450 l 1
 245 450 l 1
 188 271 l 1
 381 271 l 1
EndSplineSet
Validated: 1
EndChar

StartChar: dollar
Encoding: 36 36 5
Width: 543
VWidth: 1504
Flags: W
HStem: 24 48<105.465 182 235 298.031> 600 21G<464 493.833> 644 48<268.082 335 387 447.867>
VStem: 137 58<456.582 577.235> 385 60<154.357 281.056>
LayerCount: 2
Fore
SplineSet
352 644 m 0
 257 644 195 579 195 509 c 0
 195 415 354 400 420 319 c 0
 437 296 445 270 445 240 c 0
 445 147 368 48 235 24 c 1
 211 -87 l 1
 158 -87 l 1
 182 24 l 1
 118 24 67 42 29 77 c 1
 66 123 l 1
 99 89 146 72 206 72 c 0
 320 72 385 149 385 223 c 0
 385 269 349 308 281 340 c 0
 185 384 137 436 137 498 c 0
 137 576 204 673 335 692 c 1
 360 806 l 1
 411 806 l 1
 387 692 l 1
 436 689 479 674 516 648 c 1
 478 600 l 1
 450 629 408 644 352 644 c 0
EndSplineSet
Validated: 1
EndChar

StartChar: percent
Encoding: 37 37 6
Width: 879
VWidth: 1504
Flags: W
HStem: -14 21G<126 193.219> -5 49<552.773 675.912> 289 48<157.563 281.874> 375 48<614.394 738.498> 668 48<223.975 348.33>
VStem: 82 56<356.146 545.62> 369 55<457.89 646.933> 474 56<65.8628 254.083> 761 55<163.604 353.279>
LayerCount: 2
Fore
SplineSet
769 716 m 1xbf80
 177 -14 l 1
 126 -14 l 1
 718 716 l 1
 769 716 l 1xbf80
208 289 m 256
 124 289 82 332 82 419 c 0
 82 495 118 716 299 716 c 256
 392 716 424 668 424 571 c 0
 424 543 402 289 208 289 c 256
218 337 m 256
 346 337 369 527 369 577 c 0
 369 644 337 668 289 668 c 256
 198 668 138 567 138 410 c 0
 138 361 170 337 218 337 c 256
600 -5 m 256x7f80
 516 -5 474 39 474 126 c 0
 474 198 507 423 690 423 c 256
 756 423 816 397 816 292 c 0
 816 220 783 -5 600 -5 c 256x7f80
761 281 m 0
 761 344 734 375 680 375 c 256
 551 375 530 179 530 138 c 0
 530 75 557 44 611 44 c 256
 739 44 761 236 761 281 c 0
EndSplineSet
Validated: 1
EndChar

StartChar: ampersand
Encoding: 38 38 7
Width: 636
VWidth: 1504
Flags: W
HStem: -14 49<114.005 303.314> 0 21G<490 582> 696 46<297.255 431.298>
VStem: -0 58<88.961 244.356> 167 57<456.779 614.845> 454 55<551.085 672.64>
LayerCount: 2
Fore
SplineSet
509 632 m 0xbc
 509 487 329 412 278 391 c 1
 322 327 380 247 453 152 c 1
 497 198 540 276 582 385 c 1
 638 385 l 1
 587 258 534 169 481 120 c 1
 510 82 544 42 582 0 c 1
 507 0 l 1x7c
 439 80 l 1
 352 17 264 -14 177 -14 c 0
 63 -14 -0 63 -0 147 c 0
 -0 240 57 345 203 411 c 1
 179 455 167 495 167 532 c 0
 167 619 247 742 385 742 c 0
 477 742 509 681 509 632 c 0xbc
260 429 m 1
 445 509 454 578 454 616 c 0
 454 650 437 696 370 696 c 0
 281 696 224 610 224 544 c 0
 224 511 236 472 260 429 c 1
58 160 m 0
 58 86 113 35 200 35 c 0xbc
 275 35 346 62 412 116 c 1
 340 207 277 293 224 373 c 1
 113 320 58 245 58 160 c 0
EndSplineSet
Validated: 1
EndChar

StartChar: quotesingle
Encoding: 39 39 8
Width: 180
VWidth: 1504
Flags: W
HStem: 508 243<150 153>
VStem: 113 107
LayerCount: 2
Fore
SplineSet
153 508 m 1
 113 508 l 1
 150 751 l 1
 220 751 l 1
 153 508 l 1
EndSplineSet
Validated: 1
EndChar

StartChar: parenleft
Encoding: 40 40 9
Width: 285
VWidth: 1504
Flags: W
VStem: 23 58<64.8681 376.503>
LayerCount: 2
Fore
SplineSet
361 800 m 1
 95 558 81 290 81 217 c 0
 81 109 111 8 170 -87 c 1
 113 -87 l 1
 53 -1 23 97 23 207 c 0
 23 295 38 543 301 800 c 1
 361 800 l 1
EndSplineSet
Validated: 1
EndChar

StartChar: parenright
Encoding: 41 41 10
Width: 285
VWidth: 1504
Flags: W
VStem: 222 59<334.994 645.93>
LayerCount: 2
Fore
SplineSet
281 503 m 0
 281 423 269 160 3 -87 c 1
 -53 -87 l 1
 198 162 222 389 222 473 c 0
 222 588 196 697 135 800 c 1
 193 800 l 1
 252 712 281 613 281 503 c 0
EndSplineSet
Validated: 1
EndChar

StartChar: asterisk
Encoding: 42 42 11
Width: 428
VWidth: 1504
Flags: W
HStem: 535 58<85.5517 154 374 451.448> 723 20G<196.606 242.087 364.362 409.303>
LayerCount: 2
Fore
SplineSet
450 535 m 1
 298 549 l 1
 367 420 l 1
 310 388 l 1
 262 537 l 1
 152 388 l 1
 110 420 l 1
 233 549 l 1
 75 535 l 1
 87 593 l 1
 241 582 l 1
 171 710 l 1
 236 743 l 1
 278 605 l 1
 379 743 l 1
 429 710 l 1
 305 582 l 1
 462 593 l 1
 450 535 l 1
EndSplineSet
Validated: 1
EndChar

StartChar: plus
Encoding: 43 43 12
Width: 618
VWidth: 1504
Flags: W
HStem: 0 21G<218 275.194> 248 50<56 271 334 549>
LayerCount: 2
Fore
SplineSet
549 248 m 1
 323 248 l 1
 271 0 l 1
 218 0 l 1
 271 248 l 1
 45 248 l 1
 56 298 l 1
 281 298 l 1
 331 537 l 1
 384 537 l 1
 334 298 l 1
 560 298 l 1
 549 248 l 1
EndSplineSet
Validated: 1
EndChar

StartChar: comma
Encoding: 44 44 13
Width: 243
VWidth: 1504
Flags: W
HStem: -164 266
VStem: 17 113<-2.88784 80.875>
LayerCount: 2
Fore
SplineSet
86 102 m 0
 121 102 130 73 130 57 c 0
 130 38 111 -38 48 -102 c 0
 21 -131 -6 -152 -33 -164 c 1
 -48 -141 l 1
 10 -106 48 -63 65 -11 c 1
 34 -11 17 12 17 35 c 0
 17 68 51 102 86 102 c 0
EndSplineSet
Validated: 1
EndChar

StartChar: hyphen
Encoding: 45 45 14
AltUni2: 0000ad.ffffffff.0
Width: 324
VWidth: 1504
Flags: W
HStem: 248 50<29 269>
VStem: 8 282
LayerCount: 2
Fore
SplineSet
269 248 m 1
 8 248 l 1
 29 298 l 1
 290 298 l 1
 269 248 l 1
EndSplineSet
Validated: 1
EndChar

StartChar: period
Encoding: 46 46 15
Width: 243
VWidth: 1504
Flags: W
HStem: -9 104<29.5642 99.5925>
VStem: 11 106<8.11055 76.955>
LayerCount: 2
Fore
SplineSet
117 52 m 0
 117 19 83 -9 53 -9 c 256
 28 -9 11 9 11 32 c 0
 11 62 42 95 75 95 c 256
 100 95 117 76 117 52 c 0
EndSplineSet
Validated: 1
EndChar

StartChar: slash
Encoding: 47 47 16
Width: 406
VWidth: 1504
Flags: W
HStem: 722 20G<434.031 510>
LayerCount: 2
Fore
SplineSet
510 742 m 1
 -44 -44 l 1
 -101 -44 l 1
 448 742 l 1
 510 742 l 1
EndSplineSet
Validated: 1
EndChar

StartChar: zero
Encoding: 48 48 17
Width: 544
VWidth: 1504
Flags: W
HStem: -17 52<153.358 282.641> 669 52<281.276 408.839>
VStem: 40 61<100.303 375.437> 460 60<320.391 608.155>
LayerCount: 2
Fore
SplineSet
520 488 m 0
 520 250 382 -17 203 -17 c 0
 73 -17 40 120 40 221 c 0
 40 403 157 721 360 721 c 256
 488 721 520 597 520 488 c 0
214 35 m 0
 351 35 460 286 460 485 c 0
 460 573 438 669 349 669 c 0
 200 669 101 394 101 225 c 0
 101 134 124 35 214 35 c 0
EndSplineSet
Validated: 1
EndChar

StartChar: one
Encoding: 49 49 18
Width: 544
VWidth: 1504
Flags: W
HStem: 0 54<92 205 265 367> 699 20G<346.026 381>
VStem: 81 316
LayerCount: 2
Fore
SplineSet
367 0 m 1
 81 0 l 1
 92 54 l 1
 205 54 l 1
 326 627 l 1
 193 529 l 1
 168 567 l 1
 373 719 l 1
 389 719 397 709 397 688 c 0
 397 681 396 672 394 662 c 2
 265 54 l 1
 378 54 l 1
 367 0 l 1
EndSplineSet
Validated: 1
EndChar

StartChar: two
Encoding: 50 50 19
Width: 544
VWidth: 1504
Flags: W
HStem: 0 59<68 427> 663 56<272.193 444.198>
VStem: 478 61<492.933 631.313>
LayerCount: 2
Fore
SplineSet
539 578 m 0
 539 409 295 266 68 59 c 1
 451 59 l 1
 427 0 l 1
 -26 0 l 1
 -16 25 -3 54 14 86 c 1
 186 227 l 2
 249 277 321 341 402 418 c 0
 470 490 478 542 478 573 c 0
 478 634 429 663 366 663 c 0
 275 663 215 618 184 528 c 1
 132 543 l 1
 166 646 249 719 379 719 c 0
 494 719 539 644 539 578 c 0
EndSplineSet
Validated: 1
EndChar

StartChar: three
Encoding: 51 51 20
Width: 544
VWidth: 1504
Flags: W
HStem: -17 61<60.0409 266.06> 376 54<334 386.788> 665 54<261.423 424.033>
VStem: 423 62<194.011 340.23> 438 57<556.836 649.085>
LayerCount: 2
Fore
SplineSet
334 430 m 1xe8
 344 430 l 2
 457 430 485 344 485 290 c 0
 485 146 354 -17 135 -17 c 0
 73 -17 27 2 -5 39 c 1
 30 86 l 1
 61 58 107 44 167 44 c 0
 308 44 423 166 423 276 c 0xf0
 423 332 385 376 320 376 c 0
 277 376 241 364 212 341 c 1
 194 390 l 1
 326 478 l 2
 429 553 438 583 438 609 c 0
 438 646 408 665 349 665 c 0
 274 665 210 627 158 552 c 1
 120 575 l 1
 171 663 268 719 366 719 c 0
 435 719 495 685 495 620 c 0
 495 582 480 525 334 430 c 1xe8
EndSplineSet
Validated: 1
EndChar

StartChar: four
Encoding: 52 52 21
Width: 544
VWidth: 1504
Flags: W
HStem: 0 21G<287 351.192> 167 56<95 322 394 481> 714 20G<387.5 497.773>
LayerCount: 2
Fore
SplineSet
334 223 m 1
 426 657 l 1
 263 585 133 388 95 223 c 1
 334 223 l 1
481 167 m 1
 382 167 l 1
 347 0 l 1
 287 0 l 1
 322 167 l 1
 18 167 l 1
 86 465 273 690 502 734 c 1
 394 223 l 1
 501 223 l 1
 481 167 l 1
EndSplineSet
Validated: 1
EndChar

StartChar: five
Encoding: 53 53 22
Width: 544
VWidth: 1504
Flags: W
HStem: -12 57<53.4785 255.485> 403 57<209.245 354.735> 657 57<266 519>
VStem: 408 63<193.35 353.448>
LayerCount: 2
Fore
SplineSet
155 45 m 0
 286 45 408 151 408 289 c 0
 408 340 374 403 265 403 c 0
 223 403 186 386 153 353 c 1
 122 350 l 1
 221 714 l 1
 542 714 l 1
 519 657 l 1
 266 657 l 1
 208 445 l 1
 237 455 266 460 296 460 c 0
 409 460 471 389 471 302 c 0
 471 146 338 -12 131 -12 c 0
 62 -12 12 7 -18 44 c 1
 15 90 l 1
 66 53 102 45 155 45 c 0
EndSplineSet
Validated: 1
EndChar

StartChar: six
Encoding: 54 54 23
Width: 544
VWidth: 1504
Flags: W
HStem: -12 51<146.566 297.097> 399 49<212.943 362.998> 684 44<462.047 520>
VStem: 36 57<94.6796 264.192> 411 61<171.869 349.762>
LayerCount: 2
Fore
SplineSet
314 448 m 0
 440 448 472 343 472 278 c 0
 472 164 389 -12 212 -12 c 0
 71 -12 36 94 36 173 c 0
 36 370 220 671 525 728 c 1
 520 684 l 1
 364 643 217 519 143 370 c 1
 158 399 220 448 314 448 c 0
215 39 m 0
 342 39 411 169 411 269 c 0
 411 324 387 399 292 399 c 0
 188 399 93 288 93 174 c 0
 93 108 132 39 215 39 c 0
EndSplineSet
Validated: 1
EndChar

StartChar: seven
Encoding: 55 55 24
Width: 544
VWidth: 1504
Flags: W
HStem: 0 21G<132 209.5> 657 57<158 486>
VStem: 132 64<0 83.3489>
LayerCount: 2
Fore
SplineSet
196 0 m 1
 132 0 l 1
 165 151 225 296 314 435 c 0
 354 495 483 656 486 657 c 1
 123 657 l 1
 158 714 l 1
 581 714 l 1
 557 654 l 1
 280 372 223 127 196 0 c 1
EndSplineSet
Validated: 1
EndChar

StartChar: eight
Encoding: 56 56 25
Width: 544
VWidth: 1504
Flags: W
HStem: -12 53<130.134 306.596> 665 56<259.017 425.998>
VStem: 20 61<86.0037 238.969> 119 60<463.462 588.112> 411 63<141.897 301.203> 463 62<500.516 629.613>
LayerCount: 2
Fore
SplineSet
215 41 m 0xf8
 330 41 411 125 411 221 c 0
 411 268 392 351 281 358 c 0
 149 350 81 233 81 154 c 0
 81 80 137 41 215 41 c 0xf8
293 415 m 1
 377 435 463 478 463 572 c 0xf4
 463 609 440 665 347 665 c 0
 232 665 179 578 179 519 c 0
 179 470 217 435 293 415 c 1
474 238 m 0xf8
 474 155 413 -12 203 -12 c 0
 97 -12 20 36 20 138 c 0
 20 268 115 366 218 387 c 1
 152 407 119 461 119 511 c 0
 119 595 201 721 360 721 c 0
 483 721 525 642 525 581 c 0xf4
 525 465 422 404 358 387 c 1
 443 368 474 297 474 238 c 0xf8
EndSplineSet
Validated: 1
EndChar

StartChar: nine
Encoding: 57 57 26
Width: 544
VWidth: 1504
Flags: W
HStem: -18 44<41 104.911> 262 49<198.029 347.688> 671 51<264.557 414.274>
VStem: 90 60<361.013 543.492> 468 57<445.84 615.647>
LayerCount: 2
Fore
SplineSet
350 722 m 0
 490 722 525 616 525 537 c 0
 525 340 341 39 36 -18 c 1
 41 26 l 1
 193 66 345 189 420 340 c 1
 406 314 343 262 247 262 c 0
 121 262 90 367 90 434 c 0
 90 559 184 722 350 722 c 0
269 311 m 0
 374 311 468 423 468 535 c 0
 468 604 427 671 346 671 c 0
 226 671 150 550 150 442 c 0
 150 388 174 311 269 311 c 0
EndSplineSet
Validated: 1
EndChar

StartChar: colon
Encoding: 58 58 27
Width: 243
VWidth: 1504
Flags: W
HStem: -9 104<29.5642 99.5925> 375 103<110.345 182.211>
VStem: 11 106<8.11055 76.955> 93 107<393.407 460.903>
LayerCount: 2
Fore
SplineSet
117 52 m 0xe0
 117 19 83 -9 53 -9 c 256
 28 -9 11 9 11 32 c 0
 11 62 42 95 75 95 c 256
 100 95 117 76 117 52 c 0xe0
200 436 m 0xd0
 200 401 163 375 134 375 c 256
 109 375 93 392 93 414 c 0
 93 448 124 478 156 478 c 256
 182 478 200 459 200 436 c 0xd0
EndSplineSet
Validated: 1
EndChar

StartChar: semicolon
Encoding: 59 59 28
Width: 243
VWidth: 1504
Flags: W
HStem: 375 103<110.345 182.211>
VStem: 17 113<-2.88784 80.875> 93 107<393.407 460.903>
LayerCount: 2
Fore
SplineSet
86 102 m 0xc0
 121 102 130 73 130 57 c 0
 130 38 111 -38 48 -102 c 0
 21 -131 -6 -152 -33 -164 c 1
 -48 -141 l 1
 10 -106 48 -63 65 -11 c 1
 34 -11 17 12 17 35 c 0
 17 68 51 102 86 102 c 0xc0
200 436 m 0xa0
 200 401 163 375 134 375 c 256
 109 375 93 392 93 414 c 0
 93 448 124 478 156 478 c 256
 182 478 200 459 200 436 c 0xa0
EndSplineSet
Validated: 1
EndChar

StartChar: less
Encoding: 60 60 29
Width: 618
VWidth: 1504
Flags: W
HStem: -3 21G<451.698 488.211>
LayerCount: 2
Fore
SplineSet
496 54 m 1
 484 -3 l 1
 56 262 l 1
 65 302 l 1
 606 567 l 1
 594 511 l 1
 120 281 l 1
 496 54 l 1
EndSplineSet
Validated: 1
EndChar

StartChar: equal
Encoding: 61 61 30
Width: 618
VWidth: 1504
Flags: W
HStem: 153 50<60 502> 349 50<102 545>
LayerCount: 2
Fore
SplineSet
555 399 m 1
 545 349 l 1
 92 349 l 1
 102 399 l 1
 555 399 l 1
513 203 m 1
 502 153 l 1
 50 153 l 1
 60 203 l 1
 513 203 l 1
EndSplineSet
Validated: 1
EndChar

StartChar: greater
Encoding: 62 62 31
Width: 618
VWidth: 1504
Flags: W
HStem: -3 21G<4.21053 40.7547>
LayerCount: 2
Fore
SplineSet
549 302 m 1
 540 262 l 1
 0 -3 l 1
 12 54 l 1
 484 283 l 1
 110 511 l 1
 122 567 l 1
 549 302 l 1
EndSplineSet
Validated: 1
EndChar

StartChar: question
Encoding: 63 63 32
Width: 425
VWidth: 1504
Flags: W
HStem: -9 104<88.148 157.929> 674 53<179.881 347.575>
VStem: 70 105<8.333 76.584> 130 52<185 278.59> 371 60<522.816 651.22>
LayerCount: 2
Fore
SplineSet
289 727 m 0xd8
 409 727 431 650 431 606 c 0
 431 534 385 467 293 388 c 0
 215 320 182 259 182 185 c 1
 131 185 l 1
 130 190 130 195 130 201 c 0
 130 271 172 337 252 409 c 0
 358 505 371 561 371 598 c 0
 371 649 337 674 268 674 c 0
 221 674 177 661 138 635 c 1
 126 680 l 1
 181 711 235 727 289 727 c 0xd8
175 54 m 0xe8
 175 19 142 -9 111 -9 c 256
 88 -9 70 7 70 30 c 0
 70 65 103 95 134 95 c 256
 161 95 175 74 175 54 c 0xe8
EndSplineSet
Validated: 1
EndChar

StartChar: at
Encoding: 64 64 33
Width: 806
VWidth: 1504
Flags: W
HStem: -146 47<186.562 422.303> 2 42<230.196 377.635> 14 46<508 574.781> 250 43<322.425 490> 429 45<318.364 481.25> 549 44<355.887 592.5>
VStem: 2 59<26.6814 240.428> 160 58<56.6033 172.603> 457 51<60 78> 506 51<293.565 404.345> 714 53<221.62 431.305>
LayerCount: 2
Fore
SplineSet
477 549 m 0xbfa0
 218 549 61 311 61 126 c 0
 61 9 138 -99 292 -99 c 0
 361 -99 423 -84 478 -54 c 1
 490 -98 l 1
 423 -130 353 -146 278 -146 c 0
 103 -146 2 -27 2 116 c 0
 2 326 188 593 493 593 c 0
 710 593 767 445 767 344 c 0
 767 141 605 19 504 14 c 2
 457 11 l 1
 457 78 l 1xbfa0
 406 27 348 2 281 2 c 0
 200 2 160 52 160 102 c 0
 160 178 220 293 499 293 c 1
 503 308 506 324 506 345 c 0
 506 401 472 429 406 429 c 0
 362 429 322 417 286 393 c 1
 277 430 l 1
 322 459 369 474 418 474 c 0
 510 474 557 433 557 351 c 0xdf60
 557 331 554 308 549 283 c 2
 516 122 l 2
 511 100 508 79 508 60 c 1
 590 64 714 165 714 334 c 0
 714 422 666 549 477 549 c 0xbfa0
293 44 m 0xdf20
 419 44 467 141 471 158 c 2
 490 250 l 1
 470 250 l 2
 281 250 218 189 218 97 c 0
 218 62 247 44 293 44 c 0xdf20
EndSplineSet
Validated: 1
EndChar

StartChar: A
Encoding: 65 65 34
Width: 601
VWidth: 1504
Flags: W
HStem: 0 21G<-65 11.2174 469.043 537> 230 50<158 430> 707 20G<348.308 423.219>
LayerCount: 2
Fore
SplineSet
537 0 m 1
 472 0 l 1
 438 230 l 1
 129 230 l 1
 0 0 l 1
 -65 0 l 1
 360 727 l 1
 420 727 l 1
 537 0 l 1
430 280 m 1
 376 662 l 1
 158 280 l 1
 430 280 l 1
EndSplineSet
Validated: 1
EndChar

StartChar: B
Encoding: 66 66 35
Width: 568
VWidth: 1504
Flags: W
HStem: -9 48<85.5853 308.416> 355 48<159 370.828> 675 50<215.432 434.538>
VStem: 445 57<154.957 297.759> 486 61<499.572 629.036>
LayerCount: 2
Fore
SplineSet
388 382 m 1xe8
 434 371 502 326 502 241 c 0xf0
 502 141 438 -9 150 -9 c 0
 106 -9 62 -4 17 6 c 1
 165 705 l 1
 218 718 270 725 320 725 c 0
 471 725 547 680 547 589 c 0
 547 506 494 418 388 382 c 1xe8
281 403 m 2
 418 403 486 497 486 570 c 0xe8
 486 640 430 675 310 675 c 0
 279 675 247 672 215 665 c 1
 159 403 l 1
 281 403 l 2
173 39 m 0
 336 39 445 118 445 236 c 0xf0
 445 326 344 355 254 355 c 2
 150 355 l 1
 84 48 l 1
 110 42 140 39 173 39 c 0
EndSplineSet
Validated: 1
EndChar

StartChar: C
Encoding: 67 67 36
Width: 610
VWidth: 1504
Flags: W
HStem: -11 52<221.058 465.273> 675 52<345.274 592.884>
VStem: 35 61<167.061 404.046>
LayerCount: 2
Fore
SplineSet
96 275 m 0
 96 142 180 41 320 41 c 0
 383 41 443 52 502 75 c 1
 510 27 l 1
 452 2 384 -11 307 -11 c 0
 125 -11 35 120 35 266 c 0
 35 496 218 727 463 727 c 0
 540 727 603 714 651 689 c 1
 623 641 l 1
 574 664 518 675 456 675 c 0
 254 675 96 474 96 275 c 0
EndSplineSet
Validated: 1
EndChar

StartChar: D
Encoding: 68 68 37
Width: 648
VWidth: 1504
Flags: W
HStem: -6 51<87.568 336.182> 672 52<217.216 469.313>
VStem: 570 60<332.31 568.338>
LayerCount: 2
Fore
SplineSet
384 724 m 0
 541 724 630 628 630 478 c 0
 630 359 570 -6 199 -6 c 0
 168 -6 108 -1 18 8 c 1
 165 705 l 1
 260 718 333 724 384 724 c 0
227 45 m 0
 482 45 570 329 570 461 c 0
 570 593 496 672 369 672 c 0
 338 672 286 668 215 660 c 1
 86 54 l 1
 135 48 182 45 227 45 c 0
EndSplineSet
Validated: 1
EndChar

StartChar: E
Encoding: 69 69 38
Width: 527
VWidth: 1504
Flags: W
HStem: 0 50<86 406> 353 50<159 444> 666 50<217 548>
LayerCount: 2
Fore
SplineSet
406 0 m 1
 17 0 l 1
 168 716 l 1
 558 716 l 1
 548 666 l 1
 217 666 l 1
 159 403 l 1
 454 403 l 1
 444 353 l 1
 149 353 l 1
 86 50 l 1
 417 50 l 1
 406 0 l 1
EndSplineSet
Validated: 1
EndChar

StartChar: F
Encoding: 70 70 39
Width: 527
VWidth: 1504
Flags: W
HStem: 0 21G<17 79.186> 344 50<158 471> 666 50<217 563>
LayerCount: 2
Fore
SplineSet
471 344 m 1
 147 344 l 1
 75 0 l 1
 17 0 l 1
 168 716 l 1
 573 716 l 1
 563 666 l 1
 217 666 l 1
 158 394 l 1
 481 394 l 1
 471 344 l 1
EndSplineSet
Validated: 1
EndChar

StartChar: G
Encoding: 71 71 40
Width: 639
VWidth: 1504
Flags: W
HStem: -8 49<188.916 424.614> 310 48<347 519> 674 50<337.08 571.801>
VStem: 33 60<140.246 391.834>
LayerCount: 2
Fore
SplineSet
93 251 m 0
 93 151 132 41 289 41 c 0
 352 41 413 53 471 78 c 1
 519 310 l 1
 337 310 l 1
 347 358 l 1
 587 358 l 1
 514 15 l 1
 507 21 497 24 484 24 c 1
 392 8 l 2
 330 -3 289 -8 269 -8 c 0
 80 -8 33 138 33 248 c 0
 33 483 194 724 451 724 c 0
 524 724 586 712 636 687 c 1
 608 639 l 1
 553 662 496 674 438 674 c 0
 250 674 93 478 93 251 c 0
EndSplineSet
Validated: 1
EndChar

StartChar: H
Encoding: 72 72 41
Width: 663
VWidth: 1504
Flags: W
HStem: 0 21G<17 79.2135 459 521.246> 356 50<161 534> 696 20G<163.782 227 606.742 669>
LayerCount: 2
Fore
SplineSet
517 0 m 1
 459 0 l 1
 534 356 l 1
 150 356 l 1
 75 0 l 1
 17 0 l 1
 168 716 l 1
 227 716 l 1
 161 406 l 1
 545 406 l 1
 611 716 l 1
 669 716 l 1
 517 0 l 1
EndSplineSet
Validated: 1
EndChar

StartChar: I
Encoding: 73 73 42
Width: 221
VWidth: 1504
Flags: W
HStem: 0 21G<17 79.2458> 696 20G<163.782 227>
VStem: 17 210
LayerCount: 2
Fore
SplineSet
75 0 m 1
 17 0 l 1
 168 716 l 1
 227 716 l 1
 75 0 l 1
EndSplineSet
Validated: 1
EndChar

StartChar: J
Encoding: 74 74 43
Width: 397
VWidth: 1504
Flags: W
HStem: -14 52<-48.4525 139.2> 696 20G<339.751 403>
LayerCount: 2
Fore
SplineSet
301 235 m 2
 266 69 178 -14 38 -14 c 0
 -1 -14 -34 -6 -63 9 c 1
 -39 56 l 1
 -18 44 11 38 48 38 c 0
 181 38 221 134 245 250 c 2
 344 716 l 1
 403 716 l 1
 301 235 l 2
EndSplineSet
Validated: 1
EndChar

StartChar: K
Encoding: 75 75 44
Width: 565
VWidth: 1504
Flags: W
HStem: 0 13G<17 79.1892 453.612 517.818> 696 20G<163.782 227 560.524 641>
LayerCount: 2
Fore
SplineSet
523 14 m 1
 466 -8 l 1
 230 373 l 1
 137 296 l 1
 75 0 l 1
 17 0 l 1
 168 716 l 1
 227 716 l 1
 153 372 l 1
 585 725 l 1
 641 708 l 1
 280 411 l 1
 523 14 l 1
EndSplineSet
Validated: 1
EndChar

StartChar: L
Encoding: 76 76 45
Width: 530
VWidth: 1504
Flags: W
HStem: 0 50<86 427> 696 20G<163.782 227>
LayerCount: 2
Fore
SplineSet
427 0 m 1
 17 0 l 1
 168 716 l 1
 227 716 l 1
 86 50 l 1
 438 50 l 1
 427 0 l 1
EndSplineSet
Validated: 1
EndChar

StartChar: M
Encoding: 77 77 46
Width: 824
VWidth: 1504
Flags: W
HStem: 0 21G<-5 56.6646 324.899 378.582 644 701.877> 696 20G<191.358 269.022 721.474 802>
LayerCount: 2
Fore
SplineSet
699 0 m 1
 644 0 l 1
 733 632 l 1
 367 0 l 1
 328 0 l 1
 230 632 l 1
 51 0 l 1
 -5 0 l 1
 197 716 l 1
 266 716 l 1
 363 74 l 1
 733 716 l 1
 802 716 l 1
 699 0 l 1
EndSplineSet
Validated: 1
EndChar

StartChar: N
Encoding: 78 78 47
Width: 663
VWidth: 1504
Flags: W
HStem: 0 21G<17 81.2338 448.259 521.246> 696 20G<163.782 243.756 607.705 669>
LayerCount: 2
Fore
SplineSet
517 0 m 1
 456 0 l 1
 211 633 l 1
 77 0 l 1
 17 0 l 1
 168 716 l 1
 236 716 l 1
 478 92 l 1
 612 716 l 1
 669 716 l 1
 517 0 l 1
EndSplineSet
Validated: 1
EndChar

StartChar: O
Encoding: 79 79 48
Width: 731
VWidth: 1504
Flags: W
HStem: -15 51<208.717 413.56> 677 51<337.903 540.904>
VStem: 32 61<165.428 393.847> 659 61<317.775 549.472>
LayerCount: 2
Fore
SplineSet
454 728 m 256
 666 728 720 562 720 459 c 0
 720 224 544 -15 296 -15 c 256
 112 -15 32 117 32 255 c 0
 32 482 203 728 454 728 c 256
93 273 m 0
 93 185 136 36 308 36 c 256
 519 36 659 262 659 438 c 0
 659 563 591 677 444 677 c 256
 233 677 93 452 93 273 c 0
EndSplineSet
Validated: 1
EndChar

StartChar: P
Encoding: 80 80 49
Width: 568
VWidth: 1504
Flags: W
HStem: 0 21G<17 79.186> 292 49<150.372 367.589> 672 52<214.598 451.216>
VStem: 512 57<467.989 619.712>
LayerCount: 2
Fore
SplineSet
343 724 m 0
 467 724 569 670 569 558 c 0
 569 443 461 292 238 292 c 0
 208 292 177 293 138 301 c 1
 75 0 l 1
 17 0 l 1
 167 708 l 1
 229 719 288 724 343 724 c 0
512 552 m 0
 512 632 453 672 331 672 c 0
 281 672 242 670 215 665 c 1
 149 352 l 1
 175 345 210 341 253 341 c 0
 459 352 512 468 512 552 c 0
EndSplineSet
Validated: 1
EndChar

StartChar: Q
Encoding: 81 81 50
Width: 732
VWidth: 1504
Flags: W
HStem: -101 56<473.217 555.125> -15 51<210.22 346.654> 677 51<337.903 540.904>
VStem: 32 61<165.428 393.847> 659 61<319.524 549.472>
LayerCount: 2
Fore
SplineSet
720 459 m 0
 720 264 595 48 388 -2 c 1
 442 -27 507 -41 584 -45 c 1
 551 -101 l 1
 456 -78 371 -49 296 -15 c 1
 112 -15 32 117 32 255 c 0
 32 482 203 728 454 728 c 256
 666 728 720 562 720 459 c 0
93 273 m 0
 93 185 136 36 308 36 c 256
 519 36 659 262 659 438 c 0
 659 563 591 677 444 677 c 256
 233 677 93 452 93 273 c 0
EndSplineSet
Validated: 1
EndChar

StartChar: R
Encoding: 82 82 51
Width: 570
VWidth: 1504
Flags: W
HStem: 0 21G<17 79.2331 417 475> 326 47<153 349.388> 672 52<215.697 460.157>
VStem: 421 57<0 232.824> 512 60<481.651 628.28>
LayerCount: 2
Fore
SplineSet
388 346 m 1
 457 303 478 219 478 107 c 0
 478 76 476 41 474 0 c 1
 417 0 l 1
 419 23 421 45 421 65 c 0
 421 239 380 326 283 326 c 2
 144 326 l 1
 75 0 l 1
 17 0 l 1
 165 707 l 1
 224 718 285 724 346 724 c 0
 535 724 572 633 572 572 c 0
 572 509 538 397 388 346 c 1
287 373 m 2
 386 373 512 414 512 576 c 0
 512 640 446 672 335 672 c 0
 280 672 240 669 215 662 c 1
 153 373 l 1
 287 373 l 2
EndSplineSet
Validated: 1
EndChar

StartChar: S
Encoding: 83 83 52
Width: 529
VWidth: 1504
Flags: W
HStem: -14 50<73.8021 291.413> 680 50<264.268 471.793>
VStem: 110 60<467.303 591.358> 402 59<140.078 280.108>
LayerCount: 2
Fore
SplineSet
461 234 m 0
 461 117 361 -14 170 -14 c 0
 92 -14 30 4 -15 41 c 1
 18 92 l 1
 60 55 116 36 187 36 c 0
 348 36 402 145 402 218 c 0
 402 281 352 316 272 343 c 0
 162 382 110 438 110 510 c 0
 110 609 207 730 378 730 c 0
 445 730 496 717 532 692 c 1
 520 675 509 659 498 645 c 1
 460 668 416 680 366 680 c 0
 230 680 170 594 170 526 c 0
 170 473 213 430 299 399 c 0
 438 347 461 293 461 234 c 0
EndSplineSet
Validated: 1
EndChar

StartChar: T
Encoding: 84 84 53
Width: 570
VWidth: 1504
Flags: W
HStem: 0 21G<193 254.234> 666 50<80 334 391 654>
LayerCount: 2
Fore
SplineSet
654 666 m 1
 391 666 l 1
 250 0 l 1
 193 0 l 1
 334 666 l 1
 69 666 l 1
 80 716 l 1
 665 716 l 1
 654 666 l 1
EndSplineSet
Validated: 1
EndChar

StartChar: U
Encoding: 85 85 54
Width: 700
VWidth: 1504
Flags: W
HStem: -14 50<199.446 396.985> 696 20G<163.749 227 643.728 707>
VStem: 67 59<109.941 341.719> 168 59<683.596 716>
LayerCount: 2
Fore
SplineSet
126 204 m 0
 126 70 217 36 293 36 c 0
 507 36 549 252 560 304 c 2
 648 716 l 1
 707 716 l 1
 618 302 l 2
 574 91 462 -14 283 -14 c 256
 139 -14 67 54 67 190 c 0
 67 223 71 260 80 302 c 2
 168 716 l 1
 227 716 l 1
 138 304 l 2
 130 266 126 233 126 204 c 0
EndSplineSet
Validated: 1
EndChar

StartChar: V
Encoding: 86 86 55
Width: 586
VWidth: 1504
Flags: W
HStem: 0 21G<193.927 271.564> 696 20G<87 155.747 596.704 674>
LayerCount: 2
Fore
SplineSet
674 716 m 1
 260 0 l 1
 197 0 l 1
 87 716 l 1
 153 716 l 1
 242 68 l 1
 608 716 l 1
 674 716 l 1
EndSplineSet
Validated: 1
EndChar

StartChar: W
Encoding: 87 87 56
Width: 884
VWidth: 1504
Flags: W
HStem: 0 21G<150.184 224.2 539.2 613.307> 696 20G<87 154.358 486.772 563.679 896.093 972>
VStem: 87 66<638.892 716> 514 49<509.818 650> 540 45<68 175>
LayerCount: 2
Fore
SplineSet
972 716 m 1xe8
 603 0 l 1
 540 0 l 1xe8
 514 650 l 1
 215 0 l 1
 152 0 l 1
 87 716 l 1
 153 716 l 1
 197 68 l 1
 496 716 l 1
 563 716 l 1xf0
 585 68 l 1
 906 716 l 1
 972 716 l 1xe8
EndSplineSet
Validated: 1
EndChar

StartChar: X
Encoding: 88 88 57
Width: 628
VWidth: 1504
Flags: W
HStem: 0 21G<-39 47.7709 459.588 539> 696 20G<123 202.946 591.428 680>
LayerCount: 2
Fore
SplineSet
539 0 m 1
 469 0 l 1
 317 323 l 1
 30 0 l 1
 -39 0 l 1
 292 367 l 1
 123 716 l 1
 194 716 l 1
 334 403 l 1
 609 716 l 1
 680 716 l 1
 361 367 l 1
 539 0 l 1
EndSplineSet
Validated: 1
EndChar

StartChar: Y
Encoding: 89 89 58
Width: 550
VWidth: 1504
Flags: W
HStem: 0 21G<182 243.177> 696 20G<87 162.543 553.829 638>
LayerCount: 2
Fore
SplineSet
638 716 m 1
 305 316 l 1
 239 0 l 1
 182 0 l 1
 248 314 l 1
 87 716 l 1
 155 716 l 1
 287 366 l 1
 570 716 l 1
 638 716 l 1
EndSplineSet
Validated: 1
EndChar

StartChar: Z
Encoding: 90 90 59
Width: 637
VWidth: 1504
Flags: W
HStem: 0 50<56 537> 666 50<159 596>
LayerCount: 2
Fore
SplineSet
560 50 m 1
 537 0 l 1
 -32 0 l 1
 -23 39 l 1
 596 666 l 1
 140 666 l 1
 159 716 l 1
 681 716 l 1
 672 675 l 1
 56 50 l 1
 560 50 l 1
EndSplineSet
Validated: 1
EndChar

StartChar: bracketleft
Encoding: 91 91 60
Width: 294
VWidth: 1504
Flags: W
HStem: -117 45<50 188> 716 45<218 366>
LayerCount: 2
Fore
SplineSet
197 -72 m 1
 188 -117 l 1
 -11 -117 l 1
 174 761 l 1
 375 761 l 1
 366 716 l 1
 218 716 l 1
 50 -72 l 1
 197 -72 l 1
EndSplineSet
Validated: 1
EndChar

StartChar: backslash
Encoding: 92 92 61
Width: 394
VWidth: 1504
Flags: W
HStem: 707 20G<75 139.514>
VStem: 75 271
LayerCount: 2
Fore
SplineSet
346 -42 m 1
 286 -42 l 1
 75 727 l 1
 134 727 l 1
 346 -42 l 1
EndSplineSet
Validated: 1
EndChar

StartChar: bracketright
Encoding: 93 93 62
Width: 294
VWidth: 1504
Flags: W
HStem: -117 45<-63 83> 716 45<113 251>
LayerCount: 2
Fore
SplineSet
128 -117 m 1
 -72 -117 l 1
 -63 -72 l 1
 83 -72 l 1
 251 716 l 1
 104 716 l 1
 113 761 l 1
 314 761 l 1
 128 -117 l 1
EndSplineSet
Validated: 1
EndChar

StartChar: asciicircum
Encoding: 94 94 63
Width: 619
VWidth: 1504
Flags: W
HStem: 702 20G<356.749 428.679>
LayerCount: 2
Fore
SplineSet
424 722 m 1
 537 239 l 1
 481 239 l 1
 384 665 l 1
 105 239 l 1
 50 239 l 1
 370 722 l 1
 424 722 l 1
EndSplineSet
Validated: 1
EndChar

StartChar: underscore
Encoding: 95 95 64
Width: 529
VWidth: 1504
Flags: W
HStem: -275 46<-113 406>
LayerCount: 2
Fore
SplineSet
415 -229 m 1
 406 -275 l 1
 -122 -275 l 1
 -113 -229 l 1
 415 -229 l 1
EndSplineSet
Validated: 1
EndChar

StartChar: grave
Encoding: 96 96 65
Width: 306
VWidth: 1504
Flags: W
HStem: 587 137<235 238.299>
VStem: 174 107
LayerCount: 2
Fore
SplineSet
281 587 m 1
 235 587 l 1
 174 708 l 1
 236 724 l 1
 281 587 l 1
EndSplineSet
Validated: 1
EndChar

StartChar: a
Encoding: 97 97 66
Width: 598
VWidth: 1504
Flags: W
HStem: -15 47<141.498 312.655> 472 48<244.529 437.518>
VStem: 24 57<94.4385 289.639> 417 59<2.75219 93>
LayerCount: 2
Fore
SplineSet
208 -15 m 0
 87 -15 24 61 24 170 c 0
 24 340 146 520 336 520 c 0
 422 520 496 495 557 445 c 1
 481 104 l 2
 477 87 476 72 476 57 c 0
 476 37 479 18 486 2 c 1
 427 -11 l 1
 420 12 417 35 417 57 c 0
 417 69 418 81 420 93 c 1
 365 21 294 -15 208 -15 c 0
81 177 m 0
 81 92 131 32 227 32 c 0
 336 32 425 121 445 215 c 2
 492 420 l 1
 441 455 389 472 337 472 c 0
 185 471 81 322 81 177 c 0
EndSplineSet
Validated: 1
Substitution2: "Single Substitution lookup 42 subtable" uni0E38
Substitution2: "Single Substitution lookup 42 subtable" uni0E38
EndChar

StartChar: b
Encoding: 98 98 67
Width: 603
VWidth: 1504
Flags: W
HStem: -14 50<168.876 353.773> 475 47<270.144 441.686> 740 20G<169.714 233>
VStem: 51 58<91.9065 221.44> 501 58<215.26 414.11>
LayerCount: 2
Fore
SplineSet
559 333 m 0
 559 203 468 -14 254 -14 c 0
 92 -14 51 86 51 164 c 0
 51 181 53 198 57 214 c 2
 174 760 l 1
 233 760 l 1
 159 414 l 1
 218 486 291 522 376 522 c 0
 523 522 559 416 559 333 c 0
109 158 m 0
 109 85 168 36 257 36 c 0
 477 36 501 279 501 327 c 0
 501 393 472 475 356 475 c 0
 256 475 155 396 134 292 c 2
 113 194 l 2
 110 181 109 169 109 158 c 0
EndSplineSet
Validated: 1
Substitution2: "Single Substitution lookup 42 subtable" uni0E39
Substitution2: "Single Substitution lookup 42 subtable" uni0E39
EndChar

StartChar: c
Encoding: 99 99 68
Width: 497
VWidth: 1504
Flags: W
HStem: -14 49<157.538 367.636> 474 48<242.332 451.214>
VStem: 21 58<110.122 298.886>
LayerCount: 2
Fore
SplineSet
79 195 m 0
 79 96 145 35 250 35 c 0
 306 35 355 47 397 71 c 1
 409 23 l 1
 361 -2 306 -14 244 -14 c 0
 69 -14 21 93 21 182 c 0
 21 321 118 522 356 522 c 0
 419 522 469 510 507 486 c 1
 475 438 l 1
 443 462 399 474 343 474 c 0
 180 474 79 333 79 195 c 0
EndSplineSet
Validated: 1
Substitution2: "Single Substitution lookup 42 subtable" uni0E3A
Substitution2: "Single Substitution lookup 42 subtable" uni0E3A
EndChar

StartChar: d
Encoding: 100 100 69
Width: 603
VWidth: 1504
Flags: W
HStem: -14 50<137.856 317.592> 475 47<226.235 401.074> 740 20G<558.723 621>
VStem: 23 57<91.915 301.186> 423 57<1.75472 141.446>
LayerCount: 2
Fore
SplineSet
23 182 m 0
 23 345 133 522 317 522 c 0
 402 522 460 486 489 414 c 1
 563 760 l 1
 621 760 l 1
 486 125 l 2
 482 106 480 87 480 66 c 0
 480 46 482 24 486 2 c 1
 427 -11 l 1
 424 11 423 33 423 54 c 0
 423 66 423 77 424 89 c 1
 364 20 294 -14 214 -14 c 0
 61 -14 23 99 23 182 c 0
319 475 m 0
 154 475 80 307 80 180 c 0
 80 84 130 36 232 36 c 0
 335 36 424 109 444 205 c 2
 463 290 l 2
 466 305 468 319 468 332 c 0
 468 408 412 475 319 475 c 0
EndSplineSet
Validated: 1
EndChar

StartChar: e
Encoding: 101 101 70
Width: 562
VWidth: 1504
Flags: W
HStem: -14 52<146.891 387.947> 202 49<84 367.836> 475 47<254.879 431.001>
VStem: 20 60<100.396 203.468> 465 52<319.556 443.302>
LayerCount: 2
Fore
SplineSet
20 181 m 0
 20 378 175 522 341 522 c 0
 458 522 517 475 517 381 c 0
 517 262 415 202 212 202 c 0
 175 202 131 204 81 208 c 1
 80 200 80 192 80 185 c 0
 80 87 137 38 251 38 c 0
 309 38 371 49 438 72 c 1
 432 23 l 1
 369 -2 303 -14 235 -14 c 0
 106 -14 20 60 20 181 c 0
465 382 m 0
 465 444 424 475 341 475 c 0
 228 475 116 368 84 256 c 1
 125 253 162 251 194 251 c 0
 375 251 465 295 465 382 c 0
EndSplineSet
Validated: 1
EndChar

StartChar: f
Encoding: 102 102 71
Width: 309
VWidth: 1504
Flags: W
HStem: -235 50<-211.077 -61.9198> 465 46<51 126 196 332> 722 50<289.691 441.077>
LayerCount: 2
Fore
SplineSet
332 465 m 1
 185 465 l 1
 89 6 l 2
 54 -155 -25 -235 -146 -235 c 0
 -184 -235 -211 -227 -226 -211 c 1
 -200 -168 l 1
 -181 -179 -158 -185 -131 -185 c 0
 -51 -185 3 -121 30 6 c 2
 126 465 l 1
 41 465 l 1
 51 511 l 1
 138 511 l 1
 143 531 l 2
 177 692 255 772 376 772 c 0
 414 772 441 764 456 748 c 1
 430 705 l 1
 411 716 388 722 361 722 c 0
 281 722 227 658 200 531 c 2
 196 511 l 1
 343 511 l 1
 332 465 l 1
EndSplineSet
Validated: 1
EndChar

StartChar: g
Encoding: 103 103 72
Width: 467
VWidth: 1504
Flags: W
HStem: -236 51<34.8545 214.588> 159 46<143.424 289.489> 468 45<191.576 335.365 387 459.889>
VStem: 55 51<95.8837 175.347 243.305 374.284> 276 53<-132.424 -25.0514> 372 52<290.587 429.915>
LayerCount: 2
Fore
SplineSet
424 377 m 0
 424 278 336 159 202 159 c 0
 171 159 145 165 125 176 c 1
 109 150 106 132 106 127 c 0
 106 103 142 80 214 59 c 0
 293 35 329 -6 329 -63 c 0
 329 -114 287 -236 111 -236 c 0
 58 -236 13 -223 -24 -196 c 1
 6 -147 l 1
 43 -172 83 -185 126 -185 c 0
 228 -185 276 -122 276 -81 c 0
 276 16 144 14 89 59 c 0
 67 74 55 93 55 116 c 0
 55 134 65 163 87 205 c 1
 66 235 56 266 56 299 c 0
 56 399 149 513 269 513 c 2
 469 513 l 1
 459 465 l 1
 387 472 l 1
 412 442 424 410 424 377 c 0
211 205 m 0
 307 205 372 287 372 363 c 0
 372 401 351 468 268 468 c 0
 163 468 109 371 109 300 c 0
 109 243 153 205 211 205 c 0
EndSplineSet
Validated: 1
EndChar

StartChar: h
Encoding: 104 104 73
Width: 586
VWidth: 1504
Flags: W
HStem: 0 10G<14 76.1936 407.5 469> 474 48<258.638 413.19> 740 20G<169.789 233>
VStem: 401 59<-0.703045 174.062> 411 58<0.431034 50.0618 51.6094 53.0647 54.7046 95.5556> 454 61<235.828 434.271>
LayerCount: 2
Fore
SplineSet
469 2 m 1xe8
 411 -11 l 1xe8
 404 10 401 31 401 51 c 0xf0
 401 64 402 77 405 90 c 2
 447 290 l 2
 452 317 454 340 454 361 c 0
 454 436 411 474 331 474 c 0
 243 474 153 386 137 310 c 2
 72 0 l 1
 14 0 l 1
 174 760 l 1
 233 760 l 1
 161 420 l 1
 216 488 280 522 353 522 c 0
 461 522 515 472 515 373 c 0xe4
 515 348 511 321 505 290 c 2
 465 104 l 2
 462 86 460 69 460 54 c 0xf0
 460 34 463 17 469 2 c 1xe8
EndSplineSet
Validated: 1
EndChar

StartChar: i
Encoding: 105 105 74
Width: 215
VWidth: 1504
Flags: W
HStem: 0 21G<14 76.2661> 491 20G<117.773 181> 620 94<147.925 218.713>
VStem: 134 98<633.296 700.699>
LayerCount: 2
Fore
SplineSet
72 0 m 1
 14 0 l 1
 122 511 l 1
 181 511 l 1
 72 0 l 1
232 678 m 0
 232 652 212 620 171 620 c 256
 148 620 134 632 134 654 c 0
 134 683 157 714 191 714 c 256
 215 714 232 699 232 678 c 0
EndSplineSet
Validated: 1
EndChar

StartChar: j
Encoding: 106 106 75
Width: 233
VWidth: 1504
Flags: W
HStem: -223 47<-164 -78.8478> 491 20G<135.702 199> 620 94<165.925 237.007>
VStem: 152 98<633.615 700.699>
LayerCount: 2
Fore
SplineSet
92 11 m 2
 58 -142 -29 -220 -168 -223 c 1
 -164 -176 l 1
 -25 -164 12 -90 36 27 c 2
 140 511 l 1
 199 511 l 1
 92 11 l 2
250 678 m 0
 250 650 228 620 190 620 c 256
 159 620 152 639 152 654 c 0
 152 683 175 714 209 714 c 256
 233 714 250 699 250 678 c 0
EndSplineSet
Validated: 1
EndChar

StartChar: k
Encoding: 107 107 76
Width: 475
VWidth: 1504
Flags: W
HStem: 0 6G<14 76.186 350.975 427> 499 20G<410.37 493> 740 20G<169.789 233>
LayerCount: 2
Fore
SplineSet
427 2 m 1
 364 -15 l 1
 181 266 l 1
 117 215 l 1
 72 0 l 1
 14 0 l 1
 174 760 l 1
 233 760 l 1
 131 281 l 1
 436 519 l 1
 493 507 l 1
 230 299 l 1
 427 2 l 1
EndSplineSet
Validated: 1
EndChar

StartChar: l
Encoding: 108 108 77
Width: 300
VWidth: 1504
Flags: W
HStem: -11 52<146.947 202.288> 740 20G<169.785 233>
VStem: 55 59<74.5356 295.648> 174 59<727.059 760>
LayerCount: 2
Fore
SplineSet
114 153 m 0
 114 94 134 42 217 41 c 1
 200 -11 l 1
 103 -6 55 48 55 151 c 0
 55 182 59 217 68 257 c 2
 174 760 l 1
 233 760 l 1
 131 280 l 2
 120 227 114 185 114 153 c 0
EndSplineSet
Validated: 1
EndChar

StartChar: m
Encoding: 109 109 78
Width: 904
VWidth: 1504
Flags: W
HStem: 0 10G<14 76.1936 358 421.123 724.5 787> 474 48<256.404 399.271 590.561 732.5>
VStem: 104 59<420.361 510.707> 718 59<-0.702681 177.289> 770 60<225.32 433.875>
LayerCount: 2
Fore
SplineSet
690 522 m 0xe8
 802 522 830 436 830 365 c 0xe8
 830 340 827 313 821 284 c 2
 782 104 l 2
 779 87 777 71 777 56 c 0
 777 35 780 17 787 2 c 1
 728 -11 l 1
 721 10 718 31 718 51 c 0xf0
 718 64 719 77 722 90 c 2
 761 283 l 2
 767 309 770 332 770 353 c 0
 770 410 749 474 663 474 c 0
 580 474 499 397 484 325 c 2
 417 0 l 1
 358 0 l 1
 423 310 l 2
 428 333 430 353 430 371 c 0
 430 440 396 474 328 474 c 0
 242 474 153 385 137 310 c 2
 72 0 l 1
 14 0 l 1
 99 406 l 2
 102 424 104 441 104 456 c 0
 104 476 101 493 95 508 c 1
 153 520 l 1
 160 499 163 479 163 459 c 0
 163 446 162 433 159 420 c 1
 212 488 277 522 352 522 c 0
 421 522 465 484 483 408 c 1
 539 484 608 522 690 522 c 0xe8
EndSplineSet
Validated: 1
EndChar

StartChar: n
Encoding: 110 110 79
Width: 586
VWidth: 1504
Flags: W
HStem: 0 10G<14 76.1936 408.5 471> 474 48<257.261 413.19>
VStem: 104 59<420.361 510.707> 402 59<-0.702026 177.078> 454 61<234.266 434.271>
LayerCount: 2
Fore
SplineSet
466 104 m 2xe8
 463 87 461 71 461 56 c 0
 461 35 464 17 471 2 c 1
 412 -11 l 1
 405 10 402 31 402 52 c 0xf0
 402 65 403 77 406 90 c 2
 447 290 l 2
 452 317 454 340 454 361 c 0
 454 436 411 474 331 474 c 0
 243 474 153 386 137 310 c 2
 72 0 l 1
 14 0 l 1
 99 406 l 2
 102 424 104 441 104 456 c 0
 104 476 101 493 95 508 c 1
 153 520 l 1
 160 499 163 479 163 459 c 0
 163 446 162 433 159 420 c 1
 212 488 277 522 353 522 c 0
 461 522 515 472 515 373 c 0
 515 348 511 321 505 290 c 2
 466 104 l 2xe8
EndSplineSet
Validated: 1
EndChar

StartChar: o
Encoding: 111 111 80
Width: 598
VWidth: 1504
Flags: W
HStem: -15 50<154.881 334.373> 472 50<240.059 419.038>
VStem: 23 58<110.18 300.983> 494 58<206.989 395.962>
LayerCount: 2
Fore
SplineSet
552 318 m 0
 552 176 435 -15 230 -15 c 256
 64 -15 23 109 23 188 c 0
 23 347 151 522 344 522 c 256
 509 522 552 402 552 318 c 0
241 35 m 256
 393 35 494 183 494 311 c 0
 494 393 443 472 334 472 c 256
 185 472 81 328 81 199 c 0
 81 115 130 35 241 35 c 256
EndSplineSet
Validated: 1
EndChar

StartChar: p
Encoding: 112 112 81
Width: 603
VWidth: 1504
Flags: W
HStem: -14 47<181.761 353.656> 472 50<265.241 436.804>
VStem: -39 57<-251 -218.27> 104 58<418.523 509.711> 501 57<208.189 409.608>
LayerCount: 2
Fore
SplineSet
262 33 m 0
 422 33 501 190 501 319 c 0
 501 394 470 472 349 472 c 0
 246 472 157 398 135 304 c 2
 117 218 l 2
 114 204 113 190 113 177 c 0
 113 97 172 33 262 33 c 0
558 328 m 0
 558 172 449 -14 263 -14 c 0
 178 -14 121 22 92 95 c 1
 18 -251 l 1
 -39 -251 l 1
 99 405 l 2
 102 423 104 440 104 455 c 0
 104 475 101 492 95 507 c 1
 153 519 l 1
 159 501 162 484 162 466 c 0
 162 450 160 434 155 418 c 1
 216 487 287 522 367 522 c 0
 519 522 558 411 558 328 c 0
EndSplineSet
Validated: 1
EndChar

StartChar: q
Encoding: 113 113 82
Width: 603
VWidth: 1504
Flags: W
HStem: -15 47<141.498 314.253> 472 48<244.529 441.069>
VStem: 24 57<94.4385 289.639>
LayerCount: 2
Fore
SplineSet
208 -15 m 0
 87 -15 24 61 24 170 c 0
 24 340 146 520 336 520 c 0
 426 520 501 495 561 445 c 1
 409 -253 l 1
 350 -253 l 1
 424 93 l 1
 366 21 294 -15 208 -15 c 0
81 177 m 0
 81 92 131 32 227 32 c 0
 340 32 429 126 450 215 c 2
 496 420 l 1
 445 455 392 472 337 472 c 0
 185 471 81 322 81 177 c 0
EndSplineSet
Validated: 1
EndChar

StartChar: r
Encoding: 114 114 83
Width: 326
VWidth: 1504
Flags: W
HStem: 0 21G<14 76.1455> 471 51<248.826 348.146>
VStem: 103 57<409.58 510.645>
LayerCount: 2
Fore
SplineSet
347 469 m 1
 344 470 338 471 329 471 c 0
 209 471 145 345 129 275 c 1
 72 0 l 1
 14 0 l 1
 98 406 l 2
 101 423 103 439 103 453 c 0
 103 474 100 493 93 508 c 1
 152 520 l 1
 157 504 160 488 160 470 c 0
 160 451 156 430 150 409 c 1
 199 484 258 522 329 522 c 0
 338 522 348 521 358 519 c 1
 347 469 l 1
EndSplineSet
Validated: 1
EndChar

StartChar: s
Encoding: 115 115 84
Width: 424
VWidth: 1504
Flags: W
HStem: -14 50<48.6328 229.028> 475 47<181.509 344.712>
VStem: 75 59<329.672 426.351> 283 57<89.6779 199.068>
LayerCount: 2
Fore
SplineSet
340 164 m 0
 340 99 282 -14 120 -14 c 0
 70 -14 25 -0 -15 27 c 1
 17 75 l 1
 60 49 99 36 135 36 c 0
 265 36 283 116 283 148 c 0
 283 189 251 220 187 241 c 0
 112 265 75 303 75 353 c 0
 75 421 138 522 277 522 c 256
 330 522 369 510 396 487 c 1
 363 439 l 1
 338 463 302 475 257 475 c 0
 167 475 134 405 134 379 c 0
 134 271 340 304 340 164 c 0
EndSplineSet
Validated: 1
EndChar

StartChar: t
Encoding: 116 116 85
Width: 357
VWidth: 1504
Flags: W
HStem: -14 52<142.523 256.441> 465 46<53 144 214 367>
VStem: 72 59<49.8677 180.625>
LayerCount: 2
Fore
SplineSet
174 -14 m 0
 92 -14 72 48 72 98 c 0
 72 114 74 131 78 150 c 2
 144 465 l 1
 42 465 l 1
 53 511 l 1
 155 511 l 1
 187 663 l 1
 251 690 l 1
 214 511 l 1
 378 511 l 1
 367 465 l 1
 203 465 l 1
 137 152 l 2
 133 135 131 119 131 106 c 0
 131 61 150 38 190 38 c 0
 221 38 244 41 260 47 c 1
 257 0 l 1
 235 -9 207 -14 174 -14 c 0
EndSplineSet
Validated: 1
EndChar

StartChar: u
Encoding: 117 117 86
Width: 586
VWidth: 1504
Flags: W
HStem: -14 52<148.021 301.078> 500 11G<95 156.5 488.728 552>
VStem: 50 62<72.7227 278.195> 104 60<331.227 510.566> 406 57<1.75 142.906>
LayerCount: 2
Fore
SplineSet
469 2 m 1xe8
 411 -11 l 1
 408 10 406 31 406 51 c 0
 406 64 407 77 408 89 c 1
 349 20 278 -14 194 -14 c 0
 98 -14 50 35 50 134 c 0xe8
 50 161 53 190 60 224 c 2
 99 406 l 2
 102 424 104 441 104 456 c 0
 104 476 101 493 95 508 c 1
 153 520 l 1
 160 498 164 477 164 455 c 0xd8
 164 444 163 432 161 420 c 2
 122 235 l 2
 115 204 112 177 112 154 c 0
 112 77 147 38 218 38 c 0
 307 38 407 103 427 202 c 2
 493 511 l 1
 552 511 l 1
 469 125 l 2
 465 106 463 87 463 66 c 0
 463 46 465 24 469 2 c 1xe8
EndSplineSet
Validated: 1
EndChar

StartChar: v
Encoding: 118 118 87
Width: 512
VWidth: 1504
Flags: W
HStem: 0 21G<156.577 227.229> 491 20G<48 112.196 479.054 552>
LayerCount: 2
Fore
SplineSet
552 511 m 1
 214 0 l 1
 161 0 l 1
 48 511 l 1
 108 511 l 1
 202 63 l 1
 492 511 l 1
 552 511 l 1
EndSplineSet
Validated: 1
EndChar

StartChar: w
Encoding: 119 119 88
Width: 762
VWidth: 1504
Flags: W
HStem: 0 21G<104.691 172.086 460.694 525.429> 491 20G<48 111.81 387.733 456.262 736.959 806>
LayerCount: 2
Fore
SplineSet
806 511 m 1
 514 0 l 1
 463 0 l 1
 411 451 l 1
 161 0 l 1
 107 0 l 1
 48 511 l 1
 110 511 l 1
 150 69 l 1
 399 511 l 1
 454 511 l 1
 504 69 l 1
 748 511 l 1
 806 511 l 1
EndSplineSet
Validated: 1
EndChar

StartChar: x
Encoding: 120 120 89
Width: 478
VWidth: 1504
Flags: W
HStem: 0 21G<-65 22.638 332.778 414> 491 20G<57 134.401 427.097 511>
LayerCount: 2
Fore
SplineSet
414 0 m 1
 344 0 l 1
 220 221 l 1
 3 0 l 1
 -65 0 l 1
 197 260 l 1
 57 511 l 1
 123 511 l 1
 241 304 l 1
 447 511 l 1
 511 511 l 1
 262 262 l 1
 414 0 l 1
EndSplineSet
Validated: 1
EndChar

StartChar: y
Encoding: 121 121 90
Width: 506
VWidth: 1504
Flags: W
HStem: -235 47<-74.4468 -16.8997> 491 20G<48 115.619 468.529 546>
LayerCount: 2
Fore
SplineSet
212 0 m 2
 124 -133 29 -212 -74 -235 c 1
 -77 -188 l 1
 12 -169 90 -100 159 17 c 1
 159 20 159 26 158 35 c 1
 48 511 l 1
 111 511 l 1
 211 78 l 1
 481 511 l 1
 546 511 l 1
 212 0 l 2
EndSplineSet
Validated: 1
EndChar

StartChar: z
Encoding: 122 122 91
Width: 482
VWidth: 1504
Flags: W
HStem: 0 48<41 388> 463 48<93 417>
LayerCount: 2
Fore
SplineSet
388 0 m 1
 -42 0 l 1
 -33 36 l 1
 417 463 l 1
 74 463 l 1
 93 511 l 1
 501 511 l 1
 490 471 l 1
 41 48 l 1
 409 48 l 1
 388 0 l 1
EndSplineSet
Validated: 1
EndChar

StartChar: braceleft
Encoding: 123 123 92
Width: 312
VWidth: 1504
Flags: W
HStem: -116 45<100.859 181> 283 45<24 77.2202> 681 46<254.61 350>
VStem: 27 55<-52.603 80.8809> 93 54<145.541 267.917>
LayerCount: 2
Fore
SplineSet
27 -14 m 0
 27 63 93 167 93 226 c 0
 93 262 66 281 14 283 c 1
 24 328 l 1
 177 333 126 468 150 584 c 0
 171 679 235 727 343 727 c 2
 360 727 l 1
 350 681 l 1
 328 681 l 2
 259 681 206 635 202 578 c 0
 195 477 190 421 188 411 c 0
 177 360 149 324 105 305 c 1
 133 290 147 265 147 230 c 0
 147 174 82 53 82 1 c 0
 82 -47 111 -71 168 -71 c 2
 191 -71 l 1
 181 -116 l 1
 153 -116 l 2
 69 -113 27 -79 27 -14 c 0
EndSplineSet
Validated: 1
EndChar

StartChar: bar
Encoding: 124 124 93
Width: 230
VWidth: 1504
Flags: W
VStem: -29 273
LayerCount: 2
Fore
SplineSet
244 794 m 1
 20 -262 l 1
 -29 -262 l 1
 194 794 l 1
 244 794 l 1
EndSplineSet
Validated: 1
EndChar

StartChar: braceright
Encoding: 125 125 94
Width: 312
VWidth: 1504
Flags: W
HStem: -116 45<-36 61.4039> 283 45<233.78 287> 681 46<131 212.121>
VStem: 166 53<342.578 467.28> 230 54<529.699 662.905>
LayerCount: 2
Fore
SplineSet
284 614 m 0
 284 553 219 444 219 382 c 0
 219 348 247 330 298 328 c 1
 287 283 l 1
 134 278 185 143 161 27 c 0
 141 -68 77 -116 -30 -116 c 2
 -47 -116 l 1
 -36 -71 l 1
 -14 -71 l 2
 55 -71 96 -36 110 33 c 0
 118 134 123 190 125 200 c 0
 136 251 163 286 208 305 c 1
 181 319 166 342 166 374 c 0
 166 441 230 556 230 610 c 0
 230 657 202 681 144 681 c 2
 122 681 l 1
 131 727 l 1
 147 727 l 2
 243 727 284 694 284 614 c 0
EndSplineSet
Validated: 1
EndChar

StartChar: asciitilde
Encoding: 126 126 95
Width: 625
VWidth: 1504
Flags: W
HStem: 227 53<377.784 516.646> 325 50<107.688 246.734>
VStem: 23 46<227 282.647> 552 47<319.571 375>
LayerCount: 2
Fore
SplineSet
173 375 m 0
 273 375 369 280 465 280 c 0
 508 280 537 312 552 375 c 1
 599 375 l 1
 570 238 481 227 451 227 c 0
 349 227 257 325 162 325 c 0
 115 325 84 292 69 227 c 1
 23 227 l 1
 29 298 90 375 173 375 c 0
EndSplineSet
Validated: 1
EndChar

StartChar: exclamdown
Encoding: 161 161 100
Width: 227
VWidth: 1504
Flags: W
HStem: 402 111<108.43 181.205>
VStem: 88 113<422.775 493.25>
LayerCount: 2
Fore
SplineSet
44 -211 m 1
 -38 -211 l 1
 87 313 l 1
 140 313 l 1
 44 -211 l 1
201 469 m 0
 201 432 165 402 132 402 c 256
 106 402 88 421 88 445 c 0
 88 483 123 513 156 513 c 256
 183 513 201 493 201 469 c 0
EndSplineSet
Validated: 1
EndChar

StartChar: cent
Encoding: 162 162 101
Width: 618
VWidth: 1504
Flags: W
HStem: 33 53<219.074 257 305 474.945> 603 21G<595 623.518> 638 48<391.405 586.9>
VStem: 48 60<185.327 399.151>
LayerCount: 2
Fore
SplineSet
108 277 m 0
 108 142 207 86 343 86 c 0
 406 86 462 96 510 116 c 1
 519 72 l 1
 465 46 396 33 313 33 c 2
 305 33 l 1
 280 -89 l 1
 230 -89 l 1
 257 36 l 1
 138 54 48 129 48 266 c 0
 48 406 129 634 393 678 c 1
 423 815 l 1
 472 815 l 1
 444 684 l 1
 451 685 461 686 475 686 c 0
 536 686 590 676 638 657 c 1
 615 603 l 1
 575 626 526 638 469 638 c 0
 180 638 108 398 108 277 c 0
EndSplineSet
Validated: 1
EndChar

StartChar: sterling
Encoding: 163 163 102
Width: 618
VWidth: 1504
Flags: W
HStem: 0 50<132 466> 325 47<101 209 269 429> 644 49<364.896 549.648>
VStem: 209 56<204.35 325 372 496.365>
LayerCount: 2
Fore
SplineSet
265 325 m 1
 265 236 230 123 132 50 c 1
 477 50 l 1
 466 0 l 1
 21 0 l 1
 29 38 l 1
 194 127 204 233 209 325 c 1
 90 325 l 1
 101 372 l 1
 215 372 l 1
 222 536 265 693 463 693 c 0
 504 693 544 683 582 663 c 1
 555 620 l 1
 518 636 483 644 450 644 c 0
 320 644 269 537 269 372 c 1
 439 372 l 1
 429 325 l 1
 265 325 l 1
EndSplineSet
Validated: 1
EndChar

StartChar: currency
Encoding: 164 164 103
Width: 618
VWidth: 1504
Flags: W
HStem: 65 54<178.985 362.716> 563 52<267.176 449.444>
VStem: 33 59<204.895 386.287> 534 62<292.688 476.699>
LayerCount: 2
Fore
SplineSet
596 405 m 0
 596 356 581 252 496 171 c 1
 543 110 l 1
 490 65 l 1
 441 128 l 1
 386 86 324 65 256 65 c 0
 191 65 138 86 99 128 c 1
 26 65 l 1
 -8 110 l 1
 63 171 l 1
 43 205 33 242 33 282 c 0
 33 373 79 454 135 510 c 1
 89 570 l 1
 143 617 l 1
 190 554 l 1
 250 595 311 615 372 615 c 0
 436 615 489 595 531 554 c 1
 609 617 l 1
 641 570 l 1
 569 510 l 1
 588 481 596 446 596 405 c 0
266 119 m 0
 405 119 534 248 534 389 c 0
 534 472 478 563 361 563 c 0
 226 563 92 431 92 289 c 0
 92 203 155 119 266 119 c 0
EndSplineSet
Validated: 1
EndChar

StartChar: yen
Encoding: 165 165 104
Width: 618
VWidth: 1504
Flags: W
HStem: 143 44<75 247 311 484> 272 45<102 274 338 511>
LayerCount: 2
Fore
SplineSet
484 143 m 1
 302 143 l 1
 278 29 l 1
 223 29 l 1
 247 143 l 1
 66 143 l 1
 75 187 l 1
 256 187 l 1
 274 272 l 1
 93 272 l 1
 102 316 l 1
 283 316 l 1
 132 690 l 1
 202 690 l 1
 322 373 l 1
 578 690 l 1
 648 690 l 1
 338 317 l 1
 520 317 l 1
 511 272 l 1
 329 272 l 1
 311 187 l 1
 493 187 l 1
 484 143 l 1
EndSplineSet
Validated: 1
EndChar

StartChar: brokenbar
Encoding: 166 166 105
Width: 230
VWidth: 1504
Flags: W
HStem: 694 20G<171.818 226>
VStem: -14 240
LayerCount: 2
Fore
SplineSet
147 341 m 1
 98 341 l 1
 176 714 l 1
 226 714 l 1
 147 341 l 1
35 -185 m 1
 -14 -185 l 1
 65 190 l 1
 114 190 l 1
 35 -185 l 1
EndSplineSet
Validated: 1
EndChar

StartChar: section
Encoding: 167 167 106
Width: 562
VWidth: 1504
Flags: W
HStem: -59 45<105.732 291.772> 677 44<285.639 462.583>
VStem: 93 55<317.926 419.32> 170 57<526.053 623.873> 357 55<49.5802 163.32> 426 58<267.577 373.574>
LayerCount: 2
Fore
SplineSet
412 127 m 0
 412 40 329 -59 185 -59 c 0
 122 -59 74 -42 41 -9 c 1
 74 33 l 1
 101 2 142 -14 199 -14 c 0
 304 -14 357 51 357 110 c 0
 357 144 336 172 295 193 c 2
 153 254 l 2
 113 277 93 308 93 348 c 0
 93 402 128 453 190 495 c 1
 177 511 170 530 170 551 c 0
 170 619 236 721 384 721 c 256
 437 721 483 708 522 681 c 1
 487 638 l 1
 457 664 417 677 367 677 c 0
 277 677 227 615 227 570 c 0
 227 468 484 485 484 343 c 0
 484 313 472 251 391 188 c 1
 405 171 412 151 412 127 c 0
366 217 m 1
 412 260 426 302 426 324 c 0
 426 362 388 399 334 420 c 0
 278 440 240 457 220 471 c 1
 159 427 148 385 148 364 c 0
 148 282 319 259 366 217 c 1
EndSplineSet
Validated: 1
EndChar

StartChar: dieresis
Encoding: 168 168 107
Width: 318
VWidth: 1504
Flags: W
HStem: 590 91<145.688 213.949 332.925 401.193>
VStem: 132 95<602.507 667.099> 319 95<602.685 667.838>
LayerCount: 2
Fore
SplineSet
227 645 m 0
 227 620 204 590 170 590 c 256
 147 590 132 603 132 623 c 0
 132 653 158 681 190 681 c 256
 212 681 227 665 227 645 c 0
414 647 m 0
 414 620 392 590 356 590 c 256
 334 590 319 604 319 625 c 0
 319 649 342 681 376 681 c 256
 406 681 414 659 414 647 c 0
EndSplineSet
Validated: 1
EndChar

StartChar: copyright
Encoding: 169 169 108
Width: 806
VWidth: 1504
Flags: W
HStem: -5 55<315.1 542.312> 132 53<343.74 532.18> 529 49<341.526 531.372> 672 55<312.079 538.157>
VStem: 60 54<247.07 475.536> 206 60<261.663 453.998> 737 54<249.168 476.978>
LayerCount: 2
Fore
SplineSet
206 350 m 0
 206 498 301 578 429 578 c 0
 492 578 539 566 572 542 c 1
 554 496 l 1
 515 518 474 529 429 529 c 0
 320 523 266 466 266 358 c 0
 266 249 321 191 430 185 c 0
 481 185 525 198 560 223 c 1
 579 176 l 1
 541 147 488 132 421 132 c 0
 281 132 206 236 206 350 c 0
791 361 m 256
 791 157 627 -5 426 -5 c 256
 219 -5 60 163 60 361 c 256
 60 560 220 727 426 727 c 256
 632 727 791 560 791 361 c 256
737 361 m 256
 737 537 598 672 426 672 c 256
 246 672 114 530 114 361 c 256
 114 194 244 50 426 50 c 256
 602 50 737 189 737 361 c 256
EndSplineSet
Validated: 1
EndChar

StartChar: ordfeminine
Encoding: 170 170 109
Width: 409
VWidth: 1504
Flags: W
HStem: 363 39<126.963 252.784> 680 39<192.703 335.569>
VStem: 48 53<425.196 582.329> 310 50<371.827 423.812>
LayerCount: 2
Fore
SplineSet
48 487 m 0
 48 600 128 719 254 719 c 0
 316 719 369 701 412 666 c 1
 363 442 l 2
 361 433 360 423 360 412 c 0
 360 396 362 384 367 375 c 1
 316 363 l 1
 312 374 310 386 310 399 c 0
 310 409 310 417 311 424 c 1
 268 383 223 363 174 363 c 0
 95 363 48 414 48 487 c 0
259 680 m 0
 159 680 101 574 101 492 c 0
 101 432 130 402 188 402 c 0
 250 402 311 457 325 516 c 2
 355 650 l 1
 324 670 292 680 259 680 c 0
EndSplineSet
Validated: 1
EndChar

StartChar: guillemotleft
Encoding: 171 171 110
Width: 448
VWidth: 1504
Flags: W
LayerCount: 2
Fore
SplineSet
301 72 m 1
 174 266 l 1
 382 465 l 1
 445 465 l 1
 238 266 l 1
 364 72 l 1
 301 72 l 1
134 72 m 1
 8 266 l 1
 215 465 l 1
 278 465 l 1
 71 266 l 1
 197 72 l 1
 134 72 l 1
EndSplineSet
Validated: 1
EndChar

StartChar: logicalnot
Encoding: 172 172 111
Width: 631
VWidth: 1504
Flags: W
HStem: 360 49<65 554>
VStem: 554 58<137 360>
LayerCount: 2
Fore
SplineSet
612 137 m 1
 554 137 l 1
 554 360 l 1
 65 360 l 1
 65 409 l 1
 612 409 l 1
 612 137 l 1
EndSplineSet
Validated: 1
EndChar

StartChar: registered
Encoding: 174 174 112
Width: 806
VWidth: 1504
Flags: W
HStem: -5 55<315.1 542.312> 326 56<344 479.465> 532 53<344.661 494.392> 672 55<312.079 538.157>
VStem: 60 54<247.07 475.536> 284 60<149 326 382 530.342> 519 59<403.201 506.769> 534 59<149 241.567> 737 54<249.168 476.978>
LayerCount: 2
Fore
SplineSet
409 585 m 0xfd80
 505 585 578 545 578 459 c 0xfe80
 578 407 557 370 516 347 c 1
 555 312 581 246 593 149 c 1
 534 149 l 1
 516 267 483 326 436 326 c 2
 344 326 l 1
 344 149 l 1
 284 149 l 1
 284 573 l 1
 320 580 362 584 409 585 c 0xfd80
426 382 m 2
 477 382 519 404 519 451 c 0
 519 505 484 532 415 532 c 0
 388 532 365 531 344 528 c 1
 344 382 l 1
 426 382 l 2
791 361 m 256
 791 157 627 -5 426 -5 c 256
 219 -5 60 163 60 361 c 256
 60 560 220 727 426 727 c 256
 632 727 791 560 791 361 c 256
737 361 m 256
 737 537 598 672 426 672 c 256
 246 672 114 530 114 361 c 256
 114 194 244 50 426 50 c 256
 602 50 737 189 737 361 c 256
EndSplineSet
Validated: 1
EndChar

StartChar: macron
Encoding: 175 175 113
Width: 529
VWidth: 1504
Flags: W
HStem: 794 47<113 633>
LayerCount: 2
Fore
SplineSet
642 841 m 1
 633 794 l 1
 104 794 l 1
 113 841 l 1
 642 841 l 1
EndSplineSet
Validated: 1
EndChar

StartChar: degree
Encoding: 176 176 114
Width: 318
VWidth: 1504
Flags: W
HStem: 469 44<151.171 262.352> 683 44<179.341 288.033>
VStem: 89 46<528.827 638.847> 306 46<556.309 665.399>
LayerCount: 2
Fore
SplineSet
352 624 m 0
 352 546 274 469 193 469 c 256
 127 469 89 517 89 568 c 0
 89 650 164 727 247 727 c 0
 310 727 352 679 352 624 c 0
202 513 m 256
 255 513 306 563 306 615 c 0
 306 649 282 683 238 683 c 256
 181 683 135 629 135 578 c 0
 135 542 161 513 202 513 c 256
EndSplineSet
Validated: 1
EndChar

StartChar: plusminus
Encoding: 177 177 115
Width: 618
VWidth: 1504
Flags: W
HStem: 0 48<2 496> 302 48<66 281 344 560>
LayerCount: 2
Fore
SplineSet
560 302 m 1
 334 302 l 1
 292 102 l 1
 239 102 l 1
 281 302 l 1
 56 302 l 1
 66 350 l 1
 292 350 l 1
 331 537 l 1
 384 537 l 1
 344 350 l 1
 570 350 l 1
 560 302 l 1
496 0 m 1
 -8 0 l 1
 2 48 l 1
 505 48 l 1
 496 0 l 1
EndSplineSet
Validated: 1
EndChar

StartChar: twosuperior
Encoding: 178 178 116
Width: 382
VWidth: 1504
Flags: W
HStem: 295 46<114 307> 594 21G<126 182.5> 677 47<212.028 320.399>
VStem: 126 48<601.688 638.637> 325 53<571.197 671.105>
LayerCount: 2
Fore
SplineSet
278 724 m 0
 336 724 378 694 378 638 c 0
 378 583 337 531 262 466 c 2
 114 341 l 1
 323 341 l 1
 307 295 l 1
 35 295 l 1
 56 376 195 467 268 531 c 0
 319 577 325 613 325 633 c 0
 325 662 308 677 272 677 c 0
 224 677 191 649 174 594 c 1
 126 603 l 1
 152 686 217 724 278 724 c 0
EndSplineSet
Validated: 1
EndChar

StartChar: threesuperior
Encoding: 179 179 117
Width: 382
VWidth: 1504
Flags: W
HStem: 295 49<97.5503 243.156> 675 50<207.932 314.181>
VStem: 306 51<404.488 507.211> 315 52<611.861 672.637>
LayerCount: 2
Fore
SplineSet
357 484 m 0xe0
 357 404 296 295 148 295 c 0
 108 295 77 305 56 325 c 1
 89 373 l 1
 108 354 132 344 162 344 c 0
 263 344 306 418 306 468 c 0xe0
 306 498 289 513 254 513 c 0
 226 513 203 506 184 492 c 1
 170 529 l 1
 249 577 315 612 315 650 c 0
 315 667 301 675 271 675 c 0
 230 675 196 653 170 609 c 1
 131 632 l 1
 171 694 223 725 286 725 c 256
 340 725 367 706 367 669 c 0xd0
 367 608 303 563 277 552 c 1
 329 549 357 526 357 484 c 0xe0
EndSplineSet
Validated: 1
EndChar

StartChar: acute
Encoding: 180 180 118
Width: 318
VWidth: 1504
Flags: W
HStem: 794 137
VStem: 185 179
LayerCount: 2
Fore
SplineSet
232 794 m 1
 185 794 l 1
 289 931 l 1
 364 931 l 1
 232 794 l 1
EndSplineSet
Validated: 1
EndChar

StartChar: mu
Encoding: 181 181 119
Width: 610
VWidth: 1504
Flags: W
HStem: -14 52<157.235 308.167> 491 20G<124.789 187 509.756 572>
VStem: 428 56<1.75 95>
LayerCount: 2
Fore
SplineSet
489 125 m 2
 486 107 484 88 484 69 c 0
 484 47 486 25 490 2 c 1
 432 -11 l 1
 429 9 428 30 428 50 c 0
 428 65 428 80 430 95 c 1
 358 22 286 -14 215 -14 c 0
 157 -14 115 12 90 63 c 1
 33 -211 l 1
 -23 -211 l 1
 129 511 l 1
 187 511 l 1
 125 220 l 2
 120 195 117 173 117 154 c 0
 117 77 158 38 239 38 c 0
 330 38 431 118 448 200 c 2
 514 511 l 1
 572 511 l 1
 489 125 l 2
EndSplineSet
Validated: 1
EndChar

StartChar: paragraph
Encoding: 182 182 120
Width: 562
VWidth: 1504
Flags: W
HStem: 666 48<436.801 506.641>
LayerCount: 2
Fore
SplineSet
293 271 m 2
 180 271 100 337 100 436 c 0
 100 519 144 714 451 714 c 0
 504 714 543 712 567 707 c 1
 397 -95 l 1
 346 -95 l 1
 508 666 l 1
 436 666 l 1
 274 -95 l 1
 221 -95 l 1
 299 271 l 1
 293 271 l 2
EndSplineSet
Validated: 1
EndChar

StartChar: periodcentered
Encoding: 183 183 121
Width: 243
VWidth: 1504
Flags: W
HStem: 221 104<78.5708 148.929>
VStem: 61 105<237.845 308.001>
LayerCount: 2
Fore
SplineSet
166 283 m 0
 166 248 133 221 102 221 c 256
 79 221 61 237 61 260 c 0
 61 293 90 325 123 325 c 256
 149 325 166 304 166 283 c 0
EndSplineSet
Validated: 1
EndChar

StartChar: cedilla
Encoding: 184 184 122
Width: 318
VWidth: 1504
Flags: W
HStem: -209 38<-39.5625 77.9577>
VStem: 91 49<-159.458 -97.7109>
LayerCount: 2
Fore
SplineSet
140 -108 m 0
 140 -122 132 -209 15 -209 c 0
 -8 -209 -30 -203 -51 -190 c 1
 -30 -156 l 1
 -11 -166 7 -171 24 -171 c 0
 83 -171 91 -134 91 -123 c 0
 91 -102 63 -89 6 -84 c 1
 83 6 l 1
 131 6 l 1
 78 -51 l 1
 119 -61 140 -80 140 -108 c 0
EndSplineSet
Validated: 1
EndChar

StartChar: onesuperior
Encoding: 185 185 123
Width: 382
VWidth: 1504
Flags: W
HStem: 302 36<114 181 233 290> 597 21G<167.333 206.2> 708 20G<257.474 292.5>
VStem: 107 202
LayerCount: 2
Fore
SplineSet
290 302 m 1
 107 302 l 1
 114 338 l 1
 181 338 l 1
 247 647 l 1
 179 597 l 1
 158 633 l 1
 284 728 l 1
 301 726 309 718 309 701 c 0
 309 697 308 692 307 686 c 2
 233 338 l 1
 298 338 l 1
 290 302 l 1
EndSplineSet
Validated: 1
EndChar

StartChar: ordmasculine
Encoding: 186 186 124
Width: 428
VWidth: 1504
Flags: W
HStem: 358 53<168.164 311.375> 674 53<216.532 356.062>
VStem: 74 54<450.039 586.548> 397 54<494.64 634.032>
LayerCount: 2
Fore
SplineSet
451 579 m 0
 451 460 333 358 223 358 c 0
 124 358 74 432 74 504 c 0
 74 616 187 727 302 727 c 0
 397 727 451 652 451 579 c 0
235 411 m 256
 318 411 397 484 397 570 c 0
 397 625 357 674 290 674 c 256
 206 674 128 595 128 514 c 0
 128 459 168 411 235 411 c 256
EndSplineSet
Validated: 1
EndChar

StartChar: guillemotright
Encoding: 187 187 125
Width: 442
VWidth: 1504
Flags: W
LayerCount: 2
Fore
SplineSet
42 72 m 1
 -20 72 l 1
 187 266 l 1
 63 465 l 1
 126 465 l 1
 250 266 l 1
 42 72 l 1
209 72 m 1
 146 72 l 1
 353 266 l 1
 230 465 l 1
 293 465 l 1
 417 266 l 1
 209 72 l 1
EndSplineSet
Validated: 1
EndChar

StartChar: onequarter
Encoding: 188 188 126
Width: 806
VWidth: 1504
Flags: W
HStem: 0 7G<102 168.173 572 628.301> 93 50<489 591 654 707> 280 36<66 132 185 242>
LayerCount: 2
Fore
SplineSet
152 -14 m 1
 102 -14 l 1
 681 702 l 1
 731 702 l 1
 152 -14 l 1
242 280 m 1
 59 280 l 1
 66 316 l 1
 132 316 l 1
 197 618 l 1
 129 569 l 1
 108 605 l 1
 235 699 l 1
 251 697 259 689 259 673 c 0
 259 668 258 663 257 657 c 2
 185 316 l 1
 250 316 l 1
 242 280 l 1
602 143 m 1
 648 366 l 1
 590 322 508 213 489 143 c 1
 602 143 l 1
707 93 m 1
 644 93 l 1
 624 0 l 1
 572 0 l 1
 591 93 l 1
 423 93 l 1
 452 222 579 426 716 430 c 1
 654 143 l 1
 721 143 l 1
 707 93 l 1
EndSplineSet
Validated: 1
LCarets2: 2 0 0 
Ligature2: "'frac' Diagonal Fractions in Latin lookup 0 subtable" one fraction four
Ligature2: "'frac' Diagonal Fractions in Latin lookup 0 subtable" one slash four
EndChar

StartChar: onehalf
Encoding: 189 189 127
Width: 806
VWidth: 1504
Flags: W
HStem: -14 21G<102 168.173> 0 47<508 696> 280 36<66 132 185 242> 382 47<599.936 708.358>
VStem: 514 50<306.74 344.304> 713 55<273.308 375.798>
LayerCount: 2
Fore
SplineSet
152 -14 m 1xbc
 102 -14 l 1
 681 702 l 1
 731 702 l 1
 152 -14 l 1xbc
242 280 m 1
 59 280 l 1
 66 316 l 1
 132 316 l 1
 197 618 l 1
 129 569 l 1
 108 605 l 1
 235 699 l 1
 251 697 259 689 259 673 c 0
 259 668 258 663 257 657 c 2
 185 316 l 1
 250 316 l 1
 242 280 l 1
666 429 m 0
 723 429 768 403 768 347 c 0
 768 290 731 238 653 171 c 2
 508 47 l 1
 711 47 l 1
 696 0 l 1
 424 0 l 1x7c
 434 41 480 94 561 158 c 2
 656 236 l 2
 690 265 713 297 713 338 c 0
 713 367 696 382 660 382 c 0
 602 382 576 342 564 299 c 1
 514 308 l 1
 540 393 605 429 666 429 c 0
EndSplineSet
Validated: 1
LCarets2: 2 0 0 
Ligature2: "'frac' Diagonal Fractions in Latin lookup 0 subtable" one fraction two
Ligature2: "'frac' Diagonal Fractions in Latin lookup 0 subtable" one slash two
EndChar

StartChar: threequarters
Encoding: 190 190 128
Width: 806
VWidth: 1504
Flags: W
HStem: 0 7G<102 168.173 572 628.301> 93 50<489 591 654 707> 277 49<78.6258 240.329> 591 21G<131.087 176.5> 657 50<200.604 309.861>
VStem: 302 50<385.607 489.251> 311 51<593.07 654.489>
LayerCount: 2
Fore
SplineSet
152 -14 m 1xf8
 102 -14 l 1
 681 702 l 1
 731 702 l 1
 152 -14 l 1xf8
352 460 m 0xfc
 352 380 284 277 153 277 c 0
 108 277 75 286 53 307 c 1
 86 355 l 1
 105 336 129 326 159 326 c 0
 263 326 302 403 302 451 c 0xfc
 302 480 284 495 250 495 c 0
 222 495 198 488 179 474 c 1
 167 511 l 1
 252 563 311 596 311 632 c 0
 311 649 296 657 266 657 c 0
 221 657 188 635 165 591 c 1
 126 614 l 1
 167 676 218 707 281 707 c 256
 336 707 362 688 362 649 c 0xfa
 362 588 297 544 272 534 c 1
 325 526 352 501 352 460 c 0xfc
602 143 m 1
 648 366 l 1
 590 322 508 213 489 143 c 1
 602 143 l 1
707 93 m 1
 644 93 l 1
 624 0 l 1
 572 0 l 1
 591 93 l 1
 423 93 l 1
 452 222 579 426 716 430 c 1
 654 143 l 1
 721 143 l 1
 707 93 l 1
EndSplineSet
Validated: 1
LCarets2: 2 0 0 
Ligature2: "'frac' Diagonal Fractions in Latin lookup 0 subtable" three fraction four
Ligature2: "'frac' Diagonal Fractions in Latin lookup 0 subtable" three slash four
EndChar

StartChar: questiondown
Encoding: 191 191 129
Width: 434
VWidth: 1504
Flags: W
HStem: -230 53<49.2855 220.852> 402 111<237.632 310.014>
VStem: -33 59<-154.22 -26.769> 216 51<217.85 311> 217 113<422.389 492.25>
LayerCount: 2
Fore
SplineSet
108 -230 m 0xf0
 -13 -230 -33 -153 -33 -109 c 0
 -33 -65 -19 1 104 108 c 0
 173 169 216 234 216 300 c 0
 216 304 215 308 215 311 c 1
 266 311 l 1
 267 306 267 301 267 295 c 0
 267 226 225 159 146 87 c 0
 66 15 26 -42 26 -101 c 0
 26 -152 60 -177 129 -177 c 0
 176 -177 220 -164 259 -138 c 1
 272 -184 l 1
 217 -215 163 -230 108 -230 c 0xf0
330 469 m 0xe8
 330 431 293 402 262 402 c 256
 226 402 217 433 217 446 c 0
 217 480 251 513 286 513 c 256
 313 513 330 493 330 469 c 0xe8
EndSplineSet
Validated: 1
EndChar

StartChar: AE
Encoding: 198 198 136
Width: 875
VWidth: 1504
Flags: W
HStem: 0 50<492 754> 295 48<239 451> 352 50<513 793> 666 50<534 877>
LayerCount: 2
Fore
SplineSet
754 0 m 1
 432 0 l 1
 451 295 l 1
 205 295 l 1
 -14 0 l 1
 -75 0 l 1
 460 716 l 1
 887 716 l 1
 877 666 l 1
 534 666 l 1
 513 402 l 1
 803 402 l 1
 793 352 l 1
 510 352 l 1
 492 50 l 1
 764 50 l 1
 754 0 l 1
454 343 m 1
 484 674 l 1
 239 343 l 1
 454 343 l 1
EndSplineSet
Validated: 1
EndChar

StartChar: Eth
Encoding: 208 208 146
Width: 648
VWidth: 1504
Flags: W
HStem: -6 51<87.568 336.182> 320 50<21 84 153 396> 672 52<217.216 469.313>
VStem: 570 60<332.31 568.338>
LayerCount: 2
Fore
SplineSet
384 724 m 0
 541 724 630 628 630 478 c 0
 630 359 570 -6 199 -6 c 0
 168 -6 108 -1 18 8 c 1
 84 320 l 1
 11 320 l 1
 21 370 l 1
 95 370 l 1
 165 705 l 1
 260 718 333 724 384 724 c 0
227 45 m 0
 482 45 570 329 570 461 c 0
 570 593 496 672 369 672 c 0
 338 672 286 668 215 660 c 1
 153 370 l 1
 406 370 l 1
 396 320 l 1
 143 320 l 1
 86 54 l 1
 135 48 182 45 227 45 c 0
EndSplineSet
Validated: 1
EndChar

StartChar: multiply
Encoding: 215 215 153
Width: 618
VWidth: 1504
Flags: W
LayerCount: 2
Fore
SplineSet
445 17 m 1
 290 224 l 1
 48 17 l 1
 17 53 l 1
 259 262 l 1
 105 471 l 1
 152 507 l 1
 307 299 l 1
 549 507 l 1
 581 471 l 1
 337 262 l 1
 492 53 l 1
 445 17 l 1
EndSplineSet
Validated: 1
EndChar

StartChar: Oslash
Encoding: 216 216 154
Width: 731
VWidth: 1504
Flags: W
HStem: -15 51<208.215 415.633> 677 51<337.941 543.99> 722 20G<604.364 680>
VStem: 32 61<163.933 393.808> 659 60<320.462 550.144>
LayerCount: 2
Fore
SplineSet
629 671 m 1xb8
 682 624 719 551 719 453 c 0
 719 248 562 -15 296 -15 c 0
 245 -15 201 -6 164 12 c 1
 125 -44 l 1
 68 -44 l 1
 125 38 l 1
 97 62 32 125 32 254 c 0
 32 480 201 728 454 728 c 0xd8
 505 728 550 718 588 698 c 1
 618 742 l 1
 680 742 l 1
 629 671 l 1xb8
444 677 m 0
 235 677 93 455 93 273 c 0
 93 163 149 102 161 90 c 1
 554 650 l 1
 523 668 486 677 444 677 c 0
308 36 m 0
 519 36 659 261 659 437 c 0
 659 546 608 604 593 618 c 1
 199 62 l 1
 230 45 266 36 308 36 c 0
EndSplineSet
Validated: 1
EndChar

StartChar: Thorn
Encoding: 222 222 160
Width: 571
VWidth: 1504
Flags: W
HStem: 0 21G<26 87.1808> 165 49<132.423 354.854> 543 48<206.702 431.007> 696 20G<172.782 235>
VStem: 493 57<336.538 487.705>
LayerCount: 2
Fore
SplineSet
550 433 m 0
 550 342 480 165 215 165 c 0
 190 165 158 169 120 177 c 1
 83 0 l 1
 26 0 l 1
 177 716 l 1
 235 716 l 1
 205 575 l 1
 249 586 291 591 331 591 c 0
 460 591 550 528 550 433 c 0
229 214 m 0
 433 214 493 339 493 422 c 0
 493 470 467 543 320 543 c 0
 283 543 241 536 193 522 c 1
 131 230 l 1
 165 219 198 214 229 214 c 0
EndSplineSet
Validated: 1
EndChar

StartChar: germandbls
Encoding: 223 223 161
Width: 589
VWidth: 1504
Flags: W
HStem: -223 21G<-47 18.5> -14 50<209.121 382.614> 678 55<298.732 459.539>
VStem: 342 59<330.862 418.82> 448 57<100.207 219.313> 487 57<524.882 650.805>
LayerCount: 2
Fore
SplineSet
505 180 m 0xf8
 505 114 447 -14 286 -14 c 0
 237 -14 196 -4 164 17 c 1
 193 66 l 1
 227 46 262 36 298 36 c 0
 410 36 448 122 448 159 c 0xf8
 448 239 342 285 342 365 c 0
 342 471 487 475 487 591 c 0
 487 649 451 678 378 678 c 0
 277 678 210 596 176 432 c 2
 66 -81 l 2
 55 -135 34 -182 3 -223 c 1
 -47 -208 l 1
 -20 -169 -1 -126 8 -81 c 2
 122 457 l 2
 161 641 254 733 400 733 c 0
 487 733 544 681 544 605 c 0xf4
 544 454 401 449 401 376 c 0
 401 323 505 279 505 180 c 0xf8
EndSplineSet
Validated: 1
EndChar

StartChar: ae
Encoding: 230 230 168
Width: 914
VWidth: 1504
Flags: W
HStem: -14 52<82.2058 247.259 495.671 727.021> 253 46<439 802.238> 268 51<193.986 372> 475 47<152.056 352.105 573.483 748.864>
VStem: -2 64<58.4778 179.832> 372 54<234.273 253> 803 51<299.611 419.412>
LayerCount: 2
Fore
SplineSet
421 197 m 0xde
 421 96 487 38 591 38 c 0
 651 38 713 49 778 72 c 1
 772 23 l 1
 709 -2 643 -14 575 -14 c 0
 472 -14 404 30 373 117 c 1
 327 30 247 -14 134 -14 c 0
 55 -14 -2 30 -2 96 c 0
 -2 185 63 319 375 319 c 2
 384 319 l 1xbe
 386 335 390 348 390 368 c 0
 390 418 367 475 277 475 c 0
 242 475 185 464 107 441 c 1
 110 495 l 1
 170 513 230 522 290 522 c 0
 383 522 434 484 445 408 c 1
 510 484 588 522 681 522 c 0
 820 522 854 438 854 350 c 0
 854 321 851 289 844 253 c 1
 426 253 l 1
 423 233 421 214 421 197 c 0xde
62 110 m 0
 62 61 101 36 149 36 c 0
 237 36 333 86 361 215 c 2
 372 268 l 1
 149 268 62 205 62 110 c 0
803 339 m 0
 803 397 776 475 665 475 c 0
 558 475 473 394 439 299 c 1
 799 299 l 1xde
 802 313 803 326 803 339 c 0
EndSplineSet
Validated: 1
EndChar

StartChar: eth
Encoding: 240 240 178
Width: 544
VWidth: 1504
Flags: W
HStem: -18 51<138.491 288.208> 393 49<208.606 356.123> 678 44<191.614 231.083>
VStem: 30 61<81.3027 262.022> 409 74<208.737 413.192>
LayerCount: 2
Fore
SplineSet
396 603 m 1
 441 551 483 464 483 344 c 0
 483 163 372 -18 193 -18 c 0
 63 -18 30 80 30 153 c 0
 30 293 140 442 286 442 c 0
 386 442 420 386 423 367 c 1
 417 445 389 513 340 572 c 1
 193 489 l 1
 174 529 l 1
 308 605 l 1
 270 639 227 663 179 678 c 1
 194 722 l 1
 262 708 319 679 364 636 c 1
 493 710 l 1
 510 669 l 1
 396 603 l 1
211 33 m 0
 315 33 409 144 409 260 c 0
 409 325 369 393 287 393 c 0
 164 393 91 262 91 164 c 0
 91 106 115 33 211 33 c 0
EndSplineSet
Validated: 1
EndChar

StartChar: divide
Encoding: 247 247 185
Width: 618
VWidth: 1504
Flags: W
HStem: 38 103<230.625 297.107> 248 50<56 549> 402 103<309.375 375.404>
VStem: 214 99<53.6621 125.231> 292 101<419.164 488.372>
LayerCount: 2
Fore
SplineSet
393 467 m 0xe8
 393 435 365 402 331 402 c 0
 300 402 292 426 292 442 c 0
 292 470 318 505 353 505 c 256
 377 505 393 490 393 467 c 0xe8
313 102 m 0xf0
 313 72 289 38 253 38 c 0
 222 38 214 59 214 77 c 0
 214 106 238 141 275 141 c 0
 305 141 313 116 313 102 c 0xf0
549 248 m 1
 45 248 l 1
 56 298 l 1
 560 298 l 1
 549 248 l 1
EndSplineSet
Validated: 1
EndChar

StartChar: oslash
Encoding: 248 248 186
Width: 598
VWidth: 1504
Flags: W
HStem: -15 50<154.001 334.101> 472 50<242.059 412.914>
VStem: 23 58<109.856 300.089> 494 59<207.871 399.493>
LayerCount: 2
Fore
SplineSet
553 324 m 0
 553 161 424 -15 230 -15 c 0
 186 -15 146 -5 111 15 c 1
 62 -44 l 1
 2 -44 l 1
 75 45 l 1
 40 82 23 129 23 186 c 0
 23 351 154 522 344 522 c 0
 381 522 416 514 450 499 c 1
 513 576 l 1
 578 576 l 1
 490 472 l 1
 532 435 553 385 553 324 c 0
241 35 m 0
 387 35 494 175 494 315 c 0
 494 359 480 396 453 426 c 1
 149 60 l 1
 174 43 205 35 241 35 c 0
334 472 m 0
 192 472 81 336 81 199 c 0
 81 158 92 122 113 92 c 1
 414 454 l 1
 391 466 364 472 334 472 c 0
EndSplineSet
Validated: 1
EndChar

StartChar: thorn
Encoding: 254 254 192
Width: 649
VWidth: 1504
Flags: W
HStem: -14 50<199.931 388.002> 475 47<290.214 473.731>
VStem: 545 56<214.191 404.139>
LayerCount: 2
Fore
SplineSet
601 331 m 0
 601 172 479 -14 274 -14 c 0
 191 -14 134 17 101 80 c 1
 39 -211 l 1
 -17 -211 l 1
 176 707 l 1
 233 707 l 1
 173 418 l 1
 238 487 315 522 403 522 c 0
 541 522 601 422 601 331 c 0
124 178 m 0
 124 95 196 36 289 36 c 0
 457 36 545 197 545 318 c 0
 545 381 513 475 384 475 c 0
 233 475 158 352 146 290 c 2
 126 202 l 2
 125 196 124 188 124 178 c 0
EndSplineSet
Validated: 1
EndChar

StartChar: dotlessi
Encoding: 305 305 194
Width: 215
VWidth: 1504
Flags: W
HStem: 0 21G<14 75.227> 491 20G<117.773 179>
VStem: 14 165
LayerCount: 2
Fore
SplineSet
71 0 m 1
 14 0 l 1
 122 511 l 1
 179 511 l 1
 71 0 l 1
EndSplineSet
Validated: 1
EndChar

StartChar: Lslash
Encoding: 321 321 195
Width: 543
VWidth: 1504
Flags: W
HStem: 0 50<95 436> 696 20G<172.764 236>
LayerCount: 2
Fore
SplineSet
436 0 m 1
 26 0 l 1
 87 292 l 1
 35 277 l 1
 30 323 l 1
 98 343 l 1
 177 716 l 1
 236 716 l 1
 161 363 l 1
 508 466 l 1
 498 411 l 1
 149 311 l 1
 95 50 l 1
 447 50 l 1
 436 0 l 1
EndSplineSet
Validated: 1
EndChar

StartChar: lslash
Encoding: 322 322 196
Width: 314
VWidth: 1504
Flags: W
HStem: -11 52<162.599 214.288> 740 20G<182.731 245>
VStem: 67 59<75.1199 291.586> 187 58<727.202 760>
LayerCount: 2
Fore
SplineSet
126 154 m 0
 126 81 158 43 229 41 c 1
 212 -11 l 1
 115 -6 67 48 67 151 c 0
 67 182 71 217 80 257 c 2
 87 292 l 1
 35 277 l 1
 30 323 l 1
 98 343 l 1
 187 760 l 1
 245 760 l 1
 161 363 l 1
 292 403 l 1
 281 350 l 1
 149 310 l 1
 143 280 l 2
 132 227 126 185 126 154 c 0
EndSplineSet
Validated: 1
EndChar

StartChar: OE
Encoding: 338 338 197
Width: 1069
VWidth: 1504
Flags: W
HStem: -15 51<208.717 416.269> 0 50<627 948> 353 50<701 985> 666 50<758 1089> 677 51<337.903 541.388>
VStem: 32 61<165.428 393.847>
LayerCount: 2
Fore
SplineSet
296 -15 m 0xa4
 112 -15 32 117 32 255 c 0
 32 482 203 728 454 728 c 0xac
 563 728 640 686 686 602 c 1
 710 716 l 1
 1100 716 l 1
 1089 666 l 1
 758 666 l 1
 701 403 l 1
 996 403 l 1
 985 353 l 1
 690 353 l 1
 627 50 l 1
 958 50 l 1
 948 0 l 1
 558 0 l 1x74
 581 111 l 1
 500 27 405 -15 296 -15 c 0xa4
93 273 m 0
 93 185 136 36 308 36 c 0
 426 36 536 109 603 218 c 1
 660 481 l 1
 660 493 l 0
 660 582 569 677 444 677 c 0
 233 677 93 452 93 273 c 0
EndSplineSet
Validated: 1
EndChar

StartChar: oe
Encoding: 339 339 198
Width: 1021
VWidth: 1504
Flags: W
HStem: -14 52<150.278 339.003 610.617 845.506> 253 46<558 920.341> 472 50<240.059 420.2 684.956 868.935>
VStem: 23 58<110.18 300.983> 494 43<208.311 251.923> 921 52<299.897 418.313>
LayerCount: 2
Fore
SplineSet
537 190 m 0
 537 87 610 38 710 38 c 0
 769 38 832 49 897 72 c 1
 890 23 l 1
 827 -2 762 -14 693 -14 c 0
 583 -14 514 31 486 122 c 1
 421 31 335 -15 230 -15 c 0
 64 -15 23 109 23 188 c 0
 23 347 151 522 344 522 c 0
 435 522 515 490 543 382 c 1
 604 472 688 522 800 522 c 0
 939 522 973 437 973 348 c 0
 973 320 970 288 963 253 c 1
 545 253 l 1
 540 230 537 209 537 190 c 0
241 35 m 0
 391 35 494 183 494 312 c 0
 494 376 459 472 334 472 c 0
 185 472 81 328 81 199 c 0
 81 115 130 35 241 35 c 0
921 338 m 0
 921 395 894 475 784 475 c 0
 672 475 591 390 558 299 c 1
 918 299 l 1
 920 313 921 326 921 338 c 0
EndSplineSet
Validated: 1
EndChar

StartChar: florin
Encoding: 402 402 204
Width: 598
VWidth: 1504
Flags: W
HStem: -108 49<-87.5975 67.0413> 369 46<227 295 372 501> 645 50<517.567 672.264>
LayerCount: 2
Fore
SplineSet
692 671 m 1
 657 629 l 1
 641 640 619 645 591 645 c 0
 513 645 446 581 390 454 c 2
 372 415 l 1
 519 415 l 1
 501 369 l 1
 353 369 l 1
 251 132 l 2
 182 -28 87 -108 -32 -108 c 0
 -70 -108 -95 -100 -107 -84 c 1
 -72 -42 l 1
 -56 -53 -34 -59 -6 -59 c 0
 71 -59 138 5 193 132 c 2
 295 369 l 1
 209 369 l 1
 227 415 l 1
 314 415 l 1
 332 454 l 2
 403 615 498 695 617 695 c 0
 655 695 680 687 692 671 c 1
EndSplineSet
Validated: 1
EndChar

StartChar: circumflex
Encoding: 710 710 205
Width: 318
VWidth: 1504
Flags: W
HStem: 590 117
VStem: 138 250
LayerCount: 2
Fore
SplineSet
308 707 m 1
 388 590 l 1
 332 590 l 1
 280 668 l 1
 194 590 l 1
 138 590 l 1
 266 707 l 1
 308 707 l 1
EndSplineSet
Validated: 1
EndChar

StartChar: caron
Encoding: 711 711 206
Width: 318
VWidth: 1504
Flags: W
HStem: 578 117
VStem: 117 250
LayerCount: 2
Fore
SplineSet
238 578 m 1
 196 578 l 1
 117 695 l 1
 173 695 l 1
 226 617 l 1
 311 695 l 1
 367 695 l 1
 238 578 l 1
EndSplineSet
Validated: 1
EndChar

StartChar: breve
Encoding: 728 728 207
Width: 454
VWidth: 1504
Flags: W
HStem: 579 47<281.214 401.237>
VStem: 214 52<641.153 681>
LayerCount: 2
Fore
SplineSet
337 626 m 256
 394 626 421 665 432 681 c 1
 483 681 l 1
 458 621 398 579 326 579 c 256
 279 579 214 599 214 681 c 1
 266 681 l 1
 268 665 280 626 337 626 c 256
EndSplineSet
Validated: 1
EndChar

StartChar: dotaccent
Encoding: 729 729 208
Width: 454
VWidth: 1504
Flags: W
HStem: 763 102<299.215 371.221>
VStem: 281 106<779.005 846.749>
LayerCount: 2
Fore
SplineSet
387 824 m 0
 387 788 355 763 322 763 c 0
 290 763 281 787 281 800 c 0
 281 832 311 865 344 865 c 0
 378 865 387 838 387 824 c 0
EndSplineSet
Validated: 1
EndChar

StartChar: ring
Encoding: 730 730 209
Width: 454
VWidth: 1504
Flags: W
HStem: 554 45<294.44 393.944> 727 48<314.693 411.385>
VStem: 240 47<606.609 699.662> 420 45<624.184 717.961>
LayerCount: 2
Fore
SplineSet
465 688 m 0
 465 614 398 554 328 554 c 0
 271 554 240 597 240 640 c 0
 240 703 304 775 375 775 c 0
 433 775 465 731 465 688 c 0
338 599 m 0
 386 599 420 637 420 676 c 0
 420 706 398 727 366 727 c 0
 312 727 287 674 287 646 c 0
 287 630 297 599 338 599 c 0
EndSplineSet
Validated: 1
EndChar

StartChar: ogonek
Encoding: 731 731 210
Width: 454
VWidth: 1504
Flags: W
HStem: -238 54<91.8039 213.348>
VStem: 24 62<-176.663 -73.1363>
LayerCount: 2
Fore
SplineSet
143 6 m 1
 104 -60 86 -108 86 -137 c 0
 86 -166 102 -181 134 -184 c 0
 164 -184 195 -176 227 -161 c 1
 217 -215 l 1
 190 -225 153 -238 110 -238 c 0
 41 -238 24 -195 24 -156 c 0
 24 -124 40 -78 83 6 c 1
 143 6 l 1
EndSplineSet
Validated: 1
EndChar

StartChar: tilde
Encoding: 732 732 211
Width: 318
VWidth: 1504
Flags: W
HStem: 594 45<237.498 320.836> 636 48<143.181 223.124>
VStem: 95 37<588 623.945> 332 40<649.89 687>
LayerCount: 2
Fore
SplineSet
292 639 m 0xb0
 300 639 321 647 332 687 c 1
 372 687 l 1
 359 643 328 594 277 594 c 0xb0
 243 594 200 636 170 636 c 0
 147 636 135 599 132 588 c 1
 95 588 l 1
 105 628 128 684 179 684 c 0x70
 223 684 248 639 292 639 c 0xb0
EndSplineSet
Validated: 1
EndChar

StartChar: hungarumlaut
Encoding: 733 733 212
Width: 419
VWidth: 1504
Flags: W
HStem: 496 243
LayerCount: 2
Fore
SplineSet
275 496 m 1
 235 496 l 1
 375 739 l 1
 445 739 l 1
 275 496 l 1
144 496 m 1
 104 496 l 1
 244 739 l 1
 314 739 l 1
 144 496 l 1
EndSplineSet
Validated: 1
EndChar

StartChar: uni0E01
Encoding: 3585 3585 214
Width: 580
VWidth: 1504
Flags: W
HStem: 0 21G<26 84.1606> 554 48<240.74 413.862>
VStem: 464 58<368.55 504.457>
LayerCount: 2
Fore
SplineSet
344 602 m 0
 451 602 522 550 522 449 c 0
 522 433 520 417 516 399 c 2
 442 51 l 2
 430 4 406 -32 370 -56 c 1
 328 -29 l 1
 362 -2 384 31 393 71 c 2
 460 393 l 2
 463 407 464 421 464 433 c 0
 464 489 432 554 331 554 c 0
 257 554 178 507 143 451 c 1
 201 446 237 424 251 385 c 1
 202 376 149 326 137 274 c 2
 80 0 l 1
 26 0 l 1
 83 272 l 2
 96 331 130 372 187 393 c 1
 164 405 137 411 107 411 c 0
 97 411 86 410 75 409 c 1
 113 516 221 602 344 602 c 0
EndSplineSet
Validated: 1
EndChar

StartChar: uni0E02
Encoding: 3586 3586 215
Width: 568
VWidth: 1504
Flags: W
HStem: -12 48<232.464 356.984> 341 46<98.9256 181.278> 483 37<128.605 191.266> 558 44<156.381 298.206>
VStem: 52 44<390.357 467.436> 168 55<47.1328 151.613> 196 41<403.717 478.718> 322 54<431.446 534.611>
LayerCount: 2
Fore
SplineSet
135 387 m 256xfb
 170 387 196 416 196 447 c 0
 196 469 180 483 156 483 c 256
 120 483 96 453 96 422 c 0
 96 401 112 387 135 387 c 256xfb
248 602 m 0
 339 602 376 553 376 505 c 0
 376 418 268 331 254 260 c 2
 226 120 l 2
 223 107 223 96 223 86 c 0
 223 53 248 36 290 36 c 256
 345 36 379 64 391 120 c 2
 483 552 l 2
 491 590 505 620 526 642 c 1
 569 615 l 1
 555 603 543 575 532 532 c 1
 445 125 l 2
 426 34 371 -12 278 -12 c 0
 213 -12 168 12 168 60 c 2
 168 86 l 2xfd
 168 98 168 111 171 125 c 2
 202 268 l 2
 218 341 322 418 322 488 c 0
 322 524 290 558 238 558 c 0
 193 558 157 543 128 514 c 1
 138 518 150 520 164 520 c 0
 209 520 237 493 237 452 c 0
 237 402 192 341 126 341 c 0
 67 341 52 388 52 424 c 0
 52 514 126 602 248 602 c 0
EndSplineSet
Validated: 1
EndChar

StartChar: uni0E03
Encoding: 3587 3587 216
Width: 574
VWidth: 1504
Flags: W
HStem: -12 48<238.464 362.984> 275 51<92.8631 172.555> 423 48<111.788 184.672> 583 20G<176 232.615 280.615 327>
VStem: 39 50<330.322 407.891> 174 55<47.1328 150.227> 188 50<341.553 419.757> 344 48<414.757 541.717>
LayerCount: 2
Fore
SplineSet
129 326 m 256xfb
 165 326 188 359 188 386 c 0
 188 401 180 423 149 423 c 256
 113 423 89 392 89 364 c 0
 89 341 105 326 129 326 c 256xfb
301 603 m 1
 353 597 392 557 392 494 c 0
 392 380 270 307 251 215 c 2
 232 120 l 2
 229 107 229 96 229 86 c 0
 229 53 254 36 296 36 c 256
 351 36 385 64 397 120 c 2
 489 552 l 2
 497 590 511 620 532 642 c 1
 575 615 l 1
 561 603 549 575 539 532 c 2
 451 125 l 2
 432 34 377 -12 284 -12 c 0
 219 -12 174 12 174 60 c 2
 174 86 l 2xfd
 174 98 174 111 177 125 c 2
 199 220 l 2
 221 315 344 387 344 492 c 0
 344 525 329 545 301 551 c 1
 235 487 l 1
 194 549 l 1
 157 527 129 498 111 462 c 1
 126 468 143 471 161 471 c 0
 222 471 238 429 238 398 c 0
 238 331 184 275 117 275 c 0
 55 275 39 322 39 366 c 0
 39 475 129 586 223 603 c 1
 248 551 l 1
 301 603 l 1
EndSplineSet
Validated: 1
EndChar

StartChar: uni0E04
Encoding: 3588 3588 217
Width: 591
VWidth: 1504
Flags: W
HStem: 0 21G<33 91.0816> 280 43<256.903 335.252> 417 42<269.435 346.048> 554 48<240.771 419.195>
VStem: 61 56<235 428.878> 350 44<336.954 413.406> 478 56<378.062 501.692>
LayerCount: 2
Fore
SplineSet
344 602 m 0
 452 602 534 548 534 459 c 0
 534 443 532 427 528 409 c 2
 453 51 l 2
 441 4 417 -32 381 -56 c 1
 338 -29 l 1
 373 -2 394 31 403 71 c 2
 474 405 l 2
 476 417 478 428 478 439 c 0
 478 515 406 554 331 554 c 0
 277 554 117 519 117 321 c 0
 117 304 120 252 120 235 c 1
 154 325 223 459 323 459 c 0
 367 459 394 433 394 394 c 0
 394 336 343 280 283 280 c 0
 257 280 236 292 221 316 c 1
 188 277 126 184 107 98 c 2
 87 0 l 1
 33 0 l 1
 62 138 l 2
 65 154 67 175 67 199 c 0
 67 249 61 274 61 324 c 0
 61 503 207 602 344 602 c 0
292 323 m 256
 322 323 350 351 350 380 c 0
 350 393 342 417 311 417 c 256
 277 417 254 385 254 358 c 0
 254 344 264 323 292 323 c 256
EndSplineSet
Validated: 1
EndChar

StartChar: uni0E05
Encoding: 3589 3589 218
Width: 591
VWidth: 1504
Flags: W
HStem: 0 21G<36 94.1975> 248 42<251.206 327.522> 384 40<264.424 338.685>
VStem: 67 50<220 431.047> 343 42<305.075 380.332> 481 54<392.159 517.104>
LayerCount: 2
Fore
SplineSet
67 186 m 0
 67 240 61 268 61 322 c 0
 61 486 159 574 277 605 c 1
 326 528 l 1
 403 605 l 1
 485 588 535 547 535 484 c 0
 535 466 535 446 531 424 c 2
 453 51 l 2
 441 4 417 -32 381 -56 c 1
 338 -29 l 1
 373 -2 394 31 403 71 c 2
 477 421 l 2
 480 435 481 447 481 459 c 0
 481 506 454 536 403 549 c 1
 314 468 l 1
 251 551 l 1
 187 519 138 450 126 399 c 0
 120 367 117 315 117 242 c 2
 117 220 l 1
 172 356 238 424 313 424 c 0
 358 424 385 398 385 360 c 0
 385 301 337 248 278 248 c 0
 246 248 222 260 206 283 c 1
 175 256 124 161 107 81 c 2
 90 0 l 1
 36 0 l 1
 62 120 l 2
 65 138 67 159 67 186 c 0
286 290 m 256
 318 290 343 320 343 349 c 0
 343 361 335 384 305 384 c 256
 275 384 247 355 247 327 c 0
 247 314 255 290 286 290 c 256
EndSplineSet
Validated: 1
EndChar

StartChar: uni0E06
Encoding: 3590 3590 219
Width: 613
VWidth: 1504
Flags: W
HStem: -12 51<115.472 198.553> 0 21G<398 469.248> 144 50<128.913 193> 275 51<92.8631 172.555> 423 48<111.788 184.672> 583 20G<176 232.615 280.615 342>
VStem: 39 50<330.322 407.891> 58 52<44.3292 123.937> 188 50<341.553 419.757> 218 51<57.9912 139.033> 344 48<419.041 541.824>
LayerCount: 2
Fore
SplineSet
153 39 m 256xbd60
 185 39 218 71 218 102 c 0
 218 123 203 144 176 144 c 256
 144 144 110 113 110 82 c 0
 110 61 126 39 153 39 c 256xbd60
129 326 m 256
 165 326 188 359 188 386 c 0
 188 401 180 423 149 423 c 256
 113 423 89 392 89 364 c 0x3ea0
 89 341 105 326 129 326 c 256
186 194 m 2
 193 194 l 1
 199 220 l 2
 217 316 344 387 344 492 c 0
 344 525 329 545 301 551 c 1
 235 487 l 1
 194 549 l 1
 157 527 129 498 111 462 c 1
 126 468 143 471 161 471 c 0
 222 471 238 429 238 398 c 0
 238 331 184 275 117 275 c 0
 55 275 39 322 39 366 c 0
 39 475 129 586 223 603 c 1
 248 551 l 1
 301 603 l 1
 383 594 392 520 392 493 c 0
 392 380 270 307 251 215 c 2
 247 193 l 1
 334 182 394 145 427 81 c 1
 528 552 l 2
 536 590 551 620 572 642 c 1
 614 615 l 1
 600 603 588 575 578 532 c 2
 465 0 l 1
 411 0 l 1x7ea0
 385 82 334 132 259 149 c 1
 266 139 269 127 269 114 c 0
 269 60 221 -12 143 -12 c 0
 90 -12 58 23 58 69 c 0xbd60
 58 132 118 194 186 194 c 2
EndSplineSet
Validated: 1
EndChar

StartChar: uni0E07
Encoding: 3591 3591 220
Width: 442
VWidth: 1504
Flags: W
HStem: 0 21G<225.415 297.232> 403 50<251.954 325.578> 555 47<264.439 345.995>
VStem: 35 36<319.05 337.556> 197 50<457.238 537.257> 351 51<473.919 550.19>
LayerCount: 2
Fore
SplineSet
287 453 m 256
 318 453 351 481 351 516 c 0
 351 539 333 555 310 555 c 256
 280 555 247 527 247 493 c 0
 247 479 255 453 287 453 c 256
320 602 m 0
 386 602 402 557 402 527 c 0
 402 519 401 510 399 501 c 2
 293 0 l 1
 239 0 l 1
 59 265 l 2
 47 284 39 305 35 329 c 1
 71 373 l 1
 77 344 88 316 105 289 c 2
 254 77 l 1
 326 414 l 1
 310 407 294 403 277 403 c 0
 226 403 197 441 197 482 c 0
 197 537 248 602 320 602 c 0
EndSplineSet
Validated: 1
EndChar

StartChar: uni0E08
Encoding: 3592 3592 221
Width: 552
VWidth: 1504
Flags: W
HStem: -14 50<274.257 353.87> 226 43<147.487 223.226> 361 45<158.641 235.735> 552 50<207.018 408.169>
VStem: 99 45<272.177 346.244> 214 58<38.7929 188.6> 239 44<281.574 356.945> 445 56<412.949 517.171>
LayerCount: 2
Fore
SplineSet
65 445 m 1xfd
 94 532 187 602 320 602 c 0
 442 602 501 562 501 483 c 0
 501 471 499 458 496 444 c 2
 423 98 l 2
 408 23 364 -14 293 -14 c 0
 241 -14 214 11 214 60 c 2
 214 71 l 1xfd
 224 239 l 1
 207 230 189 226 170 226 c 0
 113 226 99 269 99 293 c 0
 99 353 149 406 209 406 c 0
 252 406 283 376 283 332 c 0
 283 329 l 2xfb
 272 74 l 1
 272 73 l 2
 272 48 283 36 307 36 c 0
 340 36 360 54 367 90 c 2
 442 444 l 2
 444 453 445 461 445 469 c 0
 445 535 366 552 311 552 c 0
 217 552 147 509 120 445 c 1
 65 445 l 1xfd
182 269 m 256
 216 269 239 299 239 325 c 0xfb
 239 337 232 361 202 361 c 256
 167 361 144 329 144 302 c 0
 144 289 154 269 182 269 c 256
EndSplineSet
Validated: 1
EndChar

StartChar: uni0E09
Encoding: 3593 3593 222
Width: 567
VWidth: 1504
Flags: W
HStem: -11 44<322.258 402.908> 0 21G<60 147.5> 206 45<85.725 114> 341 47<93.9677 171.722> 552 50<218.828 412.631>
VStem: 34 48<253.478 328.493> 174 47<262.994 338.35> 272 46<37.3025 101.323> 420 45<49.6893 127.8> 459 55<354.75 511.396>
LayerCount: 2
Fore
SplineSet
465 108 m 0x7f80
 465 51 421 -11 347 -11 c 0xbf80
 295 -11 272 27 272 62 c 0
 272 78 277 95 280 102 c 1
 218 78 167 44 128 0 c 1
 60 0 l 1
 89 140 l 2
 95 169 103 191 114 206 c 1
 45 206 34 257 34 278 c 0
 34 329 83 388 146 388 c 0
 191 388 221 358 221 318 c 0
 221 255 157 211 146 149 c 1
 125 53 l 1
 168 101 230 136 311 159 c 1
 374 186 412 229 424 289 c 1
 457 439 l 2
 458 446 459 452 459 458 c 0
 459 515 401 552 319 552 c 0
 238 552 153 508 123 442 c 1
 68 442 l 1
 94 533 196 602 326 602 c 0
 485 602 514 527 514 476 c 0x7f40
 514 464 513 452 510 438 c 2
 478 286 l 2
 468 238 447 200 414 173 c 1
 448 162 465 140 465 108 c 0x7f80
358 33 m 0
 392 33 420 64 420 95 c 0
 420 108 411 132 379 132 c 0
 350 132 318 106 318 72 c 0
 318 50 335 33 358 33 c 0
119 251 m 256
 148 251 174 275 174 307 c 0
 174 321 167 341 138 341 c 256
 111 341 82 319 82 287 c 0
 82 273 90 251 119 251 c 256
EndSplineSet
EndChar

StartChar: uni0E0A
Encoding: 3594 3594 223
Width: 571
VWidth: 1504
Flags: W
HStem: -12 48<233.671 359.548> 341 46<98.9256 181.278> 483 37<128.605 191.266> 558 44<156.381 298.206> 605 37<571.492 608.108>
VStem: 52 44<390.357 467.436> 168 55<47.491 211.875> 196 41<403.717 478.718> 322 54<431.446 534.611> 448 56<284.195 435.325>
LayerCount: 2
Fore
SplineSet
248 602 m 0xfdc0
 339 602 376 553 376 505 c 0
 376 418 268 331 254 260 c 2
 226 120 l 2
 224 110 223 101 223 93 c 0
 223 55 246 36 292 36 c 256
 348 36 382 64 394 120 c 2
 445 363 l 2
 447 370 448 377 448 383 c 0
 448 416 433 439 399 451 c 1
 431 544 503 622 603 642 c 1
 630 605 l 1
 551 591 493 546 456 471 c 1
 488 458 504 434 504 399 c 0
 504 390 503 380 501 369 c 2
 448 125 l 2
 429 34 373 -12 280 -12 c 0
 212 -12 168 13 168 63 c 2
 168 88 l 2xfec0
 168 100 168 112 171 125 c 2
 202 268 l 2
 218 341 322 418 322 488 c 0
 322 524 290 558 238 558 c 0
 193 558 157 543 128 514 c 1
 138 518 150 520 164 520 c 0
 209 520 237 493 237 452 c 0
 237 402 192 341 126 341 c 0
 67 341 52 388 52 424 c 0
 52 514 126 602 248 602 c 0xfdc0
135 387 m 256
 170 387 196 416 196 447 c 0xfdc0
 196 469 180 483 156 483 c 256
 120 483 96 453 96 422 c 0
 96 401 112 387 135 387 c 256
EndSplineSet
Validated: 1
EndChar

StartChar: uni0E0B
Encoding: 3595 3595 224
Width: 577
VWidth: 1504
Flags: W
HStem: -12 48<239.671 365.548> 275 51<92.8631 172.555> 423 48<111.788 184.672> 583 20G<176 232.615 280.615 327> 605 37<577.492 614.108>
VStem: 39 50<330.322 407.891> 174 55<47.491 151.591> 188 50<341.553 419.757> 344 48<414.757 541.717> 454 56<284.195 435.835>
LayerCount: 2
Fore
SplineSet
129 326 m 256xfdc0
 165 326 188 359 188 386 c 0
 188 401 180 423 149 423 c 256
 113 423 89 392 89 364 c 0
 89 341 105 326 129 326 c 256xfdc0
301 603 m 1
 353 597 392 557 392 494 c 0
 392 380 270 307 251 215 c 2
 232 122 l 2
 230 112 229 103 229 94 c 0
 229 55 252 36 298 36 c 256
 354 36 388 64 400 120 c 2
 451 363 l 2
 453 370 454 377 454 383 c 0
 454 416 439 439 405 451 c 1
 437 544 509 622 609 642 c 1
 636 605 l 1
 557 591 499 546 462 471 c 1
 495 458 510 434 510 398 c 0
 510 389 509 379 507 369 c 2
 454 125 l 2
 435 34 379 -12 286 -12 c 0
 218 -12 174 13 174 63 c 2
 174 88 l 2xfec0
 174 100 174 112 177 125 c 2
 199 220 l 2
 221 315 344 387 344 492 c 0
 344 525 329 545 301 551 c 1
 235 487 l 1
 194 549 l 1
 157 527 129 498 111 462 c 1
 126 468 143 471 161 471 c 0
 222 471 238 429 238 398 c 0
 238 331 184 275 117 275 c 0
 55 275 39 322 39 366 c 0
 39 475 129 586 223 603 c 1
 248 551 l 1
 301 603 l 1
EndSplineSet
Validated: 1
EndChar

StartChar: uni0E0C
Encoding: 3596 3596 225
Width: 780
VWidth: 1504
Flags: W
HStem: -14 50<81.6178 162.873 328.559 412.114> 0 21G<567.5 636.248> 137 48<113.587 175.558 343.068 390> 554 48<229.809 404.028>
VStem: 26 51<40.0617 120.891> 180 49<52.7651 132.209> 276 49<39.9507 120.379> 428 50<52.0531 104.277> 440 56<375.704 517.553>
LayerCount: 2
Fore
SplineSet
326 602 m 0xbe80
 428 602 496 555 496 457 c 0xbe80
 496 441 494 423 490 405 c 2
 442 179 l 1
 519 151 568 115 591 71 c 1
 695 552 l 2
 703 590 718 620 739 642 c 1
 781 615 l 1
 767 603 755 575 745 532 c 2
 632 0 l 1
 576 0 l 1
 559 37 526 72 477 105 c 1
 477 101 478 97 478 94 c 0x7f
 478 66 443 -14 356 -14 c 0
 307 -14 276 22 276 65 c 0
 276 123 327 180 390 185 c 1
 435 399 l 2
 440 422 440 442 440 460 c 0
 440 523 394 554 313 554 c 0
 244 554 171 505 140 450 c 1
 195 446 231 424 247 384 c 1
 193 373 143 323 132 274 c 2
 113 179 l 1
 123 183 135 185 149 185 c 0
 199 185 229 148 229 105 c 0
 229 54 180 -14 107 -14 c 256
 42 -14 26 34 26 63 c 0
 26 83 32 108 48 129 c 1
 78 272 l 2
 89 326 124 366 182 391 c 1
 154 403 124 409 92 409 c 0
 83 409 75 409 66 408 c 1
 104 509 205 602 326 602 c 0xbe80
366 36 m 256
 399 36 428 65 428 98 c 0xbf
 428 121 410 137 387 137 c 256
 354 137 325 106 325 75 c 0
 325 52 341 36 366 36 c 256
117 36 m 256
 154 36 180 70 180 98 c 0
 180 120 163 137 138 137 c 256
 103 137 77 103 77 75 c 0
 77 62 85 36 117 36 c 256
EndSplineSet
Validated: 1
EndChar

StartChar: uni0E0D
Encoding: 3597 3597 226
Width: 780
VWidth: 1504
Flags: W
HStem: -257 43<380.219 499.376> -86 41<335.356 405.961> -14 50<90.6543 173.683 427.819 565.828> 137 48<111.856 186.271> 554 48<226.563 391.753>
VStem: 36 51<40.9218 120.575> 191 50<53.1639 131.681> 281 44<-164.677 -95.6181> 359 56<50.4011 201.109> 409 40<-154.617 -89.4782> 429 56<336.492 517.694> 587 55<-114.45 -51>
LayerCount: 2
Fore
SplineSet
449 -111 m 0xff50
 449 -138 434 -183 379 -203 c 1
 389 -210 403 -214 420 -214 c 0
 506 -214 562 -160 587 -51 c 1
 642 -51 l 1
 617 -158 550 -257 412 -257 c 0
 335 -257 281 -207 281 -151 c 0
 281 -82 339 -45 382 -45 c 0
 424 -45 449 -75 449 -111 c 0xff50
358 -167 m 256
 387 -167 409 -138 409 -119 c 0
 409 -101 395 -86 375 -86 c 256
 349 -86 325 -109 325 -136 c 0
 325 -153 338 -167 358 -167 c 256
128 36 m 256
 163 36 191 67 191 96 c 0
 191 119 174 137 149 137 c 256
 115 137 87 106 87 74 c 0
 87 51 106 36 128 36 c 256
323 602 m 0
 466 602 485 511 485 463 c 0
 485 446 482 426 478 405 c 2
 418 120 l 2
 416 111 415 103 415 95 c 0
 415 56 441 36 493 36 c 0
 554 36 591 64 603 120 c 2
 695 552 l 2
 703 590 718 620 739 642 c 1
 781 615 l 1
 767 603 755 575 745 532 c 2
 657 123 l 2
 638 33 580 -12 481 -12 c 0
 400 -12 359 20 359 83 c 0
 359 96 361 110 364 125 c 2
 423 399 l 2
 426 415 429 430 429 443 c 0xffb0
 429 517 392 554 310 554 c 0
 237 554 171 503 140 450 c 1
 195 446 231 424 247 384 c 1
 193 373 143 323 132 274 c 2
 111 176 l 1
 126 182 142 185 159 185 c 0
 212 185 241 150 241 109 c 0
 241 79 218 -14 117 -14 c 0
 66 -14 36 16 36 62 c 0
 36 70 37 79 39 89 c 2
 78 272 l 2
 89 326 124 366 182 391 c 1
 154 403 124 409 92 409 c 0
 83 409 75 409 66 408 c 1
 104 507 201 602 323 602 c 0
EndSplineSet
Validated: 1
Substitution2: "Single Substitution lookup 42 subtable" uni0E0D.alt1
Substitution2: "Single Substitution lookup 42 subtable" uni0E0D.alt1
EndChar

StartChar: uni0E0E
Encoding: 3598 3598 227
Width: 639
VWidth: 1504
Flags: W
HStem: -329 48<57.1214 141.928> -203 50<227 265.865> -187 50<69.6441 164.782> -12 48<40.5354 123.269> 137 48<52.8861 135.077> 554 48<299.752 470.903>
VStem: -12 48<40.5173 119.755> 6 49<-278.639 -202.097> 139 55<53.9416 132.587> 523 57<365.302 502.438>
LayerCount: 2
Fore
SplineSet
402 602 m 0xdec0
 537 602 580 520 580 448 c 0
 580 432 579 415 575 397 c 2
 421 -323 l 1
 361 -323 l 1
 353 -268 262 -216 217 -203 c 1xdec0
 214 -214 l 1
 202 -276 150 -329 84 -329 c 0
 21 -329 6 -289 6 -260 c 0
 6 -194 64 -137 141 -137 c 0xbdc0
 146 -137 160 -138 181 -141 c 1
 192 -104 216 -76 253 -57 c 1
 289 -81 l 1
 255 -100 234 -124 227 -153 c 1
 301 -182 353 -215 382 -254 c 1
 519 391 l 2
 522 406 523 419 523 432 c 0
 523 507 472 554 390 554 c 0
 314 554 236 505 203 450 c 1
 255 445 291 423 311 384 c 1
 253 365 218 329 206 274 c 0
 198 235 194 194 194 153 c 0
 194 79 172 43 142 18 c 0
 119 -2 93 -12 66 -12 c 256
 19 -12 -12 22 -12 63 c 0
 -12 131 48 185 108 185 c 0
 119 185 131 182 143 177 c 1
 149 277 154 343 239 391 c 1
 214 403 189 409 162 409 c 0
 149 409 140 409 134 408 c 1
 168 522 285 602 402 602 c 0xdec0
134 -187 m 0xbdc0
 67 -187 55 -224 55 -248 c 0
 55 -270 68 -281 96 -281 c 0
 156 -281 165 -210 165 -191 c 1
 156 -188 146 -187 134 -187 c 0xbdc0
77 36 m 256
 110 36 139 65 139 98 c 0
 139 121 121 137 98 137 c 256
 64 137 36 106 36 74 c 0x9ec0
 36 51 55 36 77 36 c 256
EndSplineSet
Validated: 513
Substitution2: "Single Substitution lookup 42 subtable" uni0E0E.alt1
Substitution2: "Single Substitution lookup 42 subtable" uni0E0E.alt1
EndChar

StartChar: uni0E0F
Encoding: 3599 3599 228
Width: 639
VWidth: 1504
Flags: W
HStem: -331 47<1.86548 86.5402> -188 47<16.0173 112.725> -12 48<40.5354 123.269> 137 48<52.8861 135.077> 554 48<299.752 470.903>
VStem: -45 45<-281.855 -203.765> -12 48<40.5173 119.755> 139 55<53.9416 132.587> 523 57<365.302 502.438>
LayerCount: 2
Fore
SplineSet
71 -188 m 0xfd80
 10 -188 0 -232 0 -253 c 0
 0 -274 13 -284 39 -284 c 0
 77 -284 101 -257 113 -202 c 1
 106 -193 92 -188 71 -188 c 0xfd80
402 602 m 0
 537 602 580 520 580 448 c 0
 580 432 579 415 575 397 c 2
 421 -323 l 1
 361 -323 l 1
 299 -232 l 1
 214 -322 l 1
 150 -232 l 1
 133 -298 80 -331 33 -331 c 0
 -29 -331 -45 -291 -45 -261 c 0xfd80
 -45 -202 4 -141 77 -141 c 0
 96 -141 111 -145 123 -152 c 1
 132 -117 159 -88 203 -65 c 1
 239 -89 l 1
 200 -110 176 -138 167 -173 c 1
 224 -251 l 1
 314 -156 l 1
 382 -254 l 1
 519 391 l 2
 522 406 523 419 523 432 c 0
 523 507 472 554 390 554 c 0
 314 554 236 505 203 450 c 1
 255 445 291 423 311 384 c 1
 253 365 218 329 206 274 c 0
 198 235 194 194 194 153 c 0
 194 79 172 43 142 18 c 0
 119 -2 93 -12 66 -12 c 256
 19 -12 -12 22 -12 63 c 0xfb80
 -12 131 48 185 108 185 c 0
 119 185 131 182 143 177 c 1
 149 277 154 343 239 391 c 1
 214 403 189 409 162 409 c 0
 149 409 140 409 134 408 c 1
 168 522 285 602 402 602 c 0
77 36 m 256
 110 36 139 65 139 98 c 0
 139 121 121 137 98 137 c 256
 64 137 36 106 36 74 c 0xfb80
 36 51 55 36 77 36 c 256
EndSplineSet
Validated: 513
Substitution2: "Single Substitution lookup 42 subtable" uni0E0F.alt1
Substitution2: "Single Substitution lookup 42 subtable" uni0E0F.alt1
EndChar

StartChar: uni0E10
Encoding: 3600 3600 229
Width: 515
VWidth: 1504
Flags: W
HStem: -331 42<-91.3028 -0.171562> -220 35<221.535 267.834> -211 41<-83.2361 13.71> -117 36<228.03 293.691> -14 50<203.969 303.541> 190 49<103.282 161.573> 319 50<113.144 183.183> 513 56<347.672 490.061> 549 53<188.504 356.611>
VStem: -140 47<-286.628 -220.374> 51 51<240.952 308.772> 141 56<43.97 144.579> 179 41<-183.932 -123.349> 185 53<250.703 317.169> 294 40<-178.211 -117.792> 377 56<298.826 362.815> 517 44<597.829 633.591>
LayerCount: 2
Fore
SplineSet
146 481 m 1x9ef380
 325 443 433 407 433 351 c 0
 433 347 433 342 432 337 c 2
 385 119 l 1
 367 30 318 -14 238 -14 c 0x9ee780
 173 -14 141 15 141 74 c 0x9ef380
 141 88 143 103 146 119 c 2
 162 196 l 1
 150 192 137 190 123 190 c 0
 80 190 51 218 51 255 c 0
 51 311 100 369 162 369 c 0
 205 369 238 346 238 304 c 0x9ee780
 238 296 237 288 235 280 c 2
 200 114 l 2
 198 104 197 94 197 86 c 0
 197 53 214 36 248 36 c 0
 292 36 320 62 331 114 c 2
 376 332 l 2
 376 334 377 335 377 337 c 0
 377 389 139 431 68 441 c 1
 87 510 154 602 283 602 c 0x9ef380
 339 602 390 569 442 569 c 0
 477 569 502 593 517 642 c 1
 561 632 l 1
 534 553 491 513 433 513 c 0x9f7380
 373 513 318 549 262 549 c 0
 216 549 156 518 146 481 c 1x9ef380
272 -81 m 0
 307 -81 334 -102 334 -133 c 0
 334 -138 334 -144 332 -150 c 2
 296 -325 l 1
 238 -325 l 1
 181 -284 l 1
 107 -323 l 1
 56 -241 l 1
 42 -307 -19 -331 -59 -331 c 0
 -113 -330 -140 -309 -140 -269 c 0
 -140 -190 -64 -170 -21 -170 c 0xbe6780
 1 -170 18 -172 29 -177 c 1
 44 -136 72 -106 114 -86 c 1
 150 -108 l 1
 105 -128 78 -158 69 -197 c 1
 119 -274 l 1
 190 -241 l 1
 253 -286 l 1
 268 -218 l 1
 262 -219 253 -220 242 -220 c 0
 208 -220 179 -198 179 -165 c 0xde6b80
 179 -123 222 -81 272 -81 c 0
14 -225 m 0
 14 -221 11 -211 -33 -211 c 0
 -71 -211 -93 -230 -93 -260 c 0
 -93 -279 -80 -289 -53 -289 c 0
 1 -289 14 -253 14 -225 c 0
250 -185 m 256xde6b80
 291 -185 294 -148 294 -139 c 0
 294 -124 285 -117 265 -117 c 256
 229 -117 220 -145 220 -159 c 0
 220 -176 229 -185 250 -185 c 256xde6b80
134 239 m 256
 158 239 185 263 185 286 c 0x9e6780
 185 304 172 319 152 319 c 256
 120 319 102 288 102 267 c 0
 102 250 116 239 134 239 c 256
EndSplineSet
Validated: 5
Substitution2: "Single Substitution lookup 42 subtable" uni0E10.alt1
Substitution2: "Single Substitution lookup 42 subtable" uni0E10.alt1
EndChar

StartChar: uni0E11
Encoding: 3601 3601 230
Width: 693
VWidth: 1504
Flags: W
HStem: 0 21G<152 231.725> 275 51<92.8631 172.555> 423 48<111.788 184.672> 549 53<295.677 329.547 532.74 592.897>
VStem: 39 50<330.322 406.702> 188 50<341.553 419.757> 335 50<416.865 546.157> 596 56<449.969 546.611>
LayerCount: 2
Fore
SplineSet
117 275 m 0
 55 275 39 322 39 366 c 0
 39 467 121 584 223 603 c 1
 248 551 l 1
 301 603 l 1
 357 596 385 564 385 508 c 0
 385 379 271 311 250 208 c 1
 217 80 l 1
 237 122 257 160 277 193 c 2
 469 517 l 2
 502 574 539 602 579 602 c 0
 628 602 652 577 652 527 c 0
 652 514 651 498 647 481 c 2
 555 51 l 1
 543 4 519 -32 483 -56 c 1
 441 -29 l 1
 475 -2 496 31 505 71 c 2
 593 481 l 2
 595 492 596 501 596 509 c 0
 596 536 585 549 563 549 c 0
 552 549 537 536 519 510 c 1
 220 0 l 1
 152 0 l 1
 199 220 l 1
 217 317 335 389 335 497 c 0
 335 529 324 547 301 551 c 1
 235 487 l 1
 194 549 l 1
 157 527 129 498 111 462 c 1
 126 468 143 471 161 471 c 0
 222 471 238 429 238 398 c 0
 238 331 184 275 117 275 c 0
129 326 m 256
 165 326 188 359 188 386 c 0
 188 401 180 423 149 423 c 256
 113 423 89 392 89 364 c 0
 89 341 105 326 129 326 c 256
EndSplineSet
Validated: 1
EndChar

StartChar: uni0E12
Encoding: 3602 3602 231
Width: 800
VWidth: 1504
Flags: W
HStem: -12 48<348.358 431.524> 0 21G<47 107 588.5 655.248> 137 50<362.174 409> 382 39<243.51 320.494> 582 20G<188 265.651 392.045 452>
VStem: 47 54<0 34.25> 61 54<179.209 438.83> 79 53<129 343.791> 185 42<290.174 367.987> 295 49<40.2467 120.832> 325 43<301.949 377.59> 448 50<52.9757 106.365> 459 55<367.654 520.214>
LayerCount: 2
Fore
SplineSet
415 602 m 1x7a80
 489 588 514 520 514 453 c 0x7a88
 514 435 512 416 508 397 c 2
 462 179 l 1
 538 151 589 117 614 78 c 1
 714 552 l 2
 723 590 737 620 758 642 c 1
 800 615 l 1
 786 603 774 575 764 532 c 2
 651 0 l 1
 597 0 l 1
 580 43 547 79 498 107 c 1x7890
 498 53 449 -12 376 -12 c 256
 311 -12 295 36 295 64 c 0
 295 130 352 183 409 187 c 1
 453 391 l 2
 457 411 459 429 459 446 c 0
 459 490 444 523 415 545 c 1
 301 457 l 1
 232 546 l 1
 185 520 115 444 115 347 c 0xbac8
 115 278 132 244 132 175 c 0
 132 158 130 143 128 129 c 1
 156 174 217 207 250 244 c 1
 193 250 185 297 185 315 c 0
 185 365 232 421 295 421 c 256xb9c0
 336 421 368 393 368 356 c 0
 368 318 339 256 233 166 c 0
 157 101 113 46 101 0 c 1
 47 0 l 1x7ca0
 75 137 l 2
 77 149 79 162 79 177 c 0x7980
 79 246 61 281 61 350 c 0
 61 425 125 567 251 600 c 1
 314 514 l 1
 415 602 l 1x7a80
265 287 m 256
 300 287 325 315 325 346 c 0x38a0
 325 360 315 382 284 382 c 256
 246 382 227 347 227 321 c 0
 227 307 235 287 265 287 c 256
385 36 m 256xb8d0
 420 36 448 67 448 96 c 0
 448 119 431 137 406 137 c 256
 372 137 344 106 344 74 c 0
 344 51 363 36 385 36 c 256xb8d0
EndSplineSet
Validated: 1
EndChar

StartChar: uni0E13
Encoding: 3603 3603 232
Width: 816
VWidth: 1504
Flags: W
HStem: -14 50<91.7134 173.935 566.209 653.11> 0 21G<338 422> 137 48<111.856 186.271> 554 48<226.563 391.753>
VStem: 36 51<40.3014 120.575> 191 50<52.329 131.681> 429 56<337.008 517.694> 513 50<37.7621 92.3689> 668 51<50.0874 130.581>
LayerCount: 2
Fore
SplineSet
128 36 m 256xbf80
 163 36 191 67 191 96 c 0
 191 119 174 137 149 137 c 256
 115 137 87 106 87 74 c 0
 87 51 106 36 128 36 c 256xbf80
605 33 m 256
 638 33 668 63 668 96 c 0
 668 117 651 135 627 135 c 256
 597 135 563 107 563 74 c 0
 563 51 580 33 605 33 c 256
719 112 m 0
 719 45 666 -15 594 -15 c 0
 545 -15 513 17 513 61 c 0
 513 80 518 90 519 93 c 1
 480 79 441 48 403 0 c 1
 338 0 l 1x7f80
 423 399 l 2
 426 415 429 430 429 443 c 0
 429 517 392 554 310 554 c 0
 237 554 171 503 140 450 c 1
 195 446 231 424 247 384 c 1
 193 373 143 323 132 274 c 2
 111 176 l 1
 126 182 142 185 159 185 c 0
 212 185 241 150 241 109 c 0
 241 52 191 -14 117 -14 c 256
 53 -14 36 36 36 65 c 0
 36 72 37 80 39 89 c 2
 78 272 l 2
 89 326 124 366 182 391 c 1
 154 403 124 409 92 409 c 0
 83 409 75 409 66 408 c 1
 104 507 201 602 323 602 c 0
 466 602 485 511 485 463 c 0
 485 446 482 426 478 405 c 2
 408 72 l 1
 474 141 566 160 617 193 c 0
 646 215 665 248 675 293 c 2
 731 552 l 2
 739 590 754 620 775 642 c 1
 817 615 l 1
 803 603 791 575 781 532 c 2
 730 296 l 2
 717 236 700 196 677 177 c 1
 705 164 719 142 719 112 c 0
EndSplineSet
Validated: 1
EndChar

StartChar: uni0E14
Encoding: 3604 3604 233
Width: 588
VWidth: 1504
Flags: W
HStem: 0 21G<33 93.5> 280 42<248.882 274> 415 42<259.196 336.336> 554 48<239.191 427.188>
VStem: 33 54<0 32.5862> 60 54<198.33 430.09> 67 55<87.3181 329.47> 202 43<325.113 400.857> 341 43<336.801 411.363> 473 56<368.165 512.284>
LayerCount: 2
Back
SplineSet
283 322 m 256xf380
 311 322 341 348 341 377 c 0
 341 390 333 415 302 415 c 256
 273 415 245 390 245 357 c 0
 245 343 255 322 283 322 c 256xf380
329 554 m 0
 252 554 114 496 114 332 c 0xfb80
 114 277.978 122.012 264.472 122.012 196.944 c 4
 122.012 181.58 121.222 151.556 107 116 c 1
 124 142 150 171 187 203 c 2
 274 280 l 1
 229 280 202 309 202 347 c 0
 202 405 252 457 311 457 c 256
 355 457 384 428 384 389 c 0
 384 335 330 265 236 185 c 0
 150 111 100 49 87 0 c 1
 33 0 l 1
 62 135 l 2
 65 151 67 171 67 194 c 0xf780
 67 249 60 277 60 332 c 0xfb80
 60 478 179 602 347 602 c 0
 501 602 529 511 529 450 c 0
 529 434 527 417 523 399 c 2
 450 51 l 2
 438 4 414 -32 378 -56 c 1
 335 -29 l 1
 370 -2 391 31 400 71 c 2
 468 391 l 2
 473 413 473 433 473 451 c 0
 473 520 421 554 329 554 c 0
EndSplineSet
Fore
SplineSet
283 322 m 256xf1c0
 311 322 341 348 341 377 c 0
 341 390 333 415 302 415 c 256
 273 415 245 390 245 357 c 0
 245 343 255 322 283 322 c 256xf1c0
329 554 m 0
 252 554 114 496 114 332 c 0xf5c0
 114 278 122 264 122 197 c 0xf3c0
 122 182 121 152 107 116 c 1
 124 142 150 171 187 203 c 2
 274 280 l 1
 229 280 202 309 202 347 c 0
 202 405 252 457 311 457 c 256
 355 457 384 428 384 389 c 0
 384 335 330 265 236 185 c 0
 150 111 100 49 87 0 c 1
 33 0 l 1xf9c0
 62 135 l 2
 65 151 67 171 67 194 c 0xf3c0
 67 249 60 277 60 332 c 0xf5c0
 60 478 179 602 347 602 c 0
 501 602 529 511 529 450 c 0
 529 434 527 417 523 399 c 2
 450 51 l 1
 438 4 414 -32 378 -56 c 1
 335 -29 l 1
 370 -2 391 31 400 71 c 2
 468 391 l 2
 473 413 473 433 473 451 c 0
 473 520 421 554 329 554 c 0
EndSplineSet
Validated: 1
EndChar

StartChar: uni0E15
Encoding: 3605 3605 234
Width: 588
VWidth: 1504
Flags: W
HStem: 0 21G<35 95.5> 382 41<255.867 332.824> 582 20G<181 269.072 404.94 467.5>
VStem: 60 55<119 190.926 194.161 436.735> 68 52<87.5558 329.235> 197 44<292.434 368.128> 337 40<306.157 377.442> 474 56<329.656 521.294>
LayerCount: 2
Fore
SplineSet
430 602 m 1xf7
 505 588 530 513 530 455 c 0
 530 437 527 419 523 399 c 2
 450 51 l 1
 438 4 414 -32 378 -56 c 1
 335 -29 l 1
 370 -2 391 31 400 71 c 2
 468 391 l 2
 472 411 474 429 474 445 c 0
 474 491 459 524 429 546 c 1
 313 457 l 1
 230 546 l 1
 120 484 115 361 115 319 c 0xf7
 115 275 120 253 120 209 c 0
 120 176 117 146 111 119 c 1
 152 172 223 202 260 247 c 1
 225 250 197 275 197 313 c 0
 197 368 241 423 304 423 c 256
 352 423 377 388 377 353 c 0
 377 316 352 259 234 168 c 0
 150 104 102 48 89 0 c 1
 35 0 l 1
 63 135 l 2
 66 151 68 169 68 192 c 0xef
 68 238 60 291 60 344 c 0
 60 411 111 567 251 602 c 1
 326 519 l 1
 430 602 l 1xf7
278 289 m 256
 310 289 337 318 337 347 c 0
 337 368 319 382 298 382 c 256
 264 382 241 350 241 325 c 0
 241 305 256 289 278 289 c 256
EndSplineSet
Validated: 1
EndChar

StartChar: uni0E16
Encoding: 3606 3606 235
Width: 568
VWidth: 1504
Flags: W
HStem: -12 48<87.0797 168.962> 137 51<107.956 182.085> 554 48<231.924 404.531>
VStem: 30 53<40.215 119.983> 186 50<52.3718 132.404> 453 56<368.165 507.262>
LayerCount: 2
Fore
SplineSet
123 36 m 256
 155 36 186 64 186 98 c 0
 186 120 169 137 144 137 c 256
 109 137 83 103 83 75 c 0
 83 62 91 36 123 36 c 256
332 602 m 0
 439 602 509 550 509 447 c 0
 509 432 507 416 504 399 c 2
 430 51 l 2
 418 4 394 -32 358 -56 c 1
 316 -29 l 1
 350 -2 372 31 381 71 c 2
 448 393 l 2
 452 409 453 424 453 437 c 0
 453 515 399 554 319 554 c 0
 245 554 167 505 134 450 c 1
 194 445 229 423 239 385 c 1
 192 376 139 328 126 275 c 2
 107 177 l 1
 124 184 139 188 153 188 c 0
 205 188 236 151 236 110 c 0
 236 50 187 -12 111 -12 c 0
 62 -12 30 20 30 64 c 0
 30 71 31 79 33 87 c 2
 72 274 l 2
 84 328 118 368 174 393 c 1
 149 404 111 409 60 409 c 1
 98 515 212 602 332 602 c 0
EndSplineSet
Validated: 1
EndChar

StartChar: uni0E17
Encoding: 3607 3607 236
Width: 646
VWidth: 1504
Flags: W
HStem: 0 21G<105 173.765> 403 48<118.218 192.475> 554 48<131.242 213.653 481.064 544.464>
VStem: 64 49<456.227 535.634> 218 50<468.234 549.526> 549 57<450.286 545.918>
LayerCount: 2
Fore
SplineSet
188 602 m 256
 237 602 268 567 268 524 c 0
 268 517 267 510 265 502 c 2
 203 208 l 2
 191 161 181 128 174 108 c 1
 220 193 l 1
 411 517 l 2
 444 574 484 602 533 602 c 0
 581 602 606 577 606 529 c 0
 606 515 604 499 600 481 c 2
 508 51 l 2
 496 4 472 -32 436 -56 c 1
 394 -29 l 1
 428 -2 450 30 459 69 c 2
 546 481 l 2
 548 492 549 502 549 510 c 0
 549 536 538 549 516 549 c 0
 498 549 480 536 462 510 c 2
 162 0 l 1
 105 0 l 1
 193 414 l 1
 178 407 161 403 144 403 c 0
 95 403 64 441 64 484 c 0
 64 543 125 602 188 602 c 256
155 451 m 256
 181 451 218 472 218 513 c 0
 218 527 210 554 177 554 c 256
 143 554 113 521 113 494 c 0
 113 479 122 451 155 451 c 256
EndSplineSet
Validated: 1
EndChar

StartChar: uni0E18
Encoding: 3608 3608 237
Width: 503
VWidth: 1504
Flags: W
HStem: -11 49<111.445 285.733> 519 50<332.883 460.731> 554 48<181.855 347.419>
VStem: 41 55<54.6073 141.97> 369 55<302.143 363.359>
LayerCount: 2
Fore
SplineSet
137 483 m 1xb8
 278 453 424 429 424 349 c 0
 424 345 424 342 423 338 c 2
 376 114 l 2
 358 31 294 -11 184 -11 c 256
 89 -11 41 20 41 81 c 0
 41 91 42 102 45 114 c 2
 80 277 l 2
 88 315 102 345 123 367 c 1
 165 340 l 1
 151 328 139 300 129 257 c 2
 98 111 l 2
 97 105 96 100 96 95 c 0
 96 57 129 38 194 38 c 256
 268 38 310 62 320 111 c 2
 369 334 l 1
 369 340 l 0
 369 381 185 425 59 442 c 1
 78 509 141 602 263 602 c 0xb8
 327 602 376 569 429 569 c 0
 448 569 468 593 490 642 c 1
 529 630 l 1
 505 556 469 519 420 519 c 0xd8
 365 519 301 554 250 554 c 0
 209 554 151 523 137 483 c 1xb8
EndSplineSet
Validated: 5
EndChar

StartChar: uni0E19
Encoding: 3609 3609 238
Width: 631
VWidth: 1504
Flags: W
HStem: -12 48<384.516 465.915> 0 21G<105 192.5> 403 48<118.218 192.475> 554 48<131.242 213.653>
VStem: 64 49<456.227 535.634> 218 50<467.008 549.526> 331 49<40.9015 95.9621> 484 50<53.2543 132.772>
LayerCount: 2
Fore
SplineSet
155 451 m 256x3f
 181 451 218 472 218 513 c 0
 218 527 210 554 177 554 c 256
 143 554 113 521 113 494 c 0
 113 479 122 451 155 451 c 256x3f
421 36 m 256xbf
 454 36 484 68 484 97 c 0
 484 120 467 138 442 138 c 256
 409 138 380 108 380 75 c 0
 380 52 398 36 421 36 c 256xbf
534 109 m 0
 534 46 474 -12 411 -12 c 256xbf
 361 -12 331 22 331 64 c 0
 331 70 335 96 335 96 c 1
 268 71 214 39 171 0 c 1
 105 0 l 1x7f
 193 414 l 1
 178 407 161 403 144 403 c 0
 95 403 64 441 64 484 c 0
 64 543 125 602 188 602 c 256
 237 602 268 567 268 524 c 0
 268 517 267 510 265 502 c 2
 171 59 l 1
 265 143 461 149 490 290 c 2
 546 552 l 2
 554 590 569 620 590 642 c 1
 632 615 l 1
 618 603 606 575 596 532 c 2
 542 283 l 2
 531 235 513 200 487 177 c 1
 519 163 534 141 534 109 c 0
EndSplineSet
Validated: 1
EndChar

StartChar: uni0E1A
Encoding: 3610 3610 239
Width: 643
VWidth: 1504
Flags: W
HStem: -12 50<210.291 413.655> 403 48<118.218 192.475> 554 48<131.242 213.653>
VStem: 64 49<456.227 535.634> 128 57<62.628 207.797> 218 50<466.969 549.526>
LayerCount: 2
Fore
SplineSet
155 451 m 256
 181 451 218 472 218 513 c 0
 218 527 210 554 177 554 c 256
 143 554 113 521 113 494 c 0
 113 479 122 451 155 451 c 256
188 602 m 256
 237 602 268 567 268 524 c 0
 268 517 267 510 265 502 c 2
 187 132 l 2
 185 123 185 115 185 108 c 0
 185 61 227 38 308 38 c 0
 401 38 455 69 468 132 c 2
 558 552 l 2
 566 590 581 620 602 642 c 1
 644 615 l 1
 630 603 618 575 608 532 c 2
 522 128 l 2
 502 35 427 -12 298 -12 c 0
 180 -12 128 26 128 101 c 0
 128 110 130 119 132 128 c 2
 193 414 l 1
 178 407 161 403 144 403 c 0
 95 403 64 441 64 484 c 0
 64 543 125 602 188 602 c 256
EndSplineSet
Validated: 1
EndChar

StartChar: uni0E1B
Encoding: 3611 3611 240
Width: 643
VWidth: 1504
Flags: W
HStem: -12 50<210.291 413.655> 403 48<118.218 192.475> 554 48<131.242 213.653>
VStem: 64 49<456.227 535.634> 128 57<62.628 207.797> 218 50<466.969 549.526>
LayerCount: 2
Fore
SplineSet
188 602 m 256
 237 602 268 567 268 524 c 0
 268 517 267 510 265 502 c 2
 187 132 l 2
 185 123 185 115 185 108 c 0
 185 61 227 38 308 38 c 0
 401 38 455 69 468 132 c 2
 605 778 l 2
 613 816 627 846 648 868 c 1
 690 841 l 1
 676 829 664 801 654 758 c 2
 522 128 l 2
 502 35 427 -12 298 -12 c 0
 180 -12 128 26 128 101 c 0
 128 110 130 119 132 128 c 2
 193 414 l 1
 178 407 161 403 144 403 c 0
 95 403 64 441 64 484 c 0
 64 543 125 602 188 602 c 256
155 451 m 256
 181 451 218 472 218 513 c 0
 218 527 210 554 177 554 c 256
 143 554 113 521 113 494 c 0
 113 479 122 451 155 451 c 256
EndSplineSet
Validated: 1
EndChar

StartChar: uni0E1C
Encoding: 3612 3612 241
Width: 573
VWidth: 1504
Flags: W
HStem: 0 21G<-5 73.0588 355.176 428.248> 403 48<154.038 237.018> 554 48<166.779 248.948>
VStem: 254 48<467.754 550.226>
LayerCount: 2
Fore
SplineSet
302 524 m 0
 302 480 269 403 179 403 c 0
 165 403 151 407 137 414 c 1
 66 81 l 1
 250 295 l 1
 290 295 l 1
 387 81 l 1
 487 552 l 2
 495 590 510 620 531 642 c 1
 573 615 l 1
 559 603 547 575 537 532 c 2
 424 0 l 1
 364 0 l 1
 259 238 l 1
 56 0 l 1
 -5 0 l 1
 101 502 l 2
 110 544 150 602 223 602 c 0
 271 602 302 566 302 524 c 0
191 451 m 256
 217 451 254 472 254 513 c 0
 254 527 246 554 214 554 c 256
 181 554 149 522 149 494 c 0
 149 479 158 451 191 451 c 256
EndSplineSet
Validated: 1
EndChar

StartChar: uni0E1D
Encoding: 3613 3613 242
Width: 573
VWidth: 1504
Flags: W
HStem: 0 21G<-5 73.0588 355.176 428.222> 403 48<154.038 237.018> 554 48<166.779 248.948>
VStem: 254 48<467.754 550.226>
LayerCount: 2
Fore
SplineSet
302 524 m 0
 302 480 269 403 179 403 c 0
 165 403 151 407 137 414 c 1
 66 81 l 1
 250 295 l 1
 290 295 l 1
 387 81 l 1
 534 778 l 2
 542 816 557 846 578 868 c 1
 620 841 l 1
 606 829 594 801 584 758 c 2
 424 0 l 1
 364 0 l 1
 259 238 l 1
 56 0 l 1
 -5 0 l 1
 101 502 l 2
 110 544 150 602 223 602 c 0
 271 602 302 566 302 524 c 0
191 451 m 256
 217 451 254 472 254 513 c 0
 254 527 246 554 214 554 c 256
 181 554 149 522 149 494 c 0
 149 479 158 451 191 451 c 256
EndSplineSet
Validated: 1
EndChar

StartChar: uni0E1E
Encoding: 3614 3614 243
Width: 672
VWidth: 1504
Flags: W
HStem: 0 21G<105 180.693 455.736 527.248> 403 48<118.218 192.475> 554 48<131.242 213.653> 570 20G<404.227 466.259>
VStem: 64 49<456.227 535.634> 218 50<467.141 549.526>
LayerCount: 2
Fore
SplineSet
155 451 m 256xec
 181 451 218 472 218 513 c 0
 218 527 210 554 177 554 c 256
 143 554 113 521 113 494 c 0
 113 479 122 451 155 451 c 256xec
188 602 m 256
 237 602 268 567 268 524 c 0
 268 517 267 510 265 502 c 2
 199 188 l 2
 194 163 183 128 168 83 c 1
 220 193 l 1
 414 590 l 1
 465 590 l 1xdc
 490 193 l 2
 492 152 493 116 493 83 c 1
 498 128 503 163 508 188 c 2
 587 552 l 2
 595 590 609 620 630 642 c 1
 672 615 l 1
 658 603 646 575 636 532 c 2
 523 0 l 1
 457 0 l 1
 424 522 l 1
 171 0 l 1
 105 0 l 1
 193 414 l 1
 178 407 161 403 144 403 c 0
 95 403 64 441 64 484 c 0
 64 543 125 602 188 602 c 256
EndSplineSet
Validated: 1
EndChar

StartChar: uni0E1F
Encoding: 3615 3615 244
Width: 672
VWidth: 1504
Flags: W
HStem: 0 21G<105 180.693 455.736 527.222> 403 48<118.218 192.475> 554 48<131.242 213.653> 570 20G<404.227 466.259>
VStem: 64 49<456.227 535.634> 218 50<467.141 549.526>
LayerCount: 2
Fore
SplineSet
188 602 m 256xec
 237 602 268 567 268 524 c 0
 268 517 267 510 265 502 c 2
 199 188 l 2
 194 163 183 128 168 83 c 1
 220 193 l 1
 414 590 l 1
 465 590 l 1xdc
 490 193 l 2
 492 152 493 116 493 83 c 1
 498 128 503 163 508 188 c 2
 633 779 l 2
 641 816 656 846 677 868 c 1
 719 841 l 1
 705 829 693 801 683 758 c 2
 523 0 l 1
 457 0 l 1
 424 522 l 1
 171 0 l 1
 105 0 l 1
 193 414 l 1
 178 407 161 403 144 403 c 0
 95 403 64 441 64 484 c 0
 64 543 125 602 188 602 c 256xec
155 451 m 256
 181 451 218 472 218 513 c 0
 218 527 210 554 177 554 c 256xec
 143 554 113 521 113 494 c 0
 113 479 122 451 155 451 c 256
EndSplineSet
Validated: 1
EndChar

StartChar: uni0E20
Encoding: 3616 3616 245
Width: 639
VWidth: 1504
Flags: W
HStem: -12 48<40.5354 123.083> 137 48<52.8861 135.077> 554 48<299.752 470.903>
VStem: -12 48<40.5173 119.755> 139 55<54.7621 132.587> 523 57<366.253 502.438>
LayerCount: 2
Fore
SplineSet
77 36 m 256
 110 36 139 65 139 98 c 0
 139 121 121 137 98 137 c 256
 64 137 36 106 36 74 c 0
 36 51 55 36 77 36 c 256
402 602 m 0
 537 602 580 520 580 448 c 0
 580 432 579 415 575 397 c 2
 501 50 l 2
 489 3 465 -33 429 -57 c 1
 387 -30 l 1
 421 -4 442 29 451 69 c 2
 519 391 l 2
 522 406 523 419 523 432 c 0
 523 507 472 554 390 554 c 0
 314 554 236 505 203 450 c 1
 255 445 291 423 311 384 c 1
 253 365 218 329 206 274 c 0
 198 235 194 194 194 153 c 0
 194 63 153 -12 66 -12 c 0
 19 -12 -12 22 -12 63 c 0
 -12 131 48 185 108 185 c 0
 119 185 131 182 143 177 c 1
 149 277 154 343 239 391 c 1
 214 403 189 409 162 409 c 0
 149 409 140 409 134 408 c 1
 168 522 285 602 402 602 c 0
EndSplineSet
Validated: 1
EndChar

StartChar: uni0E21
Encoding: 3617 3617 246
Width: 601
VWidth: 1504
Flags: W
HStem: -12 50<41.8964 129.171> 0 21G<361 457.248> 149 48<57.3732 144.225> 403 48<118.218 192.475> 554 48<131.242 213.653>
VStem: -13 49<44.7452 127.946> 64 49<456.227 535.634> 150 49<58.8438 118.715 193 201.621> 218 50<466.539 549.526>
LayerCount: 2
Fore
SplineSet
81 38 m 256xbf80
 118 38 150 73 150 104 c 0
 150 120 141 149 105 149 c 256
 70 149 36 117 36 80 c 0
 36 59 54 38 81 38 c 256xbf80
155 451 m 256
 181 451 218 472 218 513 c 0
 218 527 210 554 177 554 c 256
 143 554 113 521 113 494 c 0
 113 479 122 451 155 451 c 256
188 602 m 256
 237 602 268 567 268 524 c 0
 268 517 267 510 265 502 c 2
 197 177 l 1
 288 142 359 102 409 56 c 1
 516 552 l 2
 524 590 539 620 560 642 c 1
 602 615 l 1
 588 603 576 575 566 532 c 2
 453 0 l 1
 394 0 l 1x7f80
 328 60 263 100 199 119 c 1
 199 112 l 2
 199 51 141 -12 71 -12 c 256
 7 -12 -13 35 -13 69 c 0
 -13 128 43 197 114 197 c 0
 125 197 136 196 146 193 c 1
 193 414 l 1
 178 407 161 403 144 403 c 0
 95 403 64 441 64 484 c 0
 64 543 125 602 188 602 c 256
EndSplineSet
Validated: 1
EndChar

StartChar: uni0E22
Encoding: 3618 3618 247
Width: 564
VWidth: 1504
Flags: W
HStem: -12 50<119.177 329.701> 295 51<161.935 289> 432 37<188.771 265.923> 564 38<202.52 278.895>
VStem: 31 57<67.3179 217.311> 92 48<367.971 479.13> 283 39<484.239 559.181>
LayerCount: 2
Fore
SplineSet
224 469 m 256
 262 469 283 500 283 529 c 0
 283 550 267 564 244 564 c 256
 207 564 185 532 185 503 c 0
 185 482 202 469 224 469 c 256
140 430 m 0
 140 399 155 346 214 346 c 2
 299 346 l 1
 289 295 l 1
 202 295 l 2
 152 295 115 256 105 208 c 2
 90 138 l 2
 89 132 88 127 88 122 c 0
 88 66 128 38 220 38 c 0
 319 38 376 71 390 138 c 2
 478 552 l 2
 486 590 501 620 522 642 c 1
 564 615 l 1
 550 603 538 575 528 532 c 2
 442 134 l 2
 422 37 344 -12 209 -12 c 0
 90 -12 31 25 31 99 c 0
 31 110 32 122 35 134 c 2
 51 211 l 2
 62 259 105 305 146 320 c 1
 110 338 92 370 92 417 c 0
 92 512 147 602 254 602 c 0
 309 602 322 561 322 537 c 0
 322 493 291 432 218 432 c 0
 181 432 158 448 150 481 c 1
 146 471 140 450 140 430 c 0
EndSplineSet
Validated: 1
EndChar

StartChar: uni0E23
Encoding: 3619 3619 248
Width: 484
VWidth: 1504
Flags: W
HStem: -12 48<189.481 270.968> 138 49<201.865 284.063> 520 50<310.121 446.211> 554 48<173.521 329.735>
VStem: 134 50<41.466 120.419> 334 56<302.4 370.89>
LayerCount: 2
Fore
SplineSet
400 520 m 0xec
 348 520 279 554 227 554 c 0
 191 554 145 516 137 483 c 1
 198 472 258 455 316 433 c 0
 364 414 390 389 390 356 c 0
 390 350 389 344 388 338 c 2
 335 87 l 2
 326 48 287 -12 215 -12 c 0
 163 -12 134 27 134 65 c 0
 134 126 193 187 257 187 c 0
 274 187 288 183 299 176 c 1
 334 334 l 1
 334 339 l 2
 334 378 245 413 66 442 c 1
 95 549 156 602 247 602 c 0xdc
 297 602 368 570 412 570 c 0
 433 570 454 594 475 642 c 1
 513 630 l 1
 489 557 451 520 400 520 c 0xec
226 36 m 256
 259 36 288 66 288 99 c 0
 288 122 270 138 247 138 c 256
 214 138 184 106 184 77 c 0
 184 54 201 36 226 36 c 256
EndSplineSet
Validated: 1
EndChar

StartChar: uni0E24
Encoding: 3620 3620 249
Width: 568
VWidth: 1504
Flags: W
HStem: -12 48<87.0797 169.024> 137 51<107.956 182.085> 554 48<231.924 404.531>
VStem: 30 53<40.215 119.983> 186 50<52.1032 132.404> 453 56<367.303 507.262>
LayerCount: 2
Fore
SplineSet
332 602 m 0
 439 602 509 550 509 447 c 0
 509 432 507 416 504 399 c 2
 367 -244 l 2
 355 -291 331 -326 295 -350 c 1
 253 -323 l 1
 287 -297 308 -264 317 -224 c 2
 448 393 l 2
 452 409 453 424 453 437 c 0
 453 515 399 554 319 554 c 0
 245 554 167 505 134 450 c 1
 194 445 229 423 239 385 c 1
 192 376 139 328 126 275 c 2
 107 177 l 1
 124 184 139 188 153 188 c 0
 205 188 236 151 236 110 c 0
 236 43 175 -12 111 -12 c 256
 62 -12 30 20 30 64 c 0
 30 71 31 79 33 87 c 2
 72 274 l 2
 84 328 118 368 174 393 c 1
 149 404 111 409 60 409 c 1
 98 515 212 602 332 602 c 0
123 36 m 256
 155 36 186 64 186 98 c 0
 186 120 169 137 144 137 c 256
 109 137 83 103 83 75 c 0
 83 62 91 36 123 36 c 256
EndSplineSet
Validated: 1
EndChar

StartChar: uni0E25
Encoding: 3621 3621 250
Width: 573
VWidth: 1504
Flags: W
HStem: -12 48<79.7311 165.561> 137 50<98.6793 177.081> 554 48<212.146 405.618>
VStem: 26 51<39.5275 121.196> 181 51<51.4114 133.209>
LayerCount: 2
Fore
SplineSet
60 445 m 1
 94 533 201 602 328 602 c 0
 402 602 520 573 520 457 c 1
 438 63 l 2
 430 26 415 -4 394 -27 c 1
 352 0 l 1
 372 17 399 80 399 150 c 0
 395 254 345 341 283 387 c 1
 265 387 233 367 186 328 c 0
 140 288 111 237 98 176 c 1
 113 183 130 187 150 187 c 0
 201 187 232 151 232 108 c 0
 232 44 167 -12 108 -12 c 0
 53 -12 26 22 26 89 c 0
 27 165 55 240 110 314 c 0
 165 387 228 428 299 436 c 1
 369 391 403 323 414 290 c 0
 419 274 423 251 427 220 c 1
 433 296 l 1
 465 459 l 1
 465 516 378 554 320 554 c 0
 225 554 142 507 113 445 c 1
 60 445 l 1
117 36 m 0
 153 36 181 64 181 96 c 0
 181 123 167 137 138 137 c 0
 103 137 77 105 77 74 c 0
 77 49 90 36 117 36 c 0
EndSplineSet
Validated: 1
EndChar

StartChar: uni0E26
Encoding: 3622 3622 251
Width: 639
VWidth: 1504
Flags: W
HStem: -12 48<40.5354 122.437> 137 48<52.8861 135.077> 554 48<299.752 470.903>
VStem: -12 48<40.5173 119.755> 139 55<54.625 132.587> 523 57<365.401 502.438>
LayerCount: 2
Fore
SplineSet
402 602 m 0
 537 602 580 520 580 448 c 0
 580 432 579 415 575 397 c 2
 438 -244 l 2
 426 -291 402 -326 366 -350 c 1
 323 -323 l 1
 358 -297 379 -264 388 -224 c 2
 519 391 l 2
 522 406 523 419 523 432 c 0
 523 507 472 554 390 554 c 0
 314 554 236 505 203 450 c 1
 255 445 291 423 311 384 c 1
 253 365 218 329 206 274 c 0
 198 235 194 194 194 153 c 0
 194 17 106 -12 66 -12 c 256
 19 -12 -12 22 -12 63 c 0
 -12 131 48 185 108 185 c 0
 119 185 131 182 143 177 c 1
 149 277 154 343 239 391 c 1
 214 403 189 409 162 409 c 0
 149 409 140 409 134 408 c 1
 168 522 285 602 402 602 c 0
77 36 m 256
 110 36 139 65 139 98 c 0
 139 121 121 137 98 137 c 256
 64 137 36 106 36 74 c 0
 36 51 55 36 77 36 c 256
EndSplineSet
Validated: 1
EndChar

StartChar: uni0E27
Encoding: 3623 3623 252
Width: 503
VWidth: 1504
Flags: W
HStem: -12 48<226.656 308.216> 138 49<239.439 321.385> 554 48<177.927 360.016>
VStem: 172 50<40.2894 121.14> 394 56<397.909 520.099>
LayerCount: 2
Fore
SplineSet
283 602 m 0
 354 602 450 575 450 468 c 0
 450 456 448 443 445 429 c 2
 373 87 l 2
 361 35 308 -12 253 -12 c 256
 204 -12 172 23 172 68 c 0
 172 118 224 187 295 187 c 0
 312 187 326 183 337 176 c 1
 390 420 l 2
 393 436 394 451 394 464 c 0
 394 524 350 554 269 554 c 0
 191 554 134 518 99 445 c 1
 44 445 l 1
 89 550 168 602 283 602 c 0
263 36 m 256
 296 36 326 68 326 97 c 0
 326 120 309 138 284 138 c 256
 251 138 222 108 222 75 c 0
 222 52 240 36 263 36 c 256
EndSplineSet
Validated: 1
EndChar

StartChar: uni0E28
Encoding: 3624 3624 253
Width: 591
VWidth: 1504
Flags: W
HStem: 0 21G<33 91.0816> 280 43<256.903 335.252> 417 42<269.435 346.048> 554 48<240.771 419.45> 605 37<571.44 608.108>
VStem: 61 56<235 428.878> 350 44<336.954 413.406> 478 55<377.675 501.791>
LayerCount: 2
Fore
SplineSet
292 323 m 256
 322 323 350 351 350 380 c 0
 350 393 342 417 311 417 c 256
 277 417 254 385 254 358 c 0
 254 344 264 323 292 323 c 256
61 324 m 0
 61 503 207 602 344 602 c 0
 395 602 437 591 471 569 c 1
 505 606 549 630 603 642 c 1
 630 605 l 1
 577 594 537 575 504 542 c 1
 524 519 533 491 533 456 c 0
 533 442 532 426 528 409 c 2
 453 51 l 2
 441 4 417 -32 381 -56 c 1
 338 -29 l 1
 373 -2 394 31 403 71 c 2
 474 405 l 2
 476 417 478 428 478 439 c 0
 478 515 406 554 331 554 c 0
 277 554 117 519 117 321 c 0
 117 304 120 252 120 235 c 1
 154 325 223 459 323 459 c 0
 367 459 394 433 394 394 c 0
 394 336 343 280 283 280 c 0
 257 280 236 292 221 316 c 1
 188 277 126 184 107 98 c 2
 87 0 l 1
 33 0 l 1
 62 138 l 2
 65 154 67 175 67 199 c 0
 67 249 61 274 61 324 c 0
EndSplineSet
Validated: 1
EndChar

StartChar: uni0E29
Encoding: 3625 3625 254
Width: 658
VWidth: 1504
Flags: W
HStem: -12 50<210.939 428.096> 232 42<383.719 506.206> 403 48<118.218 192.475> 403 39<339.58 407.71> 554 48<131.242 213.653>
VStem: 64 49<456.227 535.634> 128 57<62.7346 158.8> 218 50<466.969 549.526> 284 42<322.539 391.418> 412 40<333.169 398.883>
LayerCount: 2
Fore
SplineSet
452 377 m 0xdfc0
 452 340 428 303 382 284 c 1
 392 277 411 274 439 274 c 0
 466 274 492 279 516 289 c 1
 573 552 l 2
 581 590 596 620 617 642 c 1
 659 615 l 1
 645 603 633 575 623 532 c 2
 578 319 l 1
 605 337 629 360 650 388 c 1
 677 360 l 1
 658 333 621 300 566 263 c 1
 537 128 l 2
 517 35 440 -12 305 -12 c 0
 186 -12 128 24 128 97 c 0
 128 107 130 117 132 128 c 2
 193 414 l 1
 178 407 161 403 144 403 c 0xefc0
 95 403 64 441 64 484 c 0
 64 543 125 602 188 602 c 256
 237 602 268 567 268 524 c 0
 268 517 267 510 265 502 c 2
 187 132 l 2
 185 122 185 113 185 105 c 0
 185 60 231 38 314 38 c 0
 413 38 470 69 483 132 c 2
 507 242 l 1
 475 235 449 232 430 232 c 0
 345 232 284 279 284 339 c 0
 284 402 337 442 385 442 c 0
 428 442 452 414 452 377 c 0xdfc0
360 320 m 256
 386 320 412 346 412 368 c 0
 412 387 397 403 376 403 c 256xdfc0
 348 403 326 375 326 350 c 0
 326 333 342 320 360 320 c 256
155 451 m 256xefc0
 181 451 218 472 218 513 c 0
 218 527 210 554 177 554 c 256
 143 554 113 521 113 494 c 0
 113 479 122 451 155 451 c 256xefc0
EndSplineSet
Validated: 1
EndChar

StartChar: uni0E2A
Encoding: 3626 3626 255
Width: 573
VWidth: 1504
Flags: W
HStem: -12 48<79.7311 165.561> 137 50<98.6793 177.081> 554 48<212.146 405.464> 605 37<573.012 608.108>
VStem: 26 51<39.5275 121.196> 181 51<51.4114 133.209> 465 54<423.344 505.731>
LayerCount: 2
Fore
SplineSet
60 445 m 1
 94 533 201 602 328 602 c 0
 382 602 428 589 465 563 c 1
 502 604 548 630 603 642 c 1
 630 605 l 1
 574 594 529 569 495 531 c 1
 511 511 519 487 519 459 c 0
 519 450 l 1
 438 63 l 2
 430 26 415 -4 394 -27 c 1
 352 0 l 1
 372 17 399 80 399 150 c 0
 395 254 345 341 283 387 c 1
 265 387 233 367 186 328 c 0
 140 288 111 237 98 176 c 1
 113 183 130 187 150 187 c 0
 201 187 232 151 232 108 c 0
 232 44 167 -12 108 -12 c 0
 53 -12 26 22 26 89 c 0
 27 165 55 240 110 314 c 0
 165 387 228 428 299 436 c 1
 369 391 403 323 414 290 c 0
 419 274 423 251 427 220 c 1
 433 296 l 1
 465 459 l 1
 465 516 378 554 320 554 c 0
 225 554 142 507 113 445 c 1
 60 445 l 1
117 36 m 0
 153 36 181 64 181 96 c 0
 181 123 167 137 138 137 c 0
 103 137 77 105 77 74 c 0
 77 49 90 36 117 36 c 0
EndSplineSet
Validated: 1
EndChar

StartChar: uni0E2B
Encoding: 3627 3627 256
Width: 642
VWidth: 1504
Flags: W
HStem: 0 21G<105 170.601> 394 57<476.014 510.001> 403 48<118.218 192.475> 554 48<131.242 213.653 489.16 571.45>
VStem: 64 49<456.227 535.634> 218 50<469.031 549.526> 424 47<455.708 535.552> 511 57<255.031 393.717> 576 51<466.868 549.333>
LayerCount: 2
Fore
SplineSet
627 524 m 0xbf80
 627 500 616 447 557 417 c 1
 564 407 568 393 568 375 c 0
 568 361 565 344 561 325 c 2
 504 51 l 2
 492 4 468 -32 432 -56 c 1
 390 -29 l 1
 424 -2 445 31 454 71 c 2
 507 325 l 2
 510 339 511 350 511 360 c 0
 511 383 503 394 486 394 c 0xdf80
 471 394 449 376 421 341 c 2
 155 0 l 1
 105 0 l 1
 193 414 l 1
 178 407 161 403 144 403 c 0
 95 403 64 441 64 484 c 0
 64 543 125 602 188 602 c 256
 237 602 268 567 268 524 c 0
 268 517 267 510 265 502 c 2
 196 176 l 2
 194 167 185 136 168 83 c 1
 385 373 l 2
 405 398 426 416 447 426 c 1
 432 440 424 459 424 481 c 0
 424 545 486 602 548 602 c 256
 596 602 627 566 627 524 c 0xbf80
155 451 m 256xbf80
 181 451 218 472 218 513 c 0
 218 527 210 554 177 554 c 256
 143 554 113 521 113 494 c 0
 113 479 122 451 155 451 c 256xbf80
513 451 m 256
 539 451 576 472 576 513 c 0
 576 527 568 554 535 554 c 256
 501 554 471 521 471 494 c 0
 471 479 480 451 513 451 c 256
EndSplineSet
Validated: 1
EndChar

StartChar: uni0E2C
Encoding: 3628 3628 257
Width: 682
VWidth: 1504
Flags: W
HStem: 0 21G<105 181.471 461.925 538.183> 403 48<118.218 192.475 492.863 566.29> 554 48<131.242 213.653 505.644 588.672> 605 37<691.8 733.108>
VStem: 64 49<456.227 535.634> 218 50<467.672 549.526> 439 49<455.457 537.228> 593 49<468.784 549.641>
LayerCount: 2
Fore
SplineSet
155 451 m 256
 181 451 218 472 218 513 c 0
 218 527 210 554 177 554 c 256
 143 554 113 521 113 494 c 0
 113 479 122 451 155 451 c 256
529 451 m 256
 562 451 593 478 593 514 c 0
 593 536 576 554 552 554 c 256
 522 554 488 527 488 493 c 0
 488 478 496 451 529 451 c 256
439 483 m 0
 439 543 499 602 563 602 c 0
 584 602 599 596 608 584 c 1
 633 611 673 630 728 642 c 1
 755 605 l 1
 699 594 660 576 638 552 c 1
 641 542 642 533 642 524 c 0
 642 516 641 509 639 502 c 2
 534 0 l 1
 468 0 l 1
 379 293 l 1
 167 0 l 1
 105 0 l 1
 193 414 l 1
 178 407 161 403 144 403 c 0
 95 403 64 441 64 484 c 0
 64 543 125 602 188 602 c 256
 237 602 268 567 268 524 c 0
 268 517 267 510 265 502 c 2
 190 147 l 2
 187 131 180 107 170 74 c 1
 209 138 l 1
 366 349 l 1
 417 349 l 1
 483 138 l 2
 485 131 490 110 498 74 c 1
 503 106 507 130 510 147 c 2
 567 414 l 1
 552 407 536 403 519 403 c 0
 469 403 439 440 439 483 c 0
EndSplineSet
Validated: 513
Substitution2: "Single Substitution lookup 42 subtable" uni0E2C.alt1
Substitution2: "Single Substitution lookup 42 subtable" uni0E2C.alt1
EndChar

StartChar: uni0E2D
Encoding: 3629 3629 258
Width: 582
VWidth: 1504
Flags: W
HStem: -12 50<142.471 349.042> 214 48<150.201 232.769> 364 48<163.801 245.936> 554 48<223.876 417.275>
VStem: 56 57<66.1798 158.116> 251 49<279.176 358.639> 471 56<397.552 507.309>
LayerCount: 2
Fore
SplineSet
187 262 m 256
 217 262 251 290 251 323 c 0
 251 346 234 364 209 364 c 256
 179 364 146 336 146 302 c 0
 146 281 160 262 187 262 c 256
338 602 m 0
 456 602 527 542 527 467 c 0
 527 455 526 442 523 429 c 2
 460 128 l 2
 438 35 361 -12 229 -12 c 256
 114 -12 56 23 56 94 c 0
 56 104 57 116 60 128 c 2
 99 313 l 2
 110 366 164 412 220 412 c 256
 269 412 300 374 300 331 c 0
 300 281 255 214 177 214 c 0
 160 214 146 217 134 224 c 1
 116 140 l 2
 114 132 113 124 113 116 c 0
 113 64 156 38 242 38 c 0
 339 38 394 72 408 140 c 2
 468 420 l 2
 470 430 471 439 471 448 c 0
 471 508 417 554 325 554 c 0
 233 554 147 503 122 445 c 1
 68 445 l 1
 106 535 206 602 338 602 c 0
EndSplineSet
Validated: 1
EndChar

StartChar: uni0E2E
Encoding: 3630 3630 259
Width: 559
VWidth: 1504
Flags: W
HStem: -12 50<117.717 324.888> 174 49<115.937 199.352> 325 48<129.336 211.418> 403 48<153.789 361.125> 557 46<194.165 404.823> 605 37<560.062 586.108>
VStem: 31 57<67.0225 162.824> 93 55<462.262 521.597> 216 50<240.897 320.246> 453 51<415.5 480.353>
LayerCount: 2
Fore
SplineSet
93 475 m 0
 93 568 227 603 323 603 c 0
 382 603 429 589 462 560 c 1
 489 600 528 627 581 642 c 1
 608 605 l 1
 555 591 515 564 489 525 c 1
 499 503 504 481 504 458 c 0
 504 448 503 437 501 426 c 2
 438 134 l 2
 418 37 341 -12 208 -12 c 0
 90 -12 31 25 31 99 c 0
 31 110 32 121 35 134 c 2
 65 274 l 2
 77 327 129 373 185 373 c 256
 234 373 266 337 266 296 c 0
 266 254 231 174 143 174 c 0
 126 174 112 178 101 185 c 1
 90 140 l 2
 89 134 88 129 88 124 c 0
 88 64 127 38 218 38 c 0
 315 38 371 72 385 141 c 2
 451 447 l 2
 452 452 453 456 453 460 c 0
 453 468 451 475 447 481 c 1
 400 429 331 403 242 403 c 0
 143 403 93 427 93 475 c 0
311 557 m 0
 232 557 148 529 148 487 c 0
 148 463 185 451 256 451 c 0
 331 451 387 475 424 522 c 1
 398 545 360 557 311 557 c 0
153 223 m 256
 184 223 216 251 216 286 c 0
 216 308 199 325 174 325 c 256
 141 325 112 295 112 262 c 0
 112 239 130 223 153 223 c 256
EndSplineSet
Validated: 1
EndChar

StartChar: uni0E2F
Encoding: 3631 3631 260
Width: 588
VWidth: 1504
Flags: W
HStem: 394 69<174.818 291.644> 552 50<185.728 262.538> 570 20G<402 495.5>
VStem: 121 52<465.715 538.701> 265 53<474.466 549.248> 488 57<464.214 537.515>
LayerCount: 2
Fore
SplineSet
241 602 m 256xdc
 289 602 318 566 318 524 c 0
 318 493 303 467 283 447 c 1
 342 466 387 513 417 590 c 1
 471 590 l 2xbc
 520 590 545 569 545 526 c 0
 545 517 544 507 542 496 c 2
 447 51 l 2
 435 4 411 -32 375 -56 c 1
 332 -29 l 1
 367 -2 388 31 397 71 c 2
 486 492 l 2
 487 498 488 503 488 507 c 0
 488 529 475 540 450 542 c 1
 394 443 325 394 244 394 c 0
 140 394 121 447 121 482 c 0
 121 552 185 602 241 602 c 256xdc
209 463 m 256
 248 463 265 496 265 519 c 0
 265 530 258 552 229 552 c 256xdc
 195 552 173 521 173 496 c 0
 173 476 187 463 209 463 c 256
EndSplineSet
Validated: 1
EndChar

StartChar: uni0E30
Encoding: 3632 3632 261
Width: 536
VWidth: 1504
Flags: W
HStem: 23 46<148.187 270.837> 203 48<72.7862 153.001> 341 47<216.187 338.852> 522 48<140.116 221.001>
VStem: 11 48<111.825 189.138> 79 47<431.273 508.233> 156 53<121.215 200.081> 224 53<440.215 519.081>
LayerCount: 2
Fore
SplineSet
250 388 m 0
 379 393 438 490 459 575 c 1
 513 575 l 1
 482 452 387 341 250 341 c 0
 163 341 79 372 79 450 c 0
 79 518 141 570 199 570 c 256
 249 570 277 532 277 495 c 0
 277 475 268 426 214 394 c 1
 229 390 241 388 250 388 c 0
165 427 m 256
 201 427 224 456 224 485 c 0
 224 500 216 522 185 522 c 256
 148 522 126 490 126 461 c 0
 126 440 143 427 165 427 c 256
182 69 m 0
 311 74 369 168 391 256 c 1
 445 256 l 1
 415 132 319 23 182 23 c 0
 95 23 11 53 11 130 c 0
 11 199 74 251 131 251 c 256
 181 251 209 213 209 176 c 0
 209 156 201 107 146 75 c 1
 161 71 173 69 182 69 c 0
98 108 m 256
 133 108 156 137 156 166 c 0
 156 181 148 203 117 203 c 256
 81 203 59 171 59 144 c 0
 59 130 67 108 98 108 c 256
EndSplineSet
Validated: 1
EndChar

StartChar: uni0E31
Encoding: 3633 3633 262
Width: 0
VWidth: 1504
Flags: W
HStem: 698 47<-109.604 25.8636> 881 44<-179.432 -99.3509>
VStem: -244 49<788.37 864.566> -95 49<798.591 877.774> 149 57<876.416 931>
LayerCount: 2
Fore
SplineSet
-56 745 m 0
 46 746 122 830 149 931 c 1
 206 931 l 1
 176 791 55 698 -77 698 c 0
 -163 698 -244 728 -244 806 c 0
 -244 869 -186 925 -125 925 c 256
 -78 925 -46 890 -46 848 c 0
 -46 808 -70 773 -111 749 c 1
 -97 746 -79 745 -56 745 c 0
-155 784 m 256
 -122 784 -95 813 -95 843 c 0
 -95 856 -103 881 -134 881 c 256
 -162 881 -195 856 -195 821 c 0
 -195 799 -176 784 -155 784 c 256
EndSplineSet
Validated: 1
Substitution2: "Single Substitution lookup 42 subtable" uni0E31.alt1
Substitution2: "Single Substitution lookup 42 subtable" uni0E31.alt1
EndChar

StartChar: uni0E32
Encoding: 3634 3634 263
Width: 475
VWidth: 1504
Flags: W
HStem: 554 48<191.685 340.145>
VStem: 65 55<442 483.873> 369 56<417.646 524.797>
LayerCount: 2
Fore
SplineSet
275 602 m 0
 401 602 425 533 425 488 c 0
 425 475 424 462 421 448 c 2
 337 51 l 2
 325 4 301 -32 265 -56 c 1
 223 -29 l 1
 257 -2 278 31 287 71 c 2
 367 450 l 2
 368 458 369 465 369 472 c 0
 369 505 350 554 263 554 c 0
 177 554 130 477 120 442 c 1
 65 442 l 1
 82 515 162 602 275 602 c 0
EndSplineSet
Validated: 1
EndChar

StartChar: uni0E34
Encoding: 3636 3636 265
Width: 0
VWidth: 1504
Flags: W
HStem: 737 21G<-414.5 -404> 746 42<-353.736 -127.493> 863 44<-291.778 -112.115>
LayerCount: 2
Fore
SplineSet
-426 737 m 1xa0
 -403 836 -300 907 -188 907 c 0
 -32 907 5 818 5 684 c 1
 -100 725 -204 746 -305 746 c 0x60
 -342 746 -382 743 -426 737 c 1xa0
-41 742 m 1
 -67 823 -119 863 -196 863 c 0
 -266 863 -319 837 -355 784 c 1
 -333 787 -309 788 -283 788 c 0
 -186 788 -106 773 -41 742 c 1
EndSplineSet
Validated: 1
Substitution2: "Single Substitution lookup 42 subtable" uni0E34.alt1
Substitution2: "Single Substitution lookup 42 subtable" uni0E34.alt1
EndChar

StartChar: uni0E35
Encoding: 3637 3637 266
Width: 0
VWidth: 1504
Flags: W
HStem: 737 21G<-414.5 -404> 746 42<-353.736 -127.493> 863 44<-291.778 -111.703>
VStem: 8 49<940.032 973>
LayerCount: 2
Fore
SplineSet
-426 737 m 1xb0
 -403 836 -300 907 -188 907 c 0
 -108 907 -53 880 -23 827 c 1
 8 973 l 1
 57 973 l 1
 5 725 l 1
 5 718 6 712 6 705 c 0
 6 698 5 691 5 684 c 1
 -100 725 -204 746 -305 746 c 0x70
 -342 746 -382 743 -426 737 c 1xb0
-41 742 m 1
 -67 823 -119 863 -196 863 c 0
 -266 863 -319 837 -355 784 c 1
 -333 787 -309 788 -283 788 c 0
 -186 788 -106 773 -41 742 c 1
EndSplineSet
Validated: 1
Substitution2: "Single Substitution lookup 42 subtable" uni0E35.alt1
Substitution2: "Single Substitution lookup 42 subtable" uni0E35.alt1
EndChar

StartChar: uni0E36
Encoding: 3638 3638 267
Width: 0
VWidth: 1504
Flags: W
HStem: 737 21G<-414.5 -404> 746 42<-353.736 -127.493> 818 35<-16.7392 44.3969> 863 44<-291.778 -112.276> 931 35<-11.0433 53.9366>
VStem: -58 35<868.166 919.038> 57 35<865.614 927.557>
LayerCount: 2
Fore
SplineSet
92 907 m 0xbe
 92 864 48 818 0 818 c 0
 -4 818 -10 819 -17 821 c 1
 -2 790 5 750 5 702 c 0
 5 684 l 1
 -100 725 -204 746 -305 746 c 0x7e
 -342 746 -382 743 -426 737 c 1
 -403 836 -300 907 -188 907 c 0
 -134 907 -90 894 -57 868 c 1
 -58 871 -58 874 -58 878 c 0
 -58 919 -17 966 32 966 c 256
 71 966 92 936 92 907 c 0xbe
-41 742 m 1
 -67 823 -119 863 -196 863 c 0
 -266 863 -319 837 -355 784 c 1
 -333 787 -309 788 -283 788 c 0
 -186 788 -106 773 -41 742 c 1
8 853 m 0
 35 853 57 878 57 900 c 0
 57 919 44 931 24 931 c 256
 -8 931 -23 901 -23 881 c 0
 -23 864 -9 853 8 853 c 0
EndSplineSet
Validated: 1
Substitution2: "Single Substitution lookup 42 subtable" uni0E36.alt1
Substitution2: "Single Substitution lookup 42 subtable" uni0E36.alt1
EndChar

StartChar: uni0E37
Encoding: 3639 3639 268
Width: 0
VWidth: 1504
Flags: W
HStem: 737 21G<-414.5 -404> 746 42<-353.736 -127.493> 863 44<-291.778 -124.782>
VStem: 8 49<940.032 973>
LayerCount: 2
Fore
SplineSet
-41 742 m 1x70
 -67 823 -119 863 -196 863 c 0
 -266 863 -319 837 -355 784 c 1
 -333 787 -309 788 -283 788 c 0
 -186 788 -106 773 -41 742 c 1x70
-426 737 m 1xb0
 -403 836 -300 907 -188 907 c 0
 -165 907 -144 905 -126 901 c 1
 -111 973 l 1
 -62 973 l 1
 -81 883 l 1
 -55 870 -36 851 -23 827 c 1
 8 973 l 1
 57 973 l 1
 5 725 l 1
 5 718 6 712 6 705 c 0
 6 698 5 691 5 684 c 1
 -100 725 -204 746 -305 746 c 0x70
 -342 746 -382 743 -426 737 c 1xb0
EndSplineSet
Validated: 1
Substitution2: "Single Substitution lookup 42 subtable" uni0E37.alt1
Substitution2: "Single Substitution lookup 42 subtable" uni0E37.alt1
EndChar

StartChar: uni0E38
Encoding: 3640 3640 269
Width: 0
VWidth: 1504
Flags: W
HStem: -247 42<-300.671 -253.437> -126 39<-292.057 -224.924>
VStem: -345 42<-203.054 -135.864> -223 41<-194.89 -127.719>
LayerCount: 2
Fore
SplineSet
-271 -205 m 256
 -242 -205 -223 -179 -223 -156 c 0
 -223 -138 -237 -126 -254 -126 c 256
 -282 -126 -303 -151 -303 -173 c 0
 -303 -184 -296 -205 -271 -205 c 256
-247 -87 m 256
 -208 -87 -182 -115 -182 -149 c 0
 -182 -155 -182 -161 -184 -167 c 2
 -212 -301 l 2
 -220 -339 -235 -369 -256 -391 c 1
 -298 -364 l 1
 -282 -349 -270 -323 -262 -287 c 2
 -253 -242 l 1
 -261 -245 -270 -247 -280 -247 c 0
 -319 -247 -345 -219 -345 -184 c 0
 -345 -140 -302 -87 -247 -87 c 256
EndSplineSet
Validated: 1
Substitution2: "Single Substitution lookup 41 subtable" a
Substitution2: "Single Substitution lookup 42 subtable" uni0E38.alt1
Substitution2: "Single Substitution lookup 41 subtable" a
Substitution2: "Single Substitution lookup 42 subtable" uni0E38.alt1
EndChar

StartChar: uni0E39
Encoding: 3641 3641 270
Width: 0
VWidth: 1504
Flags: W
HStem: -384 47<-369.932 -271.518> -247 42<-458.671 -411.437> -126 39<-450.057 -382.87>
VStem: -503 42<-203.054 -135.864> -424 53<-333.698 -242.867> -381 42<-194.991 -127.958>
LayerCount: 2
Fore
SplineSet
-429 -205 m 256xf4
 -400 -205 -381 -179 -381 -156 c 0
 -381 -138 -395 -126 -412 -126 c 256
 -440 -126 -461 -151 -461 -173 c 0
 -461 -184 -454 -205 -429 -205 c 256xf4
-405 -87 m 256
 -366 -87 -339 -115 -339 -150 c 0xf4
 -339 -155 -340 -161 -341 -167 c 2
 -370 -302 l 2
 -371 -305 -371 -308 -371 -311 c 0
 -371 -328 -356 -337 -325 -337 c 0
 -291 -337 -271 -325 -266 -302 c 2
 -239 -171 l 2
 -231 -133 -217 -103 -196 -81 c 1
 -153 -108 l 1
 -167 -120 -179 -148 -190 -191 c 2
 -209 -290 l 2
 -223 -353 -266 -384 -338 -384 c 0
 -395 -384 -424 -363 -424 -322 c 0xf8
 -424 -313 -423 -304 -421 -293 c 2
 -411 -242 l 1
 -419 -245 -428 -247 -438 -247 c 0
 -477 -247 -503 -219 -503 -184 c 0
 -503 -140 -460 -87 -405 -87 c 256
EndSplineSet
Validated: 1
Substitution2: "Single Substitution lookup 41 subtable" b
Substitution2: "Single Substitution lookup 42 subtable" uni0E39.alt1
Substitution2: "Single Substitution lookup 41 subtable" b
Substitution2: "Single Substitution lookup 42 subtable" uni0E39.alt1
EndChar

StartChar: uni0E3A
Encoding: 3642 3642 271
Width: 0
VWidth: 1504
Flags: W
HStem: -185 80<-261.072 -198.459>
VStem: -271 82<-175.297 -114.125>
LayerCount: 2
Fore
SplineSet
-189 -136 m 0
 -189 -158 -210 -185 -238 -185 c 256
 -255 -185 -271 -173 -271 -155 c 0
 -271 -132 -251 -105 -221 -105 c 256
 -202 -105 -189 -119 -189 -136 c 0
EndSplineSet
Validated: 1
Substitution2: "Single Substitution lookup 41 subtable" c
Substitution2: "Single Substitution lookup 42 subtable" uni0E3A.alt1
Substitution2: "Single Substitution lookup 41 subtable" c
Substitution2: "Single Substitution lookup 42 subtable" uni0E3A.alt1
EndChar

StartChar: uni0E3F
Encoding: 3647 3647 272
Width: 618
VWidth: 1504
Flags: W
HStem: 33 48<124.855 202 253 317.852> 352 50<190 381.168> 635 48<239.589 340 390 425.407>
VStem: 434 55<174.151 306.59> 471 56<476.372 595.377>
LayerCount: 2
Fore
SplineSet
397 378 m 1xe8
 444 360 489 313 489 251 c 0xf0
 489 217 472 65 253 38 c 1
 226 -89 l 1
 176 -89 l 1
 202 33 l 1
 177 33 l 2
 140 33 100 38 57 47 c 1
 188 663 l 1
 247 676 294 683 329 683 c 2
 340 683 l 1
 363 787 l 1
 412 787 l 1
 390 680 l 1
 480 667 527 628 527 562 c 0
 527 502 502 420 397 378 c 1xe8
200 81 m 0
 337 81 434 147 434 250 c 0
 434 291 406 352 268 352 c 2
 179 352 l 1
 123 89 l 1
 141 84 167 81 200 81 c 0
295 402 m 2
 415 402 471 481 471 543 c 0xe8
 471 611 394 635 319 635 c 0
 299 635 272 631 238 624 c 1
 190 402 l 1
 295 402 l 2
EndSplineSet
Validated: 1
EndChar

StartChar: uni0E40
Encoding: 3648 3648 273
Width: 305
VWidth: 1504
Flags: W
HStem: -9 51<88.4208 171.516> 144 50<107.711 184.65>
VStem: 32 52<46.982 124.347> 189 51<59.384 138.657>
LayerCount: 2
Fore
SplineSet
125 42 m 256
 156 42 189 70 189 105 c 0
 189 127 172 144 147 144 c 256
 114 144 84 114 84 81 c 0
 84 60 101 42 125 42 c 256
240 113 m 0
 240 56 183 -9 114 -9 c 0
 66 -9 32 22 32 68 c 0
 32 76 33 84 35 93 c 2
 132 552 l 2
 140 590 155 620 176 642 c 1
 218 615 l 1
 204 603 193 578 184 539 c 2
 107 182 l 1
 123 190 140 194 158 194 c 0
 208 194 240 160 240 113 c 0
EndSplineSet
Validated: 1
EndChar

StartChar: uni0E41
Encoding: 3649 3649 274
Width: 567
VWidth: 1504
Flags: W
HStem: -9 51<88.4208 171.516 349.104 431.47> 144 50<107.711 184.65 367.614 444.576>
VStem: 32 52<46.982 124.347> 189 51<59.384 138.657> 292 52<46.8549 124.183> 449 51<60.3625 139.108>
LayerCount: 2
Fore
SplineSet
125 42 m 256
 156 42 189 70 189 105 c 0
 189 127 172 144 147 144 c 256
 114 144 84 114 84 81 c 0
 84 60 101 42 125 42 c 256
240 113 m 0
 240 56 183 -9 114 -9 c 0
 66 -9 32 22 32 68 c 0
 32 76 33 84 35 93 c 2
 132 552 l 2
 140 590 155 620 176 642 c 1
 218 615 l 1
 204 603 193 578 184 539 c 2
 107 182 l 1
 123 190 140 194 158 194 c 0
 208 194 240 160 240 113 c 0
385 42 m 256
 416 42 449 70 449 105 c 0
 449 128 431 144 408 144 c 256
 376 144 344 116 344 81 c 0
 344 60 361 42 385 42 c 256
500 115 m 0
 500 53 442 -9 375 -9 c 0
 309 -9 292 40 292 68 c 0
 292 76 293 84 295 93 c 2
 393 552 l 2
 401 590 415 620 436 642 c 1
 478 615 l 1
 464 603 453 578 444 539 c 2
 367 182 l 1
 383 190 400 194 418 194 c 0
 468 194 500 159 500 115 c 0
EndSplineSet
Validated: 1
EndChar

StartChar: uni0E42
Encoding: 3650 3650 275
Width: 356
VWidth: 1504
Flags: W
HStem: -12 51<138.836 221.092> 141 50<156.724 233.002> 883 50<298.714 397.075> 933 46<146.227 276.398>
VStem: 81 53<42.674 121.551> 218 54<627.5 774.097> 239 50<57.4303 135.812>
LayerCount: 2
Fore
SplineSet
174 39 m 256xfa
 207 39 239 68 239 100 c 0
 239 117 226 141 196 141 c 0
 165 141 134 110 134 79 c 0
 134 65 142 39 174 39 c 256xfa
289 112 m 0
 289 50 231 -12 164 -12 c 0
 113 -12 81 17 81 66 c 0
 81 74 81 82 83 90 c 2
 217 716 l 2
 218 721 218 726 218 730 c 0
 218 775 134 835 54 838 c 1
 79 932 136 979 223 979 c 0
 265 979 328 933 363 933 c 0
 381 933 395 945 405 970 c 1
 447 958 l 1
 422 908 393 883 360 883 c 0
 318 883 250 933 208 933 c 0
 163 933 136 914 125 877 c 1
 223 846 272 800 272 738 c 0xfc
 272 729 271 720 269 710 c 2
 156 179 l 1
 171 187 188 191 206 191 c 0
 256 191 289 156 289 112 c 0
EndSplineSet
Validated: 1
EndChar

StartChar: uni0E43
Encoding: 3651 3651 276
Width: 364
VWidth: 1504
Flags: W
HStem: -12 51<145.725 228.203> 141 50<164.631 241.146> 746 41<89.0522 161.974> 871 40<135.299 170.983> 945 43<152.794 283.088>
VStem: 48 39<790.091 858.005> 88 53<43.7044 121.072> 174 42<799.277 868.858> 246 51<56.904 135.807> 301 58<821.57 928.048>
LayerCount: 2
Fore
SplineSet
297 112 m 0
 297 49 237 -12 173 -12 c 0
 122 -12 88 18 88 68 c 0
 88 75 89 83 90 90 c 2
 221 705 l 2
 235 768 301 827 301 879 c 0
 301 919 271 945 229 945 c 0
 192 945 160 933 135 910 c 1
 141 911 146 911 151 911 c 0
 192 911 216 882 216 847 c 0
 216 793 164 746 114 746 c 256
 77 746 48 770 48 813 c 0
 48 890 114 988 242 988 c 0
 306 988 359 949 359 895 c 0
 359 824 286 755 274 695 c 2
 164 179 l 1
 179 187 196 191 215 191 c 0
 264 191 297 155 297 112 c 0
182 39 m 256
 213 39 246 66 246 101 c 0
 246 124 228 141 203 141 c 0
 174 141 141 112 141 78 c 0
 141 57 158 39 182 39 c 256
122 787 m 256
 155 787 174 819 174 837 c 0
 174 855 163 871 140 871 c 256
 106 871 87 840 87 817 c 0
 87 805 94 787 122 787 c 256
EndSplineSet
Validated: 1
EndChar

StartChar: uni0E44
Encoding: 3652 3652 277
Width: 367
VWidth: 1504
Flags: W
HStem: -12 51<148.462 230.741> 141 50<167.784 242.528> 748 21G<80 143.077>
VStem: 91 52<43.9593 119.474 805.079 1000> 248 52<57.226 135.691>
LayerCount: 2
Fore
SplineSet
300 112 m 0
 300 49 240 -12 176 -12 c 0
 125 -12 91 18 91 68 c 0
 91 75 92 83 93 90 c 2
 266 904 l 1
 125 748 l 1
 80 766 l 1
 89 833 94 911 95 1000 c 1
 141 1000 l 1
 138 913 134 847 128 803 c 1
 290 985 l 1
 314 984 328 963 328 944 c 0
 328 941 327 937 326 933 c 2
 167 179 l 1
 182 187 199 191 218 191 c 0
 267 191 300 155 300 112 c 0
185 39 m 256
 218 39 248 71 248 100 c 0
 248 123 231 141 206 141 c 256
 173 141 143 109 143 80 c 0
 143 57 160 39 185 39 c 256
EndSplineSet
Validated: 1
EndChar

StartChar: uni0E45
Encoding: 3653 3653 278
Width: 308
VWidth: 1504
Flags: W
HStem: 554 48<25.4331 173.145>
VStem: -101 56<442 483.929> 202 56<417.462 524.797>
LayerCount: 2
Fore
SplineSet
108 602 m 0
 234 602 258 533 258 488 c 0
 258 475 257 462 254 448 c 2
 107 -244 l 2
 95 -291 71 -326 35 -350 c 1
 -8 -323 l 1
 27 -297 48 -264 57 -224 c 2
 200 450 l 2
 202 458 202 465 202 472 c 0
 202 505 183 554 96 554 c 0
 11 554 -34 478 -45 442 c 1
 -101 442 l 1
 -83 516 -5 602 108 602 c 0
EndSplineSet
Validated: 1
EndChar

StartChar: uni0E46
Encoding: 3654 3654 279
Width: 600
VWidth: 1504
Flags: W
HStem: 308 48<175.386 253.014> 445 48<188.398 262.649> 516 21G<325 380.741>
VStem: 114 59<358.697 432.618> 265 49<368.258 442.038> 480 57<419.062 547.172>
LayerCount: 2
Fore
SplineSet
199 308 m 0
 131 308 114 365 114 400 c 0
 114 433 132 575 296 621 c 1
 360 572 l 1
 439 621 l 1
 504 594 537 551 537 492 c 0
 537 479 535 465 532 451 c 2
 393 -206 l 2
 381 -253 357 -289 320 -313 c 1
 278 -286 l 1
 312 -260 333 -229 340 -193 c 2
 477 451 l 2
 479 462 480 472 480 482 c 0
 480 519 465 548 433 570 c 1
 350 516 l 1
 280 572 l 1
 234 554 203 523 188 478 c 1
 205 488 222 493 238 493 c 0
 284 493 314 462 314 422 c 0
 314 361 261 308 199 308 c 0
209 356 m 256
 242 356 265 384 265 412 c 0
 265 432 250 445 227 445 c 256
 195 445 173 415 173 390 c 0
 173 369 187 356 209 356 c 256
EndSplineSet
Validated: 1
EndChar

StartChar: uni0E47
Encoding: 3655 3655 280
Width: 0
VWidth: 1504
Flags: W
HStem: 693 43<-87.2897 -25.987> 802 37<-79.5851 -21.3351> 883 44<-254.831 -25.7344>
VStem: -335 52<755.601 856.546> -20 39<743.701 800.587> 21 51<978.047 1035>
LayerCount: 2
Fore
SplineSet
19 784 m 0
 19 742 -24 693 -75 693 c 0
 -117 693 -160 715 -205 758 c 1
 -234 749 -264 727 -296 692 c 1
 -322 712 -335 739 -335 775 c 0
 -335 830 -306 927 -183 927 c 2
 -80 927 l 2
 -31 927 3 963 21 1035 c 1
 72 1035 l 1
 58 963 7 883 -90 883 c 2
 -194 883 l 2
 -265 883 -283 830 -283 790 c 0
 -283 778 -281 766 -277 755 c 1
 -246 783 -217 799 -190 803 c 1
 -175 788 -155 770 -128 749 c 1
 -127 757 -127 793 -94 819 c 0
 -77 832 -59 839 -39 839 c 256
 7 839 19 802 19 784 c 0
-62 736 m 256
 -40 736 -20 755 -20 776 c 0
 -20 790 -31 802 -47 802 c 256
 -65 802 -88 783 -88 761 c 0
 -88 747 -78 736 -62 736 c 256
EndSplineSet
Validated: 1
Substitution2: "Single Substitution lookup 42 subtable" uni0E47.alt1
Substitution2: "Single Substitution lookup 42 subtable" uni0E47.alt1
EndChar

StartChar: uni0E48
Encoding: 3656 3656 281
Width: 0
VWidth: 1504
Flags: W
HStem: 1023 167<54 68>
VStem: 18 86
LayerCount: 2
Fore
SplineSet
68 1023 m 1
 18 1023 l 1
 54 1190 l 1
 104 1190 l 1
 68 1023 l 1
EndSplineSet
Validated: 1
Substitution2: "Single Substitution lookup 42 subtable" uni0E48.alt2
Substitution2: "Single Substitution lookup 42 subtable" uni0E48.alt2
EndChar

StartChar: uni0E49
Encoding: 3657 3657 282
Width: 0
VWidth: 1504
Flags: W
HStem: 1106 40<-53.5656 -33> 1217 41<-47.082 14.6471>
VStem: -95 40<1147.94 1208.95> 16 43<1152.88 1215.79>
LayerCount: 2
Fore
SplineSet
59 1196 m 0
 59 1171 41 1105 -35 1057 c 1
 86 1067 166 1129 206 1242 c 1
 262 1242 l 1
 206 1091 97 1018 -96 1018 c 2
 -123 1018 l 1
 -117 1047 l 1
 -81 1061 -53 1081 -33 1106 c 1
 -69 1106 -95 1130 -95 1166 c 0
 -95 1224 -38 1258 0 1258 c 0
 35 1258 59 1232 59 1196 c 0
-26 1146 m 256
 -2 1146 16 1167 16 1189 c 0
 16 1206 5 1217 -11 1217 c 0
 -35 1217 -55 1195 -55 1173 c 0
 -55 1157 -43 1146 -26 1146 c 256
EndSplineSet
Validated: 1
Substitution2: "Single Substitution lookup 42 subtable" uni0E49.alt2
Substitution2: "Single Substitution lookup 42 subtable" uni0E49.alt2
EndChar

StartChar: uni0E4A
Encoding: 3658 3658 283
Width: 0
VWidth: 1504
Flags: W
HStem: 1017 39<-237.831 -174.183> 1127 42<-214.587 -166.776>
VStem: -282 43<1057.26 1118.95> -166 42<1062.72 1125.88> -25 42<1101.06 1203> 101 48<1174.58 1239>
LayerCount: 2
Fore
SplineSet
-209 1056 m 256
 -183 1056 -166 1080 -166 1099 c 0
 -166 1116 -177 1127 -194 1127 c 256
 -219 1127 -239 1105 -239 1082 c 0
 -239 1066 -225 1056 -209 1056 c 256
17 1174 m 0
 17 1163 15 1105 -38 1059 c 1
 -14 1061 10 1076 33 1103 c 0
 66 1137 89 1182 101 1239 c 1
 149 1239 l 1
 114 1090 26 1015 -114 1015 c 1
 -107 1048 l 1
 -40 1079 -25 1135 -25 1162 c 0
 -25 1187 -37 1203 -62 1211 c 1
 -114 1164 l 1
 -146 1211 l 1
 -159 1209 -198 1196 -215 1163 c 1
 -207 1167 -197 1169 -185 1169 c 0
 -137 1169 -124 1130 -124 1108 c 0
 -124 1062 -169 1017 -218 1017 c 0
 -270 1017 -282 1051 -282 1079 c 0
 -282 1163 -206 1253 -129 1253 c 1
 -104 1208 l 1
 -60 1253 l 1
 4 1250 17 1202 17 1174 c 0
EndSplineSet
Validated: 1
Substitution2: "Single Substitution lookup 42 subtable" uni0E4A.alt2
Substitution2: "Single Substitution lookup 42 subtable" uni0E4A.alt2
EndChar

StartChar: uni0E4B
Encoding: 3659 3659 284
Width: 0
VWidth: 1504
Flags: W
HStem: 1082 42<-38 32 87 158>
VStem: -47 214
LayerCount: 2
Fore
SplineSet
158 1082 m 1
 78 1082 l 1
 66 1023 l 1
 20 1023 l 1
 32 1082 l 1
 -47 1082 l 1
 -38 1124 l 1
 41 1124 l 1
 54 1188 l 1
 101 1188 l 1
 87 1124 l 1
 167 1124 l 1
 158 1082 l 1
EndSplineSet
Validated: 1
Substitution2: "Single Substitution lookup 42 subtable" uni0E4B.alt2
Substitution2: "Single Substitution lookup 42 subtable" uni0E4B.alt2
EndChar

StartChar: uni0E4C
Encoding: 3660 3660 285
Width: 0
VWidth: 1504
Flags: W
HStem: 948 36<-69.5022 -7.98466>
VStem: -116 43<986 1052.11> 4 39<994.392 1060.48> 129 47<1185.7 1214>
LayerCount: 2
Fore
SplineSet
-51 948 m 0
 -89 948 -116 972 -116 1008 c 0
 -116 1038 -95 1123 14 1152 c 2
 84 1172 l 2
 110 1180 125 1194 129 1214 c 1
 176 1214 l 1
 145 1116 15 1131 -15 1103 c 1
 17 1100 43 1077 43 1042 c 0
 43 988 -4 948 -51 948 c 0
-41 984 m 0
 -18 984 4 1009 4 1031 c 0
 4 1041 -2 1062 -24 1062 c 0
 -50 1062 -73 1039 -73 1016 c 0
 -73 1006 -66 984 -41 984 c 0
EndSplineSet
Validated: 1
Substitution2: "Single Substitution lookup 42 subtable" uni0E4C.alt2
Substitution2: "Single Substitution lookup 42 subtable" uni0E4C.alt2
EndChar

StartChar: uni0E4D
Encoding: 3661 3661 286
Width: 0
VWidth: 1504
Flags: W
HStem: 695 50<-77.9356 17.3987> 875 50<-58.2455 35.5742>
VStem: -138 50<754.652 845.815> 46 50<773.284 864.652>
LayerCount: 2
Fore
SplineSet
96 836 m 0
 96 764 32 695 -44 695 c 0
 -116 695 -138 751 -138 780 c 0
 -138 860 -68 925 3 925 c 0
 61 925 96 884 96 836 c 0
-33 745 m 0
 7 745 46 784 46 823 c 0
 46 851 23 875 -6 875 c 0
 -48 875 -88 835 -88 795 c 0
 -88 767 -65 745 -33 745 c 0
EndSplineSet
Validated: 1
Substitution2: "Single Substitution lookup 42 subtable" uni0E4D.alt1
Substitution2: "Single Substitution lookup 42 subtable" uni0E4D.alt1
EndChar

StartChar: uni0E4E
Encoding: 3662 3662 287
Width: 0
VWidth: 1504
Flags: W
HStem: 696 38<-150.573 -50.3937> 726 20G<-54.5 -47.1579> 835 30<-110.292 -80 -39.219 -10.2857> 969 40<-38.099 85.8196>
VStem: -199 45<739.715 806.483> -100 46<874.969 954.346>
LayerCount: 2
Fore
SplineSet
-100 904 m 0xbc
 -100 932 -86 1009 35 1009 c 0
 62 1009 84 1006 101 999 c 1
 78 961 l 1
 62 966 44 969 24 969 c 0
 -43 969 -54 934 -54 910 c 0
 -54 884 -33 868 9 863 c 1
 -11 829 l 1
 -23 833 -35 835 -47 835 c 0
 -110 835 -154 799 -154 766 c 0
 -154 745 -134 734 -95 734 c 0xbc
 -82 734 -65 738 -44 746 c 1x7c
 -50 708 l 1
 -71 700 -95 696 -122 696 c 0
 -165 696 -199 721 -199 758 c 0
 -199 822 -132 865 -80 865 c 1
 -94 874 -100 888 -100 904 c 0xbc
EndSplineSet
Validated: 1
Substitution2: "Single Substitution lookup 42 subtable" uni0E4E.alt1
Substitution2: "Single Substitution lookup 42 subtable" uni0E4E.alt1
EndChar

StartChar: uni0E4F
Encoding: 3663 3663 288
Width: 676
VWidth: 1504
Flags: W
HStem: -9 51<195.171 378.016> 95 54<249.144 371.649> 341 53<280.981 402.546> 447 52<272.966 456.118>
VStem: 64 54<118.22 290.547> 172 54<171.395 286.198> 424 54<203.737 318.986> 532 53<200.326 370.296>
LayerCount: 2
Fore
SplineSet
305 149 m 256
 376 149 424 214 424 267 c 0
 424 305 396 341 346 341 c 256
 278 341 226 278 226 223 c 0
 226 183 257 149 305 149 c 256
478 278 m 0
 478 188 392 95 293 95 c 256
 214 95 172 155 172 211 c 0
 172 301 257 394 356 394 c 256
 435 394 478 337 478 278 c 0
281 42 m 0
 419 42 532 168 532 292 c 0
 532 368 478 447 369 447 c 256
 235 447 118 328 118 198 c 0
 118 119 172 42 281 42 c 0
585 300 m 0
 585 145 441 -9 271 -9 c 0
 133 -9 64 89 64 187 c 0
 64 347 210 499 379 499 c 0
 511 499 585 401 585 300 c 0
EndSplineSet
Validated: 1
EndChar

StartChar: uni0E50
Encoding: 3664 3664 289
Width: 675
VWidth: 1504
Flags: W
HStem: -11 49<169.568 392.382> 397 47<239.362 462.875>
VStem: 33 56<111.016 262.715> 543 61<169.024 323.777>
LayerCount: 2
Fore
SplineSet
604 261 m 0
 604 143 493 -11 269 -11 c 256
 81 -11 33 98 33 171 c 0
 33 295 148 444 366 444 c 256
 546 444 604 343 604 261 c 0
278 38 m 256
 453 38 543 157 543 252 c 0
 543 310 504 397 355 397 c 256
 183 397 89 279 89 181 c 0
 89 123 129 38 278 38 c 256
EndSplineSet
Validated: 1
EndChar

StartChar: uni0E51
Encoding: 3665 3665 290
Width: 675
VWidth: 1504
Flags: W
HStem: -12 48<127.851 279.161> 102 41<255.306 339.511> 259 42<271.592 360.766> 396 46<237.118 452.431>
VStem: 26 55<82.7305 248.829> 203 46<148.719 237.471> 368 49<164.581 252.538> 545 57<130.503 313.267>
LayerCount: 2
Fore
SplineSet
602 243 m 0
 602 192 579 60 475 -29 c 1
 409 -29 l 1
 537 61 545 207 545 230 c 0
 545 296 510 396 341 396 c 0
 205 396 81 291 81 157 c 0
 81 90 120 36 202 36 c 0
 259 36 305 62 340 114 c 1
 320 106 302 102 286 102 c 0
 220 102 203 149 203 177 c 0
 203 248 270 301 331 301 c 0
 400 301 417 251 417 213 c 0
 417 143 353 -12 177 -12 c 0
 72 -12 26 64 26 146 c 0
 26 307 167 442 350 442 c 0
 559 442 602 322 602 243 c 0
296 143 m 256
 341 143 368 179 368 214 c 0
 368 241 350 259 320 259 c 256
 276 259 249 220 249 185 c 0
 249 158 269 143 296 143 c 256
EndSplineSet
Validated: 1
EndChar

StartChar: uni0E52
Encoding: 3666 3666 291
Width: 675
VWidth: 1504
Flags: W
HStem: -18 50<163.807 425.593> 143 44<215.502 296.536> 286 43<242.582 308.686> 394 48<274.823 386.209 472.406 552.802> 639 53<103.679 123.109>
VStem: 35 54<89.1349 275.336> 125 54<509.016 637.285> 163 48<192.237 268.466> 313 44<204.483 281.404> 397 35<307 321.766> 563 55<184.586 388.136>
LayerCount: 2
Fore
SplineSet
531 442 m 0xfde0
 590 442 618 393 618 318 c 0
 618 290 614 257 606 220 c 0
 572 61 465 -18 286 -18 c 0
 119 -18 35 38 35 150 c 0
 35 168 38 188 42 209 c 2
 123 594 l 2
 125 600 125 606 125 611 c 0
 125 629 115 638 95 639 c 1
 105 692 l 1
 157 687 179 662 179 617 c 0xfee0
 179 610 178 602 176 594 c 2
 93 202 l 2
 89 182 89 163 89 147 c 0
 89 72 168 32 298 32 c 0
 441 32 526 92 551 212 c 0
 559 252 563 286 563 314 c 0
 563 359 553 394 525 394 c 0
 477 394 443 348 432 307 c 1
 397 307 l 1
 397 312 398 317 398 322 c 0
 398 371 378 396 340 396 c 0
 292 396 259 372 242 323 c 1
 250 327 263 329 281 329 c 0
 330 329 357 292 357 256 c 0
 357 195 295 143 242 143 c 0
 195 143 163 178 163 231 c 0
 163 299 215 442 347 442 c 0
 392 442 420 418 429 370 c 1
 455 418 489 442 531 442 c 0xfde0
251 187 m 0
 283 187 313 217 313 248 c 0
 313 271 294 286 272 286 c 0
 238 286 211 253 211 227 c 0xfde0
 211 206 228 187 251 187 c 0
EndSplineSet
Validated: 1
EndChar

StartChar: uni0E53
Encoding: 3667 3667 292
Width: 675
VWidth: 1504
Flags: W
HStem: -3 42<77.7555 166.598> 153 43<92.451 182.828> 397 45<176.814 299.854 451.866 554.485>
VStem: 19 52<46.0574 188.367> 189 47<61.7237 146.043> 571 54<256.092 380.318>
LayerCount: 2
Fore
SplineSet
514 442 m 0
 603 442 625 382 625 334 c 0
 625 319 623 304 620 287 c 2
 560 0 l 1
 507 0 l 1
 566 283 l 2
 569 297 571 310 571 322 c 0
 571 368 547 397 505 397 c 0
 459 397 403 338 391 277 c 2
 332 0 l 1
 277 0 l 1
 335 278 l 2
 336 285 337 292 337 298 c 0
 337 346 298 397 242 397 c 0
 131 397 80 241 80 164 c 1
 99 185 124 196 156 196 c 0
 208 196 236 156 236 117 c 0
 236 68 193 -3 107 -3 c 0
 37 -3 19 64 19 120 c 0
 19 144 22 172 29 202 c 0
 63 362 139 442 256 442 c 0
 324 442 365 410 378 347 c 1
 414 410 459 442 514 442 c 0
117 39 m 256
 157 39 189 74 189 110 c 0
 189 134 169 153 141 153 c 256
 102 153 71 116 71 85 c 0
 71 61 87 39 117 39 c 256
EndSplineSet
Validated: 1
EndChar

StartChar: uni0E54
Encoding: 3668 3668 293
Width: 675
VWidth: 1504
Flags: W
HStem: -12 45<116.472 343.508> 277 42<285.328 369.241> 396 49<222.38 552.773>
VStem: 15 60<74.8702 249.756> 214 47<168.504 254.486> 376 45<185.314 270.853>
LayerCount: 2
Fore
SplineSet
305 162 m 256
 340 162 376 197 376 232 c 0
 376 258 359 277 331 277 c 256
 294 277 261 240 261 206 c 0
 261 182 279 162 305 162 c 256
340 319 m 0
 392 319 421 287 421 244 c 0
 421 186 371 134 323 125 c 1
 383 76 519 72 591 27 c 1
 555 -17 l 1
 506 8 464 20 429 20 c 0
 359 20 275 -12 173 -12 c 0
 47 -12 15 75 15 140 c 0
 15 271 105 445 356 445 c 0
 453 445 520 453 557 468 c 0
 627 498 676 550 704 623 c 1
 755 623 l 1
 710 518 645 449 561 418 c 0
 519 403 447 396 344 396 c 0
 110 396 75 224 75 150 c 0
 75 76 116 33 191 33 c 0
 249 33 306 41 361 56 c 1
 221 95 214 159 214 186 c 0
 214 292 302 319 340 319 c 0
EndSplineSet
Validated: 1
EndChar

StartChar: uni0E55
Encoding: 3669 3669 294
Width: 675
VWidth: 1504
Flags: W
HStem: -12 45<116.472 343.508> 277 42<285.277 369.241> 396 49<225.672 360> 587 45<382.738 463.707>
VStem: 15 60<74.8702 251.381> 214 47<167.882 253.425> 317 48<488.417 569.951> 376 45<185.314 270.853> 470 47<499.735 580.937>
LayerCount: 2
Fore
SplineSet
406 483 m 0
 437 483 470 510 470 545 c 0
 470 566 453 587 427 587 c 256
 394 587 365 554 365 523 c 0
 365 502 383 483 406 483 c 0
305 162 m 256
 340 162 376 197 376 232 c 0
 376 258 359 277 331 277 c 256
 294 277 261 240 261 206 c 0
 261 182 279 162 305 162 c 256
214 193 m 0
 214 274 284 319 340 319 c 0
 392 319 421 287 421 244 c 0
 421 186 371 134 323 125 c 1
 383 76 519 72 591 27 c 1
 555 -17 l 1
 506 8 464 20 429 20 c 0
 359 20 275 -12 173 -12 c 0
 47 -12 15 75 15 140 c 0
 15 249 84 445 360 445 c 1
 331 459 317 481 317 511 c 0
 317 575 377 632 438 632 c 0
 486 632 517 598 517 556 c 0
 517 526 502 472 439 447 c 1
 492 451 532 458 557 468 c 0
 627 498 676 550 704 623 c 1
 755 623 l 1
 710 518 645 449 561 418 c 0
 519 403 447 396 344 396 c 0
 110 396 75 224 75 150 c 0
 75 76 116 33 191 33 c 0
 249 33 306 41 361 56 c 1
 217 96 214 166 214 193 c 0
EndSplineSet
Validated: 1
EndChar

StartChar: uni0E56
Encoding: 3670 3670 295
Width: 675
VWidth: 1504
Flags: W
HStem: -12 48<207.788 417.623> 187 42<134.29 223.239> 396 46<248.601 486.704>
VStem: 66 45<76.7068 165.268> 125 53<380.223 599.642> 230 44<91.7886 180.218> 564 58<174.348 331.174>
LayerCount: 2
Fore
SplineSet
373 442 m 0
 590 442 622 343 622 278 c 0
 622 211 589 -12 266 -12 c 0
 98 -12 66 57 66 103 c 0
 66 170 124 229 191 229 c 0
 257 229 274 179 274 151 c 0
 274 130 264 75 205 42 c 1
 235 38 263 36 290 36 c 0
 541 41 564 210 564 262 c 0
 564 317 526 396 375 396 c 0
 268 396 179 358 108 283 c 1
 120 347 125 405 125 455 c 0
 125 524 115 580 93 623 c 1
 158 623 l 1
 172 582 178 538 178 489 c 0
 178 454 173 418 165 379 c 1
 228 421 297 442 373 442 c 0
156 71 m 256
 202 71 230 108 230 140 c 0
 230 159 220 187 182 187 c 256
 138 187 111 149 111 112 c 0
 111 86 129 71 156 71 c 256
EndSplineSet
Validated: 1
EndChar

StartChar: uni0E57
Encoding: 3671 3671 296
Width: 675
VWidth: 1504
Flags: W
HStem: -5 43<67.878 154.824> 152 44<82.2477 170.831> 397 45<149.544 240.167 371.804 460.302>
VStem: 4 57<44.5525 246.32> 178 43<61.1906 144.559> 473 54<211.977 386.356>
LayerCount: 2
Fore
SplineSet
105 38 m 0
 141 38 178 70 178 108 c 0
 178 134 156 152 129 152 c 256
 95 152 61 117 61 82 c 0
 61 59 80 38 105 38 c 0
4 118 m 0
 4 238 76 442 209 442 c 0
 264 442 296 410 304 347 c 1
 332 410 374 442 429 442 c 0
 494 442 527 406 527 334 c 0
 527 279 506 174 438 60 c 1
 501 74 548 156 581 305 c 0
 617 479 645 585 666 623 c 1
 722 623 l 1
 672 542 635 335 635 328 c 1
 605 185 565 94 516 56 c 0
 467 16 415 -3 360 -3 c 2
 352 -3 l 1
 444 153 473 258 473 323 c 0
 473 372 455 397 417 397 c 0
 377 397 329 338 317 277 c 2
 302 206 l 1
 245 206 l 1
 260 278 l 2
 262 288 263 297 263 307 c 0
 263 349 239 397 200 397 c 0
 126 397 67 268 62 162 c 1
 82 185 107 196 138 196 c 0
 204 196 221 142 221 117 c 0
 221 49 157 -5 96 -5 c 0
 22 -5 4 57 4 118 c 0
EndSplineSet
Validated: 1
EndChar

StartChar: uni0E58
Encoding: 3672 3672 297
Width: 675
VWidth: 1504
Flags: W
HStem: -8 50<357.77 487.497> 78 45<449.309 509.821> 235 45<463.361 549.301> 390 52<211.527 555.611>
VStem: 19 57<75.7477 252.228> 396 47<128.792 214.851> 556 47<142.769 229.147> 633 53<597 623>
LayerCount: 2
Fore
SplineSet
603 202 m 0
 603 188 582 -8 411 -8 c 0
 338 -8 277 35 229 122 c 1
 199 110 100 21 86 -14 c 1
 41 11 19 58 19 125 c 0
 19 272 85 442 349 442 c 0
 393 442 427 436 460 436 c 0
 561 436 605 490 629 597 c 2
 633 623 l 1
 686 623 l 1
 680 593 l 2
 651 454 576 384 457 384 c 0
 405 384 378 390 326 390 c 0
 126 390 76 246 76 136 c 0
 76 109 81 88 92 75 c 1
 145 131 199 169 256 188 c 1
 271 137 352 42 417 42 c 0
 455 42 486 56 511 83 c 1
 493 80 482 78 478 78 c 0
 428 78 396 113 396 156 c 0
 396 218 452 280 520 280 c 256
 571 280 603 246 603 202 c 0
487 123 m 256
 522 123 556 153 556 191 c 0
 556 215 538 235 511 235 c 256
 480 235 443 207 443 167 c 0
 443 143 460 123 487 123 c 256
EndSplineSet
Validated: 1
EndChar

StartChar: uni0E59
Encoding: 3673 3673 298
Width: 675
VWidth: 1504
Flags: W
HStem: -17 21G<499 547.537> -5 43<166.047 251.983> 149 44<180.625 266.885> 347 49<511.752 600.383> 397 47<190.141 320.461 433.108 496.647>
VStem: 14 56<81.9308 265.072> 116 43<56.5642 126.93> 273 44<59.4275 143.562> 644 45<465.733 623>
LayerCount: 2
Fore
SplineSet
418 329 m 0x7f80
 418 222 499 92 567 24 c 1
 529 -17 l 1xbf80
 469 41 384 194 361 316 c 0
 356 344 321 395 257 397 c 0
 187 397 70 304 70 170 c 0
 70 117 85 79 116 56 c 1
 116 65 l 2
 116 144 185 193 238 193 c 0
 285 193 317 160 317 113 c 0
 317 48 255 -5 193 -5 c 0
 49 -5 14 80 14 157 c 0
 14 302 125 444 265 444 c 0
 322 444 363 419 390 369 c 1
 404 418 428 442 463 442 c 0
 489 442 530 396 560 396 c 0
 592 396 614 424 627 481 c 0
 638 536 644 583 644 623 c 1
 689 623 l 1
 687 572 681 526 672 486 c 0
 653 393 617 347 563 347 c 0
 534 347 469 396 459 396 c 0
 438 396 418 354 418 329 c 0x7f80
205 38 m 256x7f80
 240 38 273 73 273 105 c 0
 273 129 256 149 229 149 c 256
 192 149 159 116 159 80 c 0
 159 55 181 38 205 38 c 256x7f80
EndSplineSet
Validated: 1
EndChar

StartChar: uni0E5A
Encoding: 3674 3674 299
Width: 785
VWidth: 1504
Flags: W
HStem: 394 69<174.818 291.644> 552 50<185.728 262.538> 570 20G<402 495.5 606.5 695.5>
VStem: 121 52<465.715 538.701> 265 53<474.466 549.248> 488 57<480.6 537.515> 688 57<464.214 537.515>
LayerCount: 2
Fore
SplineSet
241 602 m 256xde
 289 602 318 566 318 524 c 0
 318 493 303 467 283 447 c 1
 342 466 387 513 417 590 c 1
 471 590 l 2
 520 590 545 569 545 526 c 0
 545 517 544 507 542 496 c 2
 535 474 l 1
 568 500 596 539 617 590 c 1
 671 590 l 2xbe
 720 590 745 569 745 526 c 0
 745 517 744 507 742 496 c 2
 647 51 l 2
 635 4 611 -32 575 -56 c 1
 532 -29 l 1
 567 -2 588 31 597 71 c 2
 686 492 l 2
 687 498 688 503 688 507 c 0
 688 529 675 540 650 542 c 1
 614 475 571 431 522 409 c 1
 447 51 l 2
 435 4 411 -32 375 -56 c 1
 332 -29 l 1
 367 -2 388 31 397 71 c 2
 486 492 l 2
 487 498 488 503 488 507 c 0
 488 529 475 540 450 542 c 1
 394 443 325 394 244 394 c 0
 140 394 121 447 121 482 c 0
 121 552 185 602 241 602 c 256xde
209 463 m 256
 248 463 265 496 265 519 c 0
 265 530 258 552 229 552 c 256xde
 195 552 173 521 173 496 c 0
 173 476 187 463 209 463 c 256
EndSplineSet
Validated: 1
EndChar

StartChar: uni0E5B
Encoding: 3675 3675 300
Width: 1048
VWidth: 1504
Flags: W
HStem: 36 50<201.507 360.685> 194 41<274.462 345.128> 253 16<943.167 975.636> 319 41<285.372 355.443> 465 46<262.709 392.709>
VStem: 100 55<133.983 323.271> 233 39<238.471 304.549> 407 48<332.735 449.635>
LayerCount: 2
Back
SplineSet
329 486 m 0xff3cc0
 329 483 328 481 325 481 c 2
 320 481 l 1
 322 490 l 1
 326 490 l 2
 328 490 330 489 330 488 c 0
 330 487 329 487 329 486 c 0xff3cc0
323 480 m 2
 331 480 332 485 332 488 c 0
 332 491 330 492 326 492 c 2
 319 492 l 1
 314 471 l 1
 317 471 l 1
 319 480 l 1
 323 480 l 2
373 486 m 0
 373 483 372 481 369 481 c 2
 364 481 l 1
 366 490 l 1xff3dc0
 370 490 l 2
 372 490 374 489 374 488 c 0xff3ec0
 374 487 373 487 373 486 c 0
311 471 m 1
 311 474 l 1
 301 474 l 1
 305 492 l 1
 302 492 l 1
 298 471 l 1
 311 471 l 1
269 492 m 0
 259 492 258 477 258 477 c 1
 258 473 260 471 265 471 c 256
 271 471 274 473 275 478 c 1
 272 478 l 1
 271 474 269 472 265 472 c 256
 262 472 261 473 261 476 c 0xff7cc0
 261 482 262 490 269 490 c 0
 272 490 274 488 274 484 c 1
 277 484 l 1
 276 489 273 492 269 492 c 0
356 477 m 1xff3ec0
 354 480 351 483 346 486 c 1
 347 489 349 490 352 490 c 1
 353 488 353 487 353 486 c 1
 356 486 l 1
 356 489 l 0
 356 491 355 492 352 492 c 0
 347 492 344 490 343 486 c 1
 346 483 349 480 353 477 c 1
 352 474 350 472 347 472 c 256
 345 472 344 473 344 476 c 2
 344 478 l 1
 341 478 l 1
 341 476 l 2
 341 473 343 471 347 471 c 256
 352 471 355 473 356 477 c 1xff3ec0
293 471 m 1
 298 492 l 1
 295 492 l 1
 293 483 l 1
 283 483 l 1
 284 492 l 1
 281 492 l 1
 277 471 l 1
 280 471 l 1
 283 481 l 1
 293 481 l 1
 290 471 l 1
 293 471 l 1
393 471 m 1
 388 483 l 1
 397 492 l 1
 393 492 l 1
 384 481 l 1
 385 492 l 1
 382 492 l 1
 378 471 l 1
 381 471 l 1
 382 478 l 1
 387 481 l 1
 388 471 l 1
 393 471 l 1
367 480 m 2
 375 480 376 485 376 488 c 0
 376 491 374 492 370 492 c 2
 363 492 l 1
 358 471 l 1
 361 471 l 1
 363 480 l 1
 367 480 l 2
806 256 m 1
 825 276 836 308 836 349 c 1
 841 348 860 334 892 307 c 0
 921 282 954 269 991 269 c 2
 999 269 l 1
 976 258 954 253 933 253 c 0
 900 253 873 265 854 290 c 1
 837 242 817 215 794 208 c 1
 772 208 775 310 758 331 c 1
 739 239 716 193 689 193 c 0
 673 193 675 298 659 323 c 1
 632 225 602 176 570 176 c 0
 555 176 559 297 545 323 c 1
 504 132 409 36 260 36 c 0
 132 36 100 128 100 203 c 0
 100 317 167 511 337 511 c 0
 431 511 455 451 455 401 c 0
 455 326 405 194 298 194 c 0
 259 194 233 224 233 259 c 0xffbcc0
 233 307 275 360 332 360 c 0
 359 360 378 350 391 329 c 1
 391 332 l 1
 399 348 407 377 407 400 c 0
 407 443 381 465 331 465 c 0
 198 465 155 277 155 216 c 0
 155 133 200 86 271 86 c 0
 468 86 514 330 517 405 c 1
 570 394 596 340 596 245 c 1
 631 315 631 355 631 374 c 0
 631 383 631 392 630 402 c 1
 670 390 698 346 713 271 c 1
 735 326 736 328 736 382 c 1
 777 370 800 328 806 256 c 1
307 235 m 256
 333 235 359 263 359 284 c 0
 359 302 345 319 325 319 c 256
 298 319 272 293 272 267 c 0
 272 251 286 235 307 235 c 256
EndSplineSet
Fore
SplineSet
806 256 m 1
 825 276 836 308 836 349 c 1
 841 348 860 334 892 307 c 0
 921 282 954 269 991 269 c 2
 999 269 l 1
 976 258 954 253 933 253 c 0
 900 253 873 265 854 290 c 1
 837 242 817 215 794 208 c 1
 772 208 775 310 758 331 c 1
 739 239 716 193 689 193 c 0
 673 193 675 298 659 323 c 1
 632 225 602 176 570 176 c 0
 555 176 559 297 545 323 c 1
 504 132 409 36 260 36 c 0
 132 36 100 128 100 203 c 0
 100 317 167 511 337 511 c 0
 431 511 455 451 455 401 c 0
 455 326 405 194 298 194 c 0
 259 194 233 224 233 259 c 0
 233 307 275 360 332 360 c 0
 359 360 378 350 391 329 c 1
 391 332 l 1
 399 348 407 377 407 400 c 0
 407 443 381 465 331 465 c 0
 198 465 155 277 155 216 c 0
 155 133 200 86 271 86 c 0
 468 86 514 330 517 405 c 1
 570 394 596 340 596 245 c 1
 631 315 631 355 631 374 c 0
 631 383 631 392 630 402 c 1
 670 390 698 346 713 271 c 1
 735 326 736 328 736 382 c 1
 777 370 800 328 806 256 c 1
307 235 m 256
 333 235 359 263 359 284 c 0
 359 302 345 319 325 319 c 256
 298 319 272 293 272 267 c 0
 272 251 286 235 307 235 c 256
EndSplineSet
EndChar

StartChar: zerowidthnonjoiner
Encoding: 8204 8204 301
Width: 0
VWidth: 1504
Flags: W
LayerCount: 2
Back
SplineSet
23 -232 m 1
 -21 -232 l 1
 -21 576 l 1
 23 576 l 1
 23 -232 l 1
EndSplineSet
EndChar

StartChar: zerowidthjoiner
Encoding: 8205 8205 302
Width: 0
VWidth: 1504
Flags: W
LayerCount: 2
Back
SplineSet
23 -232 m 1
 -21 -232 l 1
 -21 442 l 1
 -51 412 l 1
 -77 438 l 1
 -21 493 l 1
 -77 552 l 1
 -50 576 l 1
 0 520 l 1
 51 576 l 1
 78 552 l 1
 23 493 l 1
 78 438 l 1
 51 412 l 1
 23 442 l 1
 23 -232 l 1
EndSplineSet
EndChar

StartChar: lefttorightmark
Encoding: 8206 8206 303
Width: 0
VWidth: 1504
Flags: W
LayerCount: 2
Back
SplineSet
23 -232 m 1
 -21 -232 l 1
 -21 523 l 1
 168 523 l 1
 143 551 l 1
 167 575 l 1
 245 496 l 1
 167 418 l 1
 143 444 l 1
 168 471 l 1
 23 471 l 1
 23 -232 l 1
EndSplineSet
EndChar

StartChar: righttoleftmark
Encoding: 8207 8207 304
Width: 0
VWidth: 1504
Flags: W
LayerCount: 2
Back
SplineSet
23 -232 m 1
 -21 -232 l 1
 -21 471 l 1
 -167 471 l 1
 -141 444 l 1
 -165 418 l 1
 -244 496 l 1
 -165 575 l 1
 -163 571.667 -159.5 567.5 -154.5 562.5 c 0
 -149.5 557.5 -145 553.667 -141 551 c 1
 -167 523 l 1
 23 523 l 1
 23 -232 l 1
EndSplineSet
EndChar

StartChar: endash
Encoding: 8211 8211 305
Width: 541
VWidth: 1504
Flags: W
HStem: 248 50<30 496>
LayerCount: 2
Fore
SplineSet
496 248 m 1
 20 248 l 1
 30 298 l 1
 507 298 l 1
 496 248 l 1
EndSplineSet
Validated: 1
EndChar

StartChar: emdash
Encoding: 8212 8212 306
Width: 1083
VWidth: 1504
Flags: W
HStem: 248 50<32 1033>
LayerCount: 2
Fore
SplineSet
1033 248 m 1
 21 248 l 1
 32 298 l 1
 1044 298 l 1
 1033 248 l 1
EndSplineSet
Validated: 1
EndChar

StartChar: quoteleft
Encoding: 8216 8216 307
Width: 371
VWidth: 1504
Flags: W
HStem: 502 112<227 256.22>
VStem: 162 117<524.835 609.25>
LayerCount: 2
Fore
SplineSet
279 572 m 0
 279 543 249 502 209 502 c 0
 181 502 162 522 162 547 c 0
 162 559 176 643 256 721 c 0
 284 747 308 765 329 775 c 1
 346 749 l 1
 283 713 243 668 227 614 c 1
 233 615 235 615 235 615 c 2
 262 615 279 594 279 572 c 0
EndSplineSet
Validated: 1
EndChar

StartChar: quoteright
Encoding: 8217 8217 308
Width: 371
VWidth: 1504
Flags: W
HStem: 484 273
VStem: 220 117<649.703 734.279>
LayerCount: 2
Fore
SplineSet
289 757 m 0
 318 757 337 739 337 713 c 0
 337 682 310 602 245 539 c 0
 216 512 191 494 170 484 c 1
 153 510 l 1
 216 546 256 591 272 645 c 1
 265 644 263 644 263 644 c 2
 237 644 220 665 220 688 c 0
 220 716 250 757 289 757 c 0
EndSplineSet
Validated: 1
EndChar

StartChar: quotesinglbase
Encoding: 8218 8218 309
Width: 371
VWidth: 1504
Flags: W
HStem: -167 272 -8 21G<105.5 123.5>
VStem: 81 118<-2.25 83.4941>
LayerCount: 2
Fore
SplineSet
150 105 m 0xa0
 179 105 199 88 199 62 c 0
 199 48 184 -37 107 -113 c 0
 78 -139 53 -157 32 -167 c 1xa0
 15 -141 l 1
 78 -105 118 -60 134 -6 c 1
 129 -7 125 -8 122 -8 c 0x60
 89 -8 81 14 81 33 c 0
 81 75 118 105 150 105 c 0xa0
EndSplineSet
Validated: 1
EndChar

StartChar: quotedblleft
Encoding: 8220 8220 310
Width: 556
VWidth: 1504
Flags: W
HStem: 502 112<235 263.882 409 438.22>
VStem: 169 118<524.98 606.251> 344 117<524.835 609.25>
LayerCount: 2
Fore
SplineSet
461 572 m 0
 461 543 431 502 391 502 c 0
 363 502 344 522 344 547 c 0
 344 559 358 643 438 721 c 0
 466 747 490 765 511 775 c 1
 528 749 l 1
 465 713 425 668 409 614 c 1
 415 614 417 615 417 615 c 2
 444 615 461 594 461 572 c 0
287 570 m 0
 287 540 252 502 217 502 c 0
 189 502 169 523 169 547 c 0
 169 559 183 643 263 721 c 0
 291 747 316 765 337 775 c 1
 353 749 l 1
 290 713 251 668 235 614 c 1
 241 614 242 615 242 615 c 1
 268 615 287 594 287 570 c 0
EndSplineSet
Validated: 1
EndChar

StartChar: quotedblright
Encoding: 8221 8221 311
Width: 556
VWidth: 1504
Flags: W
HStem: 644 113<250.499 280 424.433 454>
VStem: 228 117<651.501 734.528> 402 117<649.774 734.279>
LayerCount: 2
Fore
SplineSet
296 757 m 0
 325 757 345 739 345 713 c 0
 345 698 329 614 253 539 c 0
 224 512 198 494 177 484 c 1
 161 510 l 1
 224 546 264 591 280 645 c 1
 275 645 272 644 271 644 c 0
 246 644 228 664 228 687 c 0
 228 717 259 757 296 757 c 0
471 757 m 0
 500 757 519 739 519 713 c 0
 519 682 492 602 427 539 c 0
 398 512 373 494 352 484 c 1
 335 510 l 1
 398 546 438 591 454 645 c 1
 448 644 445 644 445 644 c 2
 419 644 402 666 402 688 c 0
 402 716 432 757 471 757 c 0
EndSplineSet
Validated: 1
EndChar

StartChar: quotedblbase
Encoding: 8222 8222 312
Width: 556
VWidth: 1504
Flags: W
HStem: -8 113<110 140.766 284.698 315.766>
VStem: 89 118<-2.25 83.375> 263 118<-3.45781 83.4941>
LayerCount: 2
Fore
SplineSet
158 105 m 0
 187 105 207 88 207 62 c 0
 207 48 192 -37 114 -113 c 0
 85 -139 60 -157 39 -167 c 1
 23 -141 l 1
 86 -105 125 -60 141 -6 c 1
 136 -7 132 -8 129 -8 c 0
 96 -8 89 17 89 34 c 0
 89 71 122 105 158 105 c 0
332 105 m 0
 361 105 381 88 381 62 c 0
 381 51 369 -35 289 -113 c 0
 260 -139 235 -157 214 -167 c 1
 197 -141 l 1
 260 -105 300 -60 316 -6 c 1
 311 -7 307 -8 304 -8 c 0
 271 -8 263 14 263 33 c 0
 263 75 300 105 332 105 c 0
EndSplineSet
Validated: 1
EndChar

StartChar: dagger
Encoding: 8224 8224 313
Width: 562
VWidth: 1504
Flags: W
HStem: 435 49<96 283 344 531> 693 20G<335.745 394>
LayerCount: 2
Fore
SplineSet
542 484 m 1
 531 435 l 1
 337 441 l 1
 232 -51 l 1
 177 -51 l 1
 283 441 l 1
 86 435 l 1
 96 484 l 1
 290 478 l 1
 340 713 l 1
 394 713 l 1
 344 478 l 1
 542 484 l 1
EndSplineSet
Validated: 1
EndChar

StartChar: daggerdbl
Encoding: 8225 8225 314
Width: 562
VWidth: 1504
Flags: W
HStem: 168 50<39 226 287 474> 435 49<96 283 344 531> 693 20G<335.745 394>
LayerCount: 2
Fore
SplineSet
542 484 m 1
 531 435 l 1
 337 441 l 1
 287 212 l 1
 484 218 l 1
 474 168 l 1
 280 174 l 1
 232 -51 l 1
 177 -51 l 1
 226 174 l 1
 29 168 l 1
 39 218 l 1
 233 212 l 1
 283 441 l 1
 86 435 l 1
 96 484 l 1
 290 478 l 1
 340 713 l 1
 394 713 l 1
 344 478 l 1
 542 484 l 1
EndSplineSet
Validated: 1
EndChar

StartChar: bullet
Encoding: 8226 8226 315
Width: 324
VWidth: 1504
Flags: W
HStem: 174 253<92.1351 231.717>
VStem: 36 253<229.176 370.311>
LayerCount: 2
Fore
SplineSet
162 427 m 0
 235 427 289 368 289 301 c 0
 289 229 233 174 162 174 c 256
 93 174 36 229 36 301 c 256
 36 369 88 427 162 427 c 0
EndSplineSet
Validated: 1
EndChar

StartChar: ellipsis
Encoding: 8230 8230 316
Width: 720
VWidth: 1504
Flags: W
HStem: -9 104<29.5642 99.5925 270.148 339.929 509.148 579.836>
VStem: 11 106<8.11055 76.955> 252 105<8.333 76.584> 491 106<8.333 76.7254>
LayerCount: 2
Fore
SplineSet
117 52 m 0
 117 19 83 -9 53 -9 c 256
 28 -9 11 9 11 32 c 0
 11 62 42 95 75 95 c 256
 100 95 117 76 117 52 c 0
357 54 m 0
 357 19 324 -9 293 -9 c 256
 270 -9 252 7 252 30 c 0
 252 65 285 95 316 95 c 256
 343 95 357 74 357 54 c 0
597 52 m 0
 597 19 564 -9 532 -9 c 256
 509 -9 491 7 491 30 c 0
 491 65 524 95 555 95 c 256
 580 95 597 76 597 52 c 0
EndSplineSet
Validated: 1
EndChar

StartChar: perthousand
Encoding: 8240 8240 317
Width: 1246
VWidth: 1504
Flags: W
HStem: -14 21G<119 186.192> -5 49<547.237 669.525 919.967 1042.91> 289 48<157.563 281.874> 375 48<610.298 732.917 982.22 1106.13> 668 48<223.975 347.016>
VStem: 82 56<356.146 545.62> 369 55<457.89 645.616> 468 56<68.0277 255.74> 755 55<165.32 352.486> 841 56<66.1151 252.51> 1128 55<163.604 352.791>
LayerCount: 2
Fore
SplineSet
594 -5 m 256x7fe0
 510 -5 468 39 468 126 c 0
 468 217 510 423 684 423 c 256
 785 423 810 360 810 292 c 0
 810 220 777 -5 594 -5 c 256x7fe0
605 44 m 256
 731 44 755 232 755 281 c 0
 755 361 712 375 671 375 c 0
 551 375 524 192 524 143 c 0
 524 77 550 44 605 44 c 256
710 716 m 1
 761 716 l 1
 170 -14 l 1
 119 -14 l 1xbfe0
 710 716 l 1
841 122 m 0
 841 201 875 423 1057 423 c 256
 1158 423 1183 360 1183 292 c 0
 1183 220 1150 -5 967 -5 c 256x7fe0
 884 -5 841 37 841 122 c 0
208 289 m 256
 124 289 82 332 82 419 c 0
 82 495 118 716 299 716 c 256
 387 716 424 668 424 571 c 0
 424 543 402 289 208 289 c 256
218 337 m 256
 346 337 369 527 369 577 c 0
 369 638 342 668 289 668 c 256
 198 668 138 567 138 410 c 0
 138 361 170 337 218 337 c 256
1044 375 m 0
 925 375 897 195 897 138 c 0
 897 75 924 44 978 44 c 256
 1106 44 1128 236 1128 281 c 0
 1128 344 1101 375 1047 375 c 256
 1044 375 l 0
EndSplineSet
Validated: 1
EndChar

StartChar: minute
Encoding: 8242 8242 318
Width: 188
VWidth: 1504
Flags: W
HStem: 558 158
VStem: 75 175
LayerCount: 2
Fore
SplineSet
116 558 m 1
 75 558 l 1
 167 716 l 1
 250 716 l 1
 116 558 l 1
EndSplineSet
Validated: 1
EndChar

StartChar: second
Encoding: 8243 8243 319
Width: 321
VWidth: 1504
Flags: W
HStem: 558 158
VStem: 75 309
LayerCount: 2
Fore
SplineSet
116 558 m 1
 75 558 l 1
 167 716 l 1
 250 716 l 1
 116 558 l 1
250 558 m 1
 209 558 l 1
 301 716 l 1
 384 716 l 1
 250 558 l 1
EndSplineSet
Validated: 1
EndChar

StartChar: guilsinglleft
Encoding: 8249 8249 320
Width: 275
VWidth: 1504
Flags: W
VStem: 8 270
LayerCount: 2
Fore
SplineSet
134 72 m 1
 8 266 l 1
 215 465 l 1
 278 465 l 1
 71 266 l 1
 197 72 l 1
 134 72 l 1
EndSplineSet
Validated: 1
EndChar

StartChar: guilsinglright
Encoding: 8250 8250 321
Width: 275
VWidth: 1504
Flags: W
VStem: -20 270
LayerCount: 2
Fore
SplineSet
42 72 m 1
 -20 72 l 1
 187 266 l 1
 63 465 l 1
 126 465 l 1
 250 266 l 1
 42 72 l 1
EndSplineSet
Validated: 1
EndChar

StartChar: fraction
Encoding: 8260 8260 322
Width: 243
VWidth: 1504
Flags: W
HStem: 0 21G<-119 -52.4302> 696 20G<318.43 385>
LayerCount: 2
Fore
SplineSet
-65 0 m 1
 -119 0 l 1
 331 716 l 1
 385 716 l 1
 -65 0 l 1
EndSplineSet
Validated: 1
EndChar

StartChar: Euro
Encoding: 8364 8364 323
Width: 610
VWidth: 1504
Flags: W
HStem: -11 52<218.263 465.273> 226 48<-6 36.4903 99 471> 426 48<35 65 146 514> 675 52<346.74 592.884>
LayerCount: 2
Fore
SplineSet
99 226 m 1
 119 111 207 41 320 41 c 0
 383 41 443 52 502 75 c 1
 510 27 l 1
 452 2 384 -11 307 -11 c 0
 148 -11 53 88 38 226 c 1
 -17 226 l 1
 -6 274 l 1
 35 274 l 1
 40 347 48 382 65 426 c 1
 26 426 l 1
 35 474 l 1
 84 474 l 1
 149 604 286 727 463 727 c 0
 540 727 603 714 651 689 c 1
 623 641 l 1
 574 664 518 675 456 675 c 0
 332 675 212 595 146 474 c 1
 523 474 l 1
 514 426 l 1
 125 426 l 1
 107 378 96 326 96 274 c 1
 481 274 l 1
 471 226 l 1
 99 226 l 1
EndSplineSet
Validated: 1
EndChar

StartChar: uni2113
Encoding: 8467 8467 324
Width: 314
VWidth: 1504
Flags: W
HStem: -5 56<89 174.253> 627 47<228.815 277.66>
VStem: 57 55<51.5962 175.578> 279 50<500.74 626.755>
LayerCount: 2
Fore
SplineSet
263 674 m 0
 308 674 329 646 329 598 c 0
 329 566 308 408 162 326 c 1
 114 99 l 2
 112 91 112 84 112 78 c 0
 112 60 119 51 134 51 c 0
 152 51 182 64 223 89 c 1
 211 33 l 1
 170 14 126 -5 105 -5 c 0
 73 -5 57 15 57 54 c 0
 57 67 59 83 63 101 c 2
 104 296 l 1
 51 265 l 1
 33 307 l 1
 117 358 l 1
 158 548 l 2
 176 632 211 674 263 674 c 0
279 594 m 0
 279 615 275 627 256 627 c 0
 236 627 220 601 209 548 c 2
 174 388 l 1
 274 462 279 577 279 594 c 0
EndSplineSet
Validated: 1
EndChar

StartChar: trademark
Encoding: 8482 8482 325
Width: 846
VWidth: 1504
Flags: W
HStem: 698 42<108 239 284 415>
VStem: 239 45<364 698>
LayerCount: 2
Fore
SplineSet
415 698 m 1
 284 698 l 1
 284 364 l 1
 239 364 l 1
 239 698 l 1
 108 698 l 1
 108 740 l 1
 415 740 l 1
 415 698 l 1
821 364 m 1
 775 364 l 1
 757 662 l 1
 639 364 l 1
 606 364 l 1
 489 662 l 1
 471 364 l 1
 424 364 l 1
 450 740 l 1
 499 740 l 1
 623 423 l 1
 746 740 l 1
 796 740 l 1
 821 364 l 1
EndSplineSet
Validated: 1
EndChar

StartChar: Ohm
Encoding: 8486 8486 326
Width: 681
VWidth: 1504
Flags: W
HStem: 0 50<0 173 399 563> 621 51<306.844 497.172>
VStem: 83 60<254.392 447.776> 577 60<353.731 543.308>
LayerCount: 2
Fore
SplineSet
418 672 m 256
 550 672 637 606 637 476 c 0
 637 283 491 166 417 138 c 1
 399 50 l 1
 573 50 l 1
 563 0 l 1
 334 0 l 1
 370 173 l 1
 537 245 577 374 577 457 c 0
 577 545 521 621 406 621 c 256
 255 621 143 489 143 339 c 0
 143 266 181 211 253 173 c 1
 217 0 l 1
 -12 0 l 1
 0 50 l 1
 173 50 l 1
 191 138 l 1
 132 163 83 240 83 333 c 0
 83 466 177 672 418 672 c 256
EndSplineSet
Validated: 1
EndChar

StartChar: estimated
Encoding: 8494 8494 327
Width: 470
VWidth: 1504
Flags: W
HStem: -11 50<122.716 253.485> 292 43<114 378.342> 528 50<218.093 345.321>
VStem: 28 61<73.1204 286.713> 380 53<336.396 490.378>
LayerCount: 2
Fore
SplineSet
380 396 m 0
 380 463 361 528 286 528 c 0
 183 528 137 416 114 335 c 1
 376 335 l 1
 379 357 380 377 380 396 c 0
182 39 m 0
 240 39 297 77 326 155 c 1
 382 155 l 1
 335 44 264 -11 171 -11 c 0
 57 -11 28 75 28 163 c 0
 28 316 101 578 296 578 c 0
 406 578 433 494 433 408 c 0
 433 374 429 335 421 292 c 1
 104 292 l 1
 94 242 89 200 89 166 c 0
 89 100 108 39 182 39 c 0
EndSplineSet
Validated: 1
EndChar

StartChar: partialdiff
Encoding: 8706 8706 328
Width: 476
VWidth: 1504
Flags: W
HStem: -8 62<80.7985 198.751> 373 53<243.113 384> 520 21G<203.345 252> 624 57<297.924 393.699>
VStem: 4 66<63.9329 202.372> 409 63<427.079 611.265>
LayerCount: 2
Fore
SplineSet
102 -8 m 0
 24 -8 4 57 4 103 c 0
 4 253 143 426 367 426 c 0
 380 426 390 425 396 424 c 1
 404 465 409 501 409 529 c 0
 409 592 393 624 356 624 c 0
 312 624 271 589 233 520 c 1
 190 549 l 1
 245 637 304 681 367 681 c 0
 467 681 472 597 472 545 c 0
 472 368 348 -8 102 -8 c 0
355 373 m 0
 167 373 70 213 70 115 c 0
 70 74 90 54 132 54 c 0
 187 54 242 96 296 179 c 0
 337 243 367 307 384 372 c 1
 377 373 367 373 355 373 c 0
EndSplineSet
Validated: 1
EndChar

StartChar: Delta
Encoding: 8710 8710 329
Width: 712
VWidth: 1504
Flags: W
HStem: 0 53<42 563>
LayerCount: 2
Fore
SplineSet
563 53 m 1
 414 575 l 1
 42 53 l 1
 563 53 l 1
648 0 m 1
 -65 0 l 1
 442 710 l 1
 648 0 l 1
EndSplineSet
Validated: 1
EndChar

StartChar: product
Encoding: 8719 8719 330
Width: 670
VWidth: 1504
Flags: W
HStem: 666 50<217 608>
LayerCount: 2
Fore
SplineSet
507 -83 m 1
 448 -83 l 1
 608 666 l 1
 217 666 l 1
 57 -83 l 1
 0 -83 l 1
 168 716 l 1
 677 716 l 1
 507 -83 l 1
EndSplineSet
Validated: 1
EndChar

StartChar: summation
Encoding: 8721 8721 331
Width: 618
VWidth: 1504
Flags: W
HStem: -83 50<27 514> 666 50<176 651>
LayerCount: 2
Fore
SplineSet
514 -83 m 1
 -44 -83 l 1
 -30 -15 l 1
 341 328 l 1
 111 651 l 1
 125 716 l 1
 662 716 l 1
 651 666 l 1
 176 666 l 1
 402 346 l 1
 394 307 l 1
 27 -33 l 1
 525 -33 l 1
 514 -83 l 1
EndSplineSet
Validated: 1
EndChar

StartChar: minus
Encoding: 8722 8722 332
Width: 618
VWidth: 1504
Flags: W
HStem: 248 50<81 523>
LayerCount: 2
Fore
SplineSet
523 248 m 1
 71 248 l 1
 81 298 l 1
 534 298 l 1
 523 248 l 1
EndSplineSet
Validated: 1
EndChar

StartChar: radical
Encoding: 8730 8730 333
Width: 526
VWidth: 1504
Flags: W
HStem: -15 21G<153.95 214.283> 346 42<51 119>
LayerCount: 2
Fore
SplineSet
203 -15 m 1
 156 -15 l 1
 119 346 l 1
 42 346 l 1
 51 388 l 1
 168 388 l 1
 199 59 l 1
 560 710 l 1
 612 710 l 1
 203 -15 l 1
EndSplineSet
Validated: 1
EndChar

StartChar: infinity
Encoding: 8734 8734 334
Width: 929
VWidth: 1504
Flags: W
HStem: 161 44<159.104 310.21 585.281 740.953> 447 42<202.665 347.075 631.983 773.936>
VStem: 80 47<234.905 375.114> 809 47<274.783 413.997>
LayerCount: 2
Fore
SplineSet
127 297 m 0
 127 260 144 205 232 205 c 0
 314 205 401 286 436 332 c 1
 384 409 333 447 283 447 c 0
 175 447 127 365 127 297 c 0
856 362 m 0
 856 279 803 161 647 161 c 0
 576 161 512 207 457 298 c 1
 352 179 273 161 221 161 c 0
 112 161 80 229 80 286 c 0
 80 373 137 489 290 489 c 0
 355 489 418 444 478 353 c 1
 561 444 640 489 716 489 c 0
 801 489 856 445 856 362 c 0
654 203 m 0
 763 203 809 285 809 351 c 0
 809 394 788 445 704 445 c 0
 622 445 535 363 499 317 c 1
 552 241 604 203 654 203 c 0
EndSplineSet
Validated: 1
EndChar

StartChar: integral
Encoding: 8747 8747 335
Width: 364
VWidth: 1504
Flags: W
HStem: -155 50<-141.294 -29.9832> 675 50<333.424 438.609>
LayerCount: 2
Fore
SplineSet
63 -17 m 2
 29 -109 -23 -155 -93 -155 c 0
 -117 -155 -137 -152 -153 -147 c 1
 -137 -99 l 1
 -128 -103 -114 -105 -95 -105 c 0
 -70 -105 -20 -103 9 -24 c 2
 236 591 l 2
 268 680 324 725 405 725 c 0
 426 725 443 724 456 721 c 1
 436 674 l 1
 431 675 423 675 412 675 c 0
 338 675 308 640 289 588 c 2
 63 -17 l 2
EndSplineSet
Validated: 1
EndChar

StartChar: approxequal
Encoding: 8776 8776 336
Width: 618
VWidth: 1504
Flags: W
HStem: 113 52<333.165 457.474> 211 49<111.607 238.042> 313 53<372.781 499.395> 411 49<155.844 281.256>
VStem: 26 46<113 166.361> 69 47<313 366.613> 493 47<205.489 260> 537 47<407.622 460>
LayerCount: 2
Fore
SplineSet
221 460 m 0xf5
 322 460 351 366 448 366 c 0
 491 366 521 397 537 460 c 1
 584 460 l 1
 582 454 556 313 435 313 c 0
 331 313 305 411 211 411 c 0
 164 411 132 378 116 313 c 1
 69 313 l 1
 87 424 167 460 221 460 c 0xf5
177 260 m 0
 279 260 309 165 406 165 c 0
 449 165 478 197 493 260 c 1
 540 260 l 1
 534 207 488 113 391 113 c 0
 287 113 263 211 167 211 c 0
 120 211 88 178 72 113 c 1
 26 113 l 1xfa
 59 244 137 260 177 260 c 0
EndSplineSet
Validated: 1
EndChar

StartChar: notequal
Encoding: 8800 8800 337
Width: 618
VWidth: 1504
Flags: W
HStem: -14 21G<66 136.892> 153 50<60 182 275 502> 349 50<102 319 414 545>
LayerCount: 2
Fore
SplineSet
513 203 m 1
 502 153 l 1
 239 153 l 1
 123 -14 l 1
 66 -14 l 1
 182 153 l 1
 50 153 l 1
 60 203 l 1
 217 203 l 1
 319 349 l 1
 92 349 l 1
 102 399 l 1
 353 399 l 1
 447 532 l 1
 508 532 l 1
 414 399 l 1
 555 399 l 1
 545 349 l 1
 379 349 l 1
 275 203 l 1
 513 203 l 1
EndSplineSet
Validated: 1
EndChar

StartChar: lessequal
Encoding: 8804 8804 338
Width: 618
VWidth: 1504
Flags: W
HStem: 24 45<35 471> 493 20G<492.52 534.439>
LayerCount: 2
Fore
SplineSet
471 24 m 1
 26 24 l 1
 35 69 l 1
 480 69 l 1
 471 24 l 1
447 84 m 1
 108 263 l 1
 123 334 l 1
 539 513 l 1
 526 456 l 1
 168 298 l 1
 459 140 l 1
 447 84 l 1
EndSplineSet
Validated: 1
EndChar

StartChar: greaterequal
Encoding: 8805 8805 339
Width: 618
VWidth: 1504
Flags: W
HStem: 24 45<35 471> 493 20G<156.789 198.989>
LayerCount: 2
Fore
SplineSet
471 24 m 1
 26 24 l 1
 35 69 l 1
 480 69 l 1
 471 24 l 1
486 263 m 1
 69 84 l 1
 81 140 l 1
 441 298 l 1
 149 456 l 1
 161 513 l 1
 501 334 l 1
 486 263 l 1
EndSplineSet
Validated: 1
EndChar

StartChar: lozenge
Encoding: 9674 9674 340
Width: 580
VWidth: 1504
Flags: W
HStem: 0 21G<184.201 275.255> 579 20G<301.927 393.635>
LayerCount: 2
Fore
SplineSet
529 298 m 1
 257 0 l 1
 194 0 l 1
 48 298 l 1
 320 599 l 1
 384 599 l 1
 529 298 l 1
480 298 m 1
 346 572 l 1
 98 298 l 1
 230 24 l 1
 480 298 l 1
EndSplineSet
Validated: 1
EndChar

StartChar: dottedcircle
Encoding: 9676 9676 341
Width: 601
VWidth: 1504
Flags: W
HStem: 33 57<206.976 262.051> 51 56<113.783 167.051 302.914 357.217> 104 55<33.6359 88.2566 382.743 437.496> 187 55<-19.4175 35.3613 435.639 489.496> 281 56<-38.2172 16.086 454.783 509.086> 373 56<-19.034 35.0044 433.914 488.217> 456 55<33.5039 88.2566 381.639 435.364> 508 56<113.783 167.207 301.787 355.217> 525 57<206.976 262.051>
VStem: -39 56<281.783 336.086> -20 56<187.639 241.453 373.709 428.355> 33 56<104.996 158.217 456.783 510.051> 113 55<51.7434 106.496 508.636 563.451> 206 57<33.914 89.0505 525.914 581.051> 302 56<51.914 106.217 508.783 563.148> 382 56<104.949 158.217 456.783 510.207> 435 55<187.639 241.364 373.636 428.257> 454 56<281.783 336.086>
LayerCount: 2
Fore
SplineSet
235 582 m 256x1c8e
 252 582 263 569 263 554 c 256
 263 539 252 525 235 525 c 256
 218 525 206 538 206 554 c 256
 206 571 220 582 235 582 c 256x1c8e
235 90 m 256x9c0e
 252 90 263 77 263 62 c 256
 263 47 252 33 235 33 c 256
 218 33 206 46 206 62 c 256
 206 79 220 90 235 90 c 256x9c0e
-12 337 m 256
 5 337 17 324 17 308 c 256
 17 292 4 281 -12 281 c 256
 -28 281 -39 292 -39 308 c 256x1c4e
 -39 324 -28 337 -12 337 c 256
481 337 m 256
 498 337 510 324 510 308 c 256
 510 292 497 281 481 281 c 256
 465 281 454 292 454 308 c 256x1c0e40
 454 324 465 337 481 337 c 256
8 429 m 256
 25 429 36 415 36 400 c 256
 36 378 18 373 8 373 c 256
 -14 373 -20 389 -20 400 c 256x1c2e
 -20 410 -14 429 8 429 c 256
60 511 m 256x1e1e
 75 511 89 500 89 483 c 256
 89 467 76 456 60 456 c 256
 44 456 33 467 33 483 c 256
 33 500 44 511 60 511 c 256x1e1e
140 564 m 256x1d0e
 157 564 168 552 168 535 c 256
 168 513 150 508 140 508 c 256
 124 508 113 519 113 535 c 256
 113 552 124 564 140 564 c 256x1d0e
462 429 m 256
 478 429 489 416 489 400 c 256
 489 384 478 373 462 373 c 256
 446 373 433 384 433 400 c 256
 433 417 446 429 462 429 c 256
409 511 m 256x1e0e
 431 511 436 493 436 483 c 256
 436 467 425 456 409 456 c 256
 392 456 381 467 381 483 c 256
 381 500 394 511 409 511 c 256x1e0e
329 564 m 256x1d0e
 345 564 356 552 356 535 c 256
 356 519 345 508 329 508 c 256
 312 508 301 519 301 535 c 256
 301 552 312 564 329 564 c 256x1d0e
8 242 m 256
 25 242 36 231 36 215 c 256
 36 198 23 187 8 187 c 256
 -9 187 -20 198 -20 215 c 256x1c2e
 -20 226 -14 242 8 242 c 256
60 159 m 256x3c1e
 76 159 89 148 89 132 c 256
 89 115 75 104 60 104 c 256
 38 104 33 122 33 132 c 256
 33 148 44 159 60 159 c 256x3c1e
140 107 m 256x5c0e
 157 107 168 96 168 80 c 256
 168 65 157 51 140 51 c 256
 124 51 113 64 113 80 c 256
 113 96 124 107 140 107 c 256x5c0e
463 242 m 256
 479 242 490 231 490 215 c 256
 490 198 479 187 463 187 c 256
 446 187 435 200 435 215 c 256x1c0e80
 435 237 453 242 463 242 c 256
411 159 m 256x3c0f
 427 159 438 148 438 132 c 256
 438 115 427 104 411 104 c 256
 396 104 382 115 382 132 c 256
 382 148 395 159 411 159 c 256x3c0f
331 107 m 256x5c0e
 347 107 358 96 358 80 c 256
 358 64 347 51 331 51 c 256
 314 51 302 64 302 80 c 256
 302 96 315 107 331 107 c 256x5c0e
EndSplineSet
Validated: 1
EndChar

StartChar: uni0E10.alt1
Encoding: 63232 63232 342
Width: 515
VWidth: 1504
Flags: W
HStem: -14 50<203.969 303.541> 190 49<103.282 161.573> 319 50<113.144 183.183> 513 56<347.672 490.061> 549 53<188.504 356.611>
VStem: 51 51<240.952 308.772> 141 56<43.97 144.579> 185 53<250.703 317.169> 377 56<298.826 362.815> 517 44<597.829 633.591>
LayerCount: 2
Fore
SplineSet
146 481 m 1xeec0
 325 443 433 407 433 351 c 0
 433 347 433 342 432 337 c 2
 385 119 l 1
 367 30 318 -14 238 -14 c 0xedc0
 173 -14 141 15 141 74 c 0xeec0
 141 88 143 103 146 119 c 2
 162 196 l 1
 150 192 137 190 123 190 c 0
 80 190 51 218 51 255 c 0
 51 311 100 369 162 369 c 0
 205 369 238 346 238 304 c 0xedc0
 238 296 237 288 235 280 c 2
 200 114 l 2
 198 104 197 94 197 86 c 0
 197 53 214 36 248 36 c 0
 292 36 320 62 331 114 c 2
 376 332 l 2
 376 334 377 335 377 337 c 0
 377 389 139 431 68 441 c 1
 87 510 154 602 283 602 c 0xeec0
 339 602 390 569 442 569 c 0
 477 569 502 593 517 642 c 1
 561 632 l 1
 534 553 491 513 433 513 c 0xf6c0
 373 513 318 549 262 549 c 0
 216 549 156 518 146 481 c 1xeec0
134 239 m 256
 158 239 185 263 185 286 c 0
 185 304 172 319 152 319 c 256
 120 319 102 288 102 267 c 0
 102 250 116 239 134 239 c 256
EndSplineSet
Validated: 5
EndChar

StartChar: uni0E48.alt1
Encoding: 63237 63237 347
Width: 0
VWidth: 1504
Flags: W
HStem: 722 217<-165 -155>
VStem: -210 100
LayerCount: 2
Back
SplineSet
-158 707 m 1
 -214 707 l 1
 -167 924 l 1
 -111 924 l 1
 -158 707 l 1
EndSplineSet
Fore
Refer: 352 63242 N 1 0 0 1 -160 0 2
Validated: 1
Substitution2: "Single Substitution lookup 42 subtable" uni0E48.alt3
Substitution2: "Single Substitution lookup 42 subtable" uni0E48.alt3
EndChar

StartChar: uni0E49.alt1
Encoding: 63238 63238 348
Width: 0
VWidth: 1504
Flags: W
HStem: 718 21<-354 -201.5> 939 42<-266.669 -198.544>
VStem: -321 44<861.882 930.113> -196 40<872.341 936.691>
LayerCount: 2
Back
SplineSet
71 949 m 1
 35 853.667 -20.3333 786.667 -95 748 c 0
 -157 715.333 -234.667 699 -328 699 c 2
 -358 699 l 1
 -350 731 l 1
 -308 747 -276 770 -254 800 c 1
 -310 807.333 -332.667 836 -322 886 c 0
 -318 908 -306.167 926.333 -286.5 941 c 128
 -266.833 955.667 -246 963 -224 963 c 0
 -199.333 963 -181.333 955 -170 939 c 128
 -158.667 923 -155.667 902.667 -161 878 c 0
 -173 822 -205.667 777 -259 743 c 1
 -122.333 753 -33 821.667 9 949 c 1
 71 949 l 1
-202 881 m 256
 -200 892.333 -201.667 901.833 -207 909.5 c 128
 -212.333 917.167 -220.667 921 -232 921 c 256
 -242.667 921 -252.833 917.167 -262.5 909.5 c 128
 -272.167 901.833 -278 892.333 -280 881 c 256
 -282 870.333 -280 861.167 -274 853.5 c 128
 -268 845.833 -259.333 842 -248 842 c 256
 -237.333 842 -227.5 845.833 -218.5 853.5 c 128
 -209.5 861.167 -204 870.333 -202 881 c 256
EndSplineSet
Fore
Refer: 353 63243 S 1 0 0 1 -95 0 2
Validated: 1
Substitution2: "Single Substitution lookup 42 subtable" uni0E49.alt3
Substitution2: "Single Substitution lookup 42 subtable" uni0E49.alt3
EndChar

StartChar: uni0E4A.alt1
Encoding: 63239 63239 349
Width: 0
VWidth: 1504
Flags: W
HStem: 702 41<-357.171 -290.564> 817 43<-331.499 -283.036>
VStem: -403 45<745.096 808.39> -282 44<749.902 816.187> -135 44<791.309 896.078> -4 51<871.206 936>
LayerCount: 2
Back
SplineSet
50 949 m 1
 11.3333 792.333 -80.6667 714 -226 714 c 1
 -218 749 l 1
 -172 769 -144 802.667 -134 850 c 0
 -126.667 886 -139 908.667 -171 918 c 1
 -227 869 l 1
 -260 919 l 1
 -269.333 918.333 -282 912.667 -298 902 c 128
 -314 891.333 -324.333 881 -329 871 c 1
 -315 873 -306 874 -302 874 c 0
 -249.333 870.667 -228 843.667 -238 793 c 0
 -254 741.667 -286 716 -334 716 c 0
 -361.333 716 -380.167 725.5 -390.5 744.5 c 128
 -400.833 763.5 -403 787 -397 815 c 0
 -389 852.333 -369.167 886.333 -337.5 917 c 128
 -305.833 947.667 -273.667 963 -241 963 c 1
 -215 915 l 1
 -168 963 l 1
 -138 961.667 -116 950.833 -102 930.5 c 128
 -88 910.167 -84.6667 884.333 -92 853 c 0
 -100 815.667 -117.333 784.667 -144 760 c 1
 -121.333 762 -97 777 -71 805 c 0
 -37 841.667 -13.3333 889.667 0 949 c 1
 50 949 l 1
-280 793 m 0
 -278 803.667 -279.667 812.5 -285 819.5 c 128
 -290.333 826.5 -298 830 -308 830 c 256
 -318 830 -327.5 826.5 -336.5 819.5 c 128
 -345.5 812.5 -351 803.667 -353 793 c 0
 -356.333 781.667 -355 772.833 -349 766.5 c 128
 -343 760.167 -335 757 -325 757 c 256
 -315 757 -305.667 760.167 -297 766.5 c 128
 -288.333 772.833 -282.667 781.667 -280 793 c 0
EndSplineSet
Fore
Refer: 354 63244 S 1 0 0 1 -75 0 2
Validated: 1
Substitution2: "Single Substitution lookup 42 subtable" uni0E4A.alt3
Substitution2: "Single Substitution lookup 42 subtable" uni0E4A.alt3
EndChar

StartChar: uni0E4B.alt1
Encoding: 63240 63240 350
Width: 0
VWidth: 1504
Flags: W
HStem: 716 21<-255 -197.714> 800 45<-313 -237 -175 -98>
VStem: -322 233
LayerCount: 2
Back
SplineSet
-99 791 m 1
 -185 791 l 1
 -203 707 l 1
 -254 707 l 1
 -236 791 l 1
 -322 791 l 1
 -313 832 l 1
 -227 832 l 1
 -211 912 l 1
 -159 912 l 1
 -176 832 l 1
 -90 832 l 1
 -99 791 l 1
EndSplineSet
Fore
Refer: 355 63245 N 1 0 0 1 -205 0 2
Validated: 1
Substitution2: "Single Substitution lookup 42 subtable" uni0E4B.alt3
Substitution2: "Single Substitution lookup 42 subtable" uni0E4B.alt3
EndChar

StartChar: uni0E4C.alt1
Encoding: 63241 63241 351
Width: 0
VWidth: 1504
Flags: W
HStem: 708 40<-236.099 -167.662>
VStem: -283 44<749.978 819.076> -156 41<759.616 826.267> -26 48<959.444 990>
LayerCount: 2
Back
SplineSet
23 990 m 1
 13 956 -8.33333 931.333 -41 916 c 0
 -59.6667 907.333 -85 899.333 -117 892 c 0
 -148.333 886.667 -168 880 -176 872 c 1
 -154.667 870 -138.333 861.333 -127 846 c 128
 -115.667 830.667 -112.333 812 -117 790 c 0
 -122.333 766.667 -134.333 747.167 -153 731.5 c 128
 -171.667 715.833 -192.333 708 -215 708 c 256
 -238.333 708 -256.5 715.833 -269.5 731.5 c 128
 -282.5 747.167 -286.333 766.667 -281 790 c 0
 -266.333 860 -221.333 904.667 -146 924 c 2
 -71 945 l 2
 -43.6667 953.667 -28 968.667 -24 990 c 1
 23 990 l 1
-156 788 m 256
 -154 799.333 -156 809 -162 817 c 128
 -168 825 -176.667 829 -188 829 c 256
 -199.333 829 -210 825 -220 817 c 128
 -230 809 -236 799.333 -238 788 c 256
 -240 777.333 -238 768 -232 760 c 128
 -226 752 -217.333 748 -206 748 c 256
 -195.333 748 -184.833 752 -174.5 760 c 128
 -164.167 768 -158 777.333 -156 788 c 256
EndSplineSet
Fore
Refer: 356 63246 N 1 0 0 1 -104 0 2
Validated: 1
Substitution2: "Single Substitution lookup 42 subtable" uni0E4C.alt3
Substitution2: "Single Substitution lookup 42 subtable" uni0E4C.alt3
EndChar

StartChar: uni0E48.alt2
Encoding: 63242 63242 352
Width: 0
VWidth: 1504
Flags: W
HStem: 722 217<-5 5>
VStem: -50 100
LayerCount: 2
Fore
SplineSet
5 722 m 1
 -50 722 l 1
 -5 939 l 1
 50 939 l 1
 5 722 l 1
EndSplineSet
Validated: 1
Substitution2: "Single Substitution lookup 40 subtable" uni0E48.alt3
Substitution2: "Single Substitution lookup 41 subtable" uni0E48
Substitution2: "Single Substitution lookup 42 subtable" uni0E48.alt1
Substitution2: "Single Substitution lookup 40 subtable" uni0E48.alt3
Substitution2: "Single Substitution lookup 41 subtable" uni0E48
Substitution2: "Single Substitution lookup 42 subtable" uni0E48.alt1
EndChar

StartChar: uni0E49.alt2
Encoding: 63243 63243 353
Width: 0
VWidth: 1504
Flags: W
HStem: 718 21G<-259 -106.5> 939 42<-171.669 -103.544>
VStem: -226 44<861.882 930.113> -101 40<872.341 936.691>
LayerCount: 2
Fore
SplineSet
-61 917 m 0
 -61 891 -76 815 -161 761 c 1
 -26 771 64 840 107 967 c 1
 168 967 l 1
 117 828 16 718 -229 718 c 2
 -259 718 l 1
 -253 749 l 1
 -210 765 -177 788 -156 818 c 1
 -205 824 -226 848 -226 888 c 0
 -226 934 -181 981 -126 981 c 0
 -74 981 -61 943 -61 917 c 0
-150 860 m 256
 -122 860 -101 889 -101 908 c 0
 -101 919 -108 939 -134 939 c 256
 -161 939 -182 913 -182 890 c 0
 -182 878 -174 860 -150 860 c 256
EndSplineSet
Validated: 1
Substitution2: "Single Substitution lookup 40 subtable" uni0E49.alt3
Substitution2: "Single Substitution lookup 41 subtable" uni0E49
Substitution2: "Single Substitution lookup 42 subtable" uni0E49.alt1
Substitution2: "Single Substitution lookup 40 subtable" uni0E49.alt3
Substitution2: "Single Substitution lookup 41 subtable" uni0E49
Substitution2: "Single Substitution lookup 42 subtable" uni0E49.alt1
EndChar

